<svg width="93" height="93" viewBox="0 0 93 93" fill="none" xmlns="http://www.w3.org/2000/svg">
<path d="M46.762 92.16C43.8792 92.16 40.9729 91.8866 38.1175 91.3436C26.0555 89.0467 15.6135 82.1913 8.70745 72.0386C1.80125 61.8826 -0.733949 49.6476 1.56295 37.5896C5.68405 15.9336 24.653 0.2146 46.665 0.2146C49.5478 0.2146 52.458 0.48804 55.3095 1.03491C67.3715 3.33181 77.8175 10.1872 84.7195 20.3399C91.6256 30.4919 94.1609 42.7269 91.864 54.7849C87.7429 76.4409 68.7739 92.1599 46.762 92.1599V92.16ZM46.6643 5.21501C27.0513 5.21501 10.1483 19.223 6.47629 38.524C4.42939 49.274 6.69113 60.172 12.8435 69.223C18.9958 78.2699 28.3045 84.379 39.0545 86.426C41.6014 86.9104 44.1951 87.1565 46.7654 87.1565C66.3824 87.1565 83.2854 73.1485 86.9564 53.8445C88.9994 43.1025 86.7376 32.1995 80.5853 23.1535C74.433 14.1066 65.1203 7.99348 54.3703 5.94648C51.8234 5.46211 49.2297 5.21601 46.6633 5.21601L46.6643 5.21501Z" fill="#8181A5"/>
<path d="M31.8091 53.441C31.7505 53.441 31.6919 53.4371 31.6333 53.4332C18.8993 52.5582 4.27034 40.4922 5.20734 26.8312C5.30109 25.4523 6.48464 24.4171 7.87144 24.507C9.25034 24.6008 10.2894 25.7961 10.1956 27.1711C9.58627 36.0305 19.5198 47.5851 31.9766 48.4441C33.3555 48.5379 34.3946 49.7332 34.2969 51.1082C34.211 52.4324 33.1133 53.4402 31.8086 53.4402L31.8091 53.441Z" fill="#8181A5"/>
<path d="M38.582 91.3871C37.4648 91.3871 36.4492 90.6331 36.1601 89.5004C35.8202 88.1606 36.6288 86.8012 37.9687 86.4613C48.1597 83.8715 55.8707 70.7113 53.2497 60.3833C52.9098 59.0435 53.7184 57.6841 55.0583 57.3481C56.3981 57.0082 57.7536 57.8168 58.0935 59.1567C61.3826 72.1257 52.0232 88.0547 39.1955 91.3087C38.9924 91.3594 38.7853 91.3868 38.5822 91.3868L38.582 91.3871Z" fill="#8181A5"/>
<path d="M49.8241 33.0621C49.367 33.0621 48.9061 32.9371 48.4882 32.6753C47.3202 31.9371 46.9726 30.3941 47.7108 29.2261C51.3163 23.523 58.0818 19.1601 65.8048 17.5541C72.8439 16.0932 79.6958 17.1752 84.6098 20.5189C85.7504 21.2963 86.0473 22.8509 85.27 23.9916C84.4927 25.1322 82.938 25.4291 81.7973 24.6518C77.9965 22.0659 72.5395 21.2612 66.8243 22.4487C60.4024 23.7807 54.8403 27.312 51.9413 31.894C51.4647 32.6518 50.6522 33.062 49.8241 33.062L49.8241 33.0621Z" fill="#8181A5"/>
<path d="M46.6948 63.1291C45.644 63.1291 44.5815 63.0275 43.5425 62.8322C34.4605 61.1017 28.4765 52.3052 30.2065 43.2232C31.7143 35.3209 38.6362 29.5862 46.6675 29.5862C47.7183 29.5862 48.7808 29.6877 49.8198 29.8831C54.2182 30.719 58.0307 33.2229 60.5498 36.9261C63.0689 40.6293 63.9951 45.0941 63.1553 49.4921C61.6475 57.3944 54.7295 63.1291 46.6943 63.1291L46.6948 63.1291ZM46.6636 34.5861C41.0308 34.5861 36.1756 38.6095 35.1166 44.1564C33.9018 50.5314 38.101 56.7034 44.476 57.9184C45.2065 58.059 45.9565 58.1293 46.6948 58.1293C52.3315 58.1293 57.1868 54.1059 58.2418 48.559C58.8316 45.4692 58.1793 42.3363 56.4137 39.7387C54.6442 37.141 51.9723 35.3832 48.8825 34.7973C48.1481 34.6567 47.402 34.5864 46.6637 34.5864L46.6636 34.5861Z" fill="#1991EB"/>
</svg>
