<svg width="120" height="120" viewBox="0 0 120 120" fill="none" xmlns="http://www.w3.org/2000/svg">
<path d="M15.5854 57.229L14.9713 59.118H12.9839L14.5916 60.2852L13.9776 62.1743L15.5853 61.0071L17.1931 62.1743L16.579 60.2852L18.1868 59.118H16.1994L15.5854 57.229Z" fill="#8181A5"/>
<path d="M107.194 24.174C106.425 19.0318 101.62 15.4224 96.4593 16.0974C86.1609 17.4802 67.7301 19.7958 59.9997 19.7958C52.2653 19.7958 33.8337 17.4802 23.5401 16.0974C18.3885 15.4365 13.5791 19.0271 12.8104 24.174L2.50731 92.9868C2.04325 96.0805 3.12138 99.2118 5.39475 101.359C7.65879 103.506 10.837 104.429 13.9073 103.782C26.9009 101.106 50.1749 96.6244 59.9993 96.6244C69.8196 96.6244 93.0929 101.11 106.087 103.782C106.729 103.913 107.376 103.979 108.013 103.979C110.437 103.979 112.804 103.06 114.599 101.359C116.863 99.2071 117.941 96.0806 117.477 92.9867L107.194 24.174ZM23.1192 19.2709C33.4973 20.6584 52.0836 23.0022 60 23.0022C67.9164 23.0022 86.5032 20.6632 96.8808 19.2709C98.2636 19.074 99.5995 19.374 100.757 20.0069L82.935 55.4633C82.396 56.5554 82.1522 57.7649 82.0444 58.9836L37.1236 58.4164C37.0205 57.2304 36.7955 56.0538 36.3033 54.9898L20.0193 19.6558C20.9849 19.2855 22.0349 19.1167 23.1177 19.2714L23.1192 19.2709ZM9.85323 100.384C9.03292 100.093 8.25951 99.6618 7.59855 99.0384C6.06111 97.5853 5.36259 95.5556 5.67663 93.4603L15.975 24.6475C16.1532 23.471 16.6641 22.4256 17.3766 21.5538L33.399 56.3166C34.3647 58.4119 34.2287 61.1869 33.0615 63.0572L9.85323 100.384ZM106.739 100.651C93.618 97.9509 70.1016 93.4181 60 93.4181C49.95 93.4181 26.6388 97.8994 13.4808 100.604L35.7792 64.7541C36.3605 63.8166 36.7027 62.7385 36.937 61.6181L82.2466 62.19C82.4998 63.301 82.8701 64.3791 83.4889 65.3073L107.095 100.683C106.978 100.665 106.861 100.679 106.739 100.65L106.739 100.651ZM112.406 99.0383C111.876 99.5446 111.258 99.9008 110.62 100.196L86.1557 63.535C84.923 61.6927 84.7776 58.9553 85.7948 56.8927L103.18 22.3087C103.602 23.0071 103.902 23.7994 104.029 24.6524L114.323 93.47C114.641 95.5513 113.938 97.581 112.405 99.0388L112.406 99.0383Z" fill="#8181A5"/>
<path d="M52.716 64.4485C45.9707 64.4485 40.4868 69.9328 40.4868 76.6777C40.4868 83.423 45.9712 88.9069 52.716 88.9069C59.4613 88.9069 64.9452 83.4225 64.9452 76.6777C64.9452 69.9324 59.4609 64.4485 52.716 64.4485ZM52.716 85.7017C47.7379 85.7017 43.6926 81.6517 43.6926 76.6783C43.6926 71.7002 47.7426 67.6549 52.716 67.6549C57.6941 67.6549 61.7394 71.7049 61.7394 76.6783C61.7394 81.6517 57.6941 85.7017 52.716 85.7017Z" fill="#8181A5"/>
<path d="M57.5856 75.0707H54.3184V71.2129C54.3184 70.327 53.5965 69.6145 52.72 69.6145C51.8387 69.6145 51.1216 70.3364 51.1216 71.2129V76.6692C51.1216 77.5551 51.8435 78.2676 52.72 78.2676H57.5903C58.4762 78.2676 59.1887 77.5457 59.1887 76.6692C59.1934 75.7926 58.4715 75.0708 57.5856 75.0708V75.0707Z" fill="#8181A5"/>
<path d="M53.3294 81.4775C50.4513 81.4775 48.1074 79.1338 48.1074 76.2556C48.1074 75.3697 47.3856 74.6572 46.509 74.6572C45.6278 74.6572 44.9106 75.3791 44.9106 76.2556C44.9106 80.9009 48.6887 84.679 53.334 84.679C54.22 84.679 54.9324 83.9572 54.9324 83.0806C54.9324 82.1947 54.2153 81.4775 53.3294 81.4775Z" fill="#8181A5"/>
<path d="M43.561 30.9938C43.561 28.1718 41.2736 25.8844 38.4516 25.8844C35.6297 25.8844 33.3423 28.1718 33.3423 30.9938C33.3423 33.8157 35.6297 36.1031 38.4516 36.1031C41.2782 36.1078 43.561 33.8204 43.561 30.9938Z" fill="#8181A5"/>
<path d="M102.829 68.7468C99.4637 68.7468 96.731 71.4891 96.731 74.8452C96.731 78.2062 99.4732 80.9436 102.829 80.9436C106.19 80.9436 108.928 78.2014 108.928 74.8452C108.928 71.4891 106.186 68.7468 102.829 68.7468ZM102.829 76.9499C101.672 76.9499 100.729 76.0077 100.729 74.8499C100.729 73.6921 101.672 72.7499 102.829 72.7499C103.987 72.7499 104.929 73.6921 104.929 74.8499C104.929 76.0124 103.987 76.9499 102.829 76.9499Z" fill="#8181A5"/>
<path d="M74.7662 32.9722C75.8584 32.9722 76.7396 32.0863 76.7396 30.9988C76.7396 29.9066 75.8536 29.0254 74.7662 29.0254C73.674 29.0254 72.7881 29.9113 72.7881 30.9988C72.7928 32.0863 73.6787 32.9722 74.7662 32.9722Z" fill="#8181A5"/>
<path d="M75.5435 46.4857C75.5435 47.5779 76.4294 48.4638 77.5169 48.4638C78.6091 48.4638 79.4949 47.5779 79.4949 46.4857C79.4949 45.3935 78.609 44.5123 77.5169 44.5123C76.4294 44.5123 75.5435 45.3936 75.5435 46.4857Z" fill="#8181A5"/>
<path d="M102.829 42.7548C102.829 47.9298 95.0669 47.9298 95.0669 42.7548C95.0669 37.5845 102.829 37.5845 102.829 42.7548Z" fill="#8181A5"/>
<path d="M104.798 60.3048C104.798 62.9345 100.856 62.9345 100.856 60.3048C100.856 57.6751 104.798 57.6751 104.798 60.3048Z" fill="#8181A5"/>
<path d="M84.6194 27.8627C85.7116 27.8627 86.5975 26.9768 86.5975 25.8893C86.5975 24.7971 85.7115 23.9159 84.6194 23.9159C83.5273 23.9159 82.646 24.8018 82.646 25.8893C82.6507 26.9815 83.5273 27.8627 84.6194 27.8627Z" fill="#8181A5"/>
<path d="M82.1112 38.2357C82.1112 40.8654 78.1689 40.8654 78.1689 38.2357C78.1689 35.606 82.1112 35.606 82.1112 38.2357Z" fill="#8181A5"/>
<path d="M34.2516 24.8064H32.2641L31.65 22.9174L31.036 24.8064H29.0532L30.661 25.9736L30.0422 27.8626L31.65 26.6954L33.2578 27.8626L32.6437 25.9736L34.2516 24.8064Z" fill="#8181A5"/>
<path d="M85.5094 30.4128H83.522L85.1297 31.58L84.5157 33.4738L86.1234 32.3066L87.7312 33.4738L87.1171 31.58L88.7249 30.4128H86.7374L86.1234 28.5238L85.5094 30.4128Z" fill="#8181A5"/>
<path d="M94.0127 56.0256L93.3986 54.1318L92.7845 56.0256H90.8018L92.4048 57.1927L91.7908 59.0818L93.3985 57.9146L95.0063 59.0818L94.3922 57.1927L96 56.0256H94.0127Z" fill="#8181A5"/>
<path d="M67.2839 71.5306V80.3618C67.2839 81.2478 68.0058 81.9602 68.8823 81.9602H75.3886V82.6915H74.062C73.1761 82.6915 72.4636 83.4134 72.4636 84.2899C72.4636 85.1711 73.1855 85.8883 74.062 85.8883H79.9214C80.8073 85.8883 81.5198 85.1664 81.5198 84.2899C81.5198 83.4086 80.7979 82.6915 79.9214 82.6915H78.5948V81.9602H85.1478C86.0338 81.9602 86.7462 81.2384 86.7462 80.3618V71.5306C86.7462 70.6446 86.0244 69.9322 85.1478 69.9322H68.8914C68.0008 69.9275 67.2837 70.6493 67.2837 71.5306H67.2839ZM70.4855 73.129H83.5403V78.7586H70.4855V73.129Z" fill="#8181A5"/>
<path d="M33.3422 77.5081C28.8 77.5081 25.1016 81.2018 25.1016 85.7487C25.1016 90.2909 28.7953 93.9893 33.3422 93.9893C37.8844 93.9893 41.5875 90.2956 41.5875 85.7487C41.5828 81.2065 37.8844 77.5081 33.3422 77.5081ZM33.3422 90.7789C30.5672 90.7789 28.3078 88.5242 28.3078 85.7445C28.3078 82.9648 30.5625 80.7101 33.3422 80.7101C36.1219 80.7101 38.3812 82.9648 38.3812 85.7445C38.3812 88.5242 36.1219 90.7789 33.3422 90.7789Z" fill="#8181A5"/>
<path d="M44.226 54.3048C44.7978 54.8626 45.5244 55.1392 46.4244 55.1392C47.8916 55.1392 49.8134 54.3892 52.2134 52.8985C52.6681 52.6126 53.1556 52.261 53.6337 51.9282C54.6228 52.4157 55.6541 52.8235 56.765 53.0391C57.5619 53.1938 58.3587 53.2688 59.151 53.2688C61.6026 53.2688 63.9979 52.5423 66.0697 51.1408C68.8213 49.2845 70.6823 46.4674 71.315 43.2142C71.8588 40.4064 71.3806 37.5845 70.0587 35.0908C70.3353 34.6689 70.6447 34.2283 70.8884 33.8204C73.2134 29.8924 73.6165 27.2627 72.1212 25.8001C70.3586 24.0845 66.8993 25.0876 61.8462 28.7674C61.7243 28.7392 61.6165 28.6877 61.4993 28.6642C54.7493 27.3423 48.2477 31.7673 46.9445 38.4939C46.5976 40.2799 46.682 42.0752 47.0992 43.7908C43.4289 49.0127 42.4447 52.5564 44.226 54.3048ZM68.1792 42.6095C67.7104 45.0235 66.3276 47.1188 64.2885 48.4969C62.2448 49.875 59.7839 50.3766 57.3745 49.9079C57.1167 49.861 56.8823 49.7579 56.6339 49.6876C58.5651 48.1172 60.5619 46.3172 62.5213 44.3156C64.5369 42.2579 66.3369 40.1626 67.8932 38.1469C68.3432 39.5766 68.4745 41.0906 68.1792 42.6095ZM69.7869 27.9515C69.9557 28.5093 69.3885 30.0702 68.0713 32.2734C67.2838 31.4484 66.3932 30.764 65.4182 30.1921C68.226 28.3781 69.6557 28.0499 69.7869 27.9515ZM50.0853 39.1031C50.9385 34.6968 54.8103 31.6405 59.1323 31.6405C59.7182 31.6405 60.2994 31.6968 60.89 31.8092C63.0275 32.2264 64.8744 33.3842 66.2337 35.0483C64.7384 37.1108 62.765 39.4967 60.2431 42.0749C57.7821 44.5874 55.4994 46.5655 53.5071 48.1076C52.7478 47.517 52.0494 46.8373 51.5009 46.017C50.1181 43.978 49.6166 41.5218 50.0853 39.1031ZM48.8431 47.8077C49.4103 48.6468 50.0947 49.3781 50.8305 50.039C48.5525 51.5484 46.9868 52.2327 46.5602 52.1531C46.4618 51.8203 46.729 50.2968 48.5805 47.325C48.679 47.4844 48.7447 47.6577 48.8431 47.8077Z" fill="#1991EB"/>
<path d="M21.1738 51.9743C24.1551 51.9743 26.5878 49.5462 26.5878 46.5603C26.5878 43.5743 24.1598 41.1462 21.1738 41.1462C18.1878 41.1462 15.7598 43.5743 15.7598 46.5603C15.7645 49.5462 18.1925 51.9743 21.1738 51.9743ZM21.1738 44.3571C22.3925 44.3571 23.3816 45.3508 23.3816 46.5696C23.3816 47.7885 22.3925 48.7774 21.1738 48.7774C19.9551 48.7774 18.966 47.7883 18.966 46.5696C18.966 45.3462 19.9551 44.3571 21.1738 44.3571Z" fill="#8181A5"/>
<path d="M25.0499 58.2985C22.9077 58.2985 21.1733 60.0328 21.1733 62.1751C21.1733 64.3173 22.9077 66.0517 25.0499 66.0517C27.1922 66.0517 28.9265 64.3173 28.9265 62.1751C28.9219 60.0376 27.1875 58.2985 25.0499 58.2985Z" fill="#8181A5"/>
<path d="M15.5856 70.2323C14.3106 70.2323 13.2793 71.2636 13.2793 72.5386C13.2793 73.8136 14.3152 74.8449 15.5856 74.8449C16.8559 74.8449 17.8919 73.8136 17.8919 72.5386C17.8965 71.2636 16.8606 70.2323 15.5856 70.2323Z" fill="#8181A5"/>
</svg>
