<svg width="100" height="100" viewBox="0 0 100 100" fill="none" xmlns="http://www.w3.org/2000/svg">
<path d="M86.1911 88.98H58.3001V77.238H75.1591C82.3505 77.238 88.1981 71.3864 88.1981 64.199C88.1981 59.5506 85.7372 55.4685 82.0692 53.16C85.7411 50.8514 88.1903 46.7694 88.1903 42.121C88.1903 37.4726 85.7411 33.4022 82.0692 31.09C85.7411 28.7814 88.1903 24.6994 88.1903 20.051C88.1903 12.8596 82.3505 7.02002 75.1593 7.02002H37.4403C30.2489 7.02002 24.4013 12.8598 24.4013 20.051C24.4013 24.6994 26.8505 28.7698 30.5224 31.082C29.7021 31.6015 28.9208 32.2031 28.2216 32.9023C26.2528 34.8711 24.9911 37.3515 24.5614 40.082C24.3895 41.1836 25.1395 42.2031 26.2333 42.3711C27.3349 42.543 28.3544 41.793 28.5224 40.6992C28.8115 38.8398 29.7021 37.0703 31.0419 35.7383C32.7607 34.0274 35.0302 33.0899 37.4403 33.0899H75.1593C77.6476 33.0899 79.9093 34.1016 81.5382 35.7383C83.1788 37.3672 84.1866 39.6289 84.1866 42.1172C84.1866 47.0977 80.1358 51.1563 75.1554 51.1563L50.4674 51.1602C49.358 51.1602 48.4674 52.0508 48.4674 53.1602C48.4674 53.711 48.6862 54.211 49.0455 54.5704C49.4166 54.9415 49.9166 55.1603 50.4674 55.1603H75.1584C80.1389 55.1603 84.1896 59.2111 84.1896 64.1994C84.1896 69.1799 80.1388 73.2306 75.1584 73.2306H56.3184H56.2989H56.2794H48.1974C47.088 73.2306 46.1974 74.129 46.1974 75.2306C46.1974 76.34 47.088 77.2306 48.1974 77.2306H54.299V88.9806H26.397C25.2954 88.9806 24.397 89.879 24.397 90.9806C24.397 92.09 25.2954 92.9806 26.397 92.9806H86.186C87.2954 92.9806 88.186 92.09 88.186 90.9806C88.1899 89.879 87.2993 88.9806 86.1899 88.9806L86.1911 88.98ZM75.1601 29.089H37.4411C34.9411 29.089 32.6794 28.0773 31.0505 26.4406C29.4099 24.8 28.4021 22.5422 28.4021 20.05C28.4021 15.0695 32.4529 11.0188 37.4412 11.0188H75.1602C80.1407 11.0188 84.1914 15.0696 84.1914 20.05C84.1914 25.0304 80.1406 29.0891 75.1602 29.0891L75.1601 29.089Z" fill="#8181A5"/>
<path d="M32.6907 71.4879H32.6193C29.7504 71.472 27.1004 70.5009 24.9689 68.8831L23.9266 68.092L23.0014 69.0172L14.1616 77.857L15.1976 78.893L14.1616 77.857C14.0717 77.9469 13.9544 77.9958 13.812 77.9958C13.6642 77.9958 13.5404 77.9443 13.4481 77.8543C13.2539 77.6571 13.2586 77.3415 13.4481 77.1529L13.4508 77.1502L22.2906 68.3104L23.2158 67.3852L22.4248 66.3429C20.7936 64.1937 19.8197 61.5173 19.8197 58.6209C19.8197 51.5274 25.5974 45.7499 32.6907 45.7499C39.7839 45.7499 45.5613 51.5271 45.5617 58.6201C45.5582 65.7104 39.7801 71.4879 32.6907 71.4879Z" stroke="#1991EB" stroke-width="3"/>
<path d="M75.1597 44.125C76.2652 44.125 77.1597 43.2305 77.1597 42.125C77.1597 41.0195 76.2652 40.125 75.1597 40.125H67.9331C66.8276 40.125 65.9331 41.0195 65.9331 42.125C65.9331 43.2305 66.8276 44.125 67.9331 44.125H75.1597Z" fill="#8181A5"/>
<path d="M75.1597 18.051H67.9331C66.8276 18.051 65.9331 18.9456 65.9331 20.051C65.9331 21.1565 66.8276 22.051 67.9331 22.051H75.1597C76.2652 22.051 77.1597 21.1565 77.1597 20.051C77.1597 18.9494 76.2652 18.051 75.1597 18.051Z" fill="#8181A5"/>
<path d="M75.1597 66.1951C76.2652 66.1951 77.1597 65.3005 77.1597 64.1951C77.1597 63.0896 76.2652 62.1951 75.1597 62.1951H67.9331C66.8276 62.1951 65.9331 63.0896 65.9331 64.1951C65.9331 65.3006 66.8276 66.1951 67.9331 66.1951H75.1597Z" fill="#8181A5"/>
</svg>
