<svg width="103" height="26" viewBox="0 0 103 26" fill="none" xmlns="http://www.w3.org/2000/svg">
<path fill-rule="evenodd" clip-rule="evenodd" d="M67.6313 9.34133C69.5386 9.34133 71.3766 9.57095 72.9623 9.91566L71.147 20.3015C70.5493 23.6101 68.0219 26 64.3914 26C62.9211 26 61.6112 25.6556 60.5543 25.1958L61.0828 23.909C62.2086 24.2768 63.3575 24.5753 64.5982 24.5753C67.1718 24.5753 69.056 22.921 69.5616 20.3243C67.8561 20.6267 67.0029 20.6451 65.7816 20.6462L65.5403 20.6462C62.5992 20.6462 60.9221 18.6011 61.1978 15.5221C61.4733 11.8688 64.1617 9.34133 67.6313 9.34133ZM21.9517 9.3412C24.9387 9.3412 26.6391 11.2023 26.1566 14.3733C26.0648 14.9248 26.0189 15.0855 25.858 15.5912H17.0116C16.8737 18.0269 18.0454 19.1525 20.504 19.1525C21.607 19.1525 23.0086 18.8767 24.4564 18.5554L24.5253 19.9108C23.2613 20.2786 21.676 20.6464 20.2971 20.6464C16.7358 20.6464 15.0585 18.4633 15.4032 15.3844C15.7476 11.7077 18.5739 9.3412 21.9517 9.3412ZM33.2565 9.34133C35.1635 9.34133 36.5654 9.52508 38.5875 9.91566L36.5292 20.3015H34.9666L35.1276 19.3594C33.6339 20.2326 32.6361 20.6462 31.1655 20.6462C28.2244 20.6462 26.547 18.6011 26.8228 15.5221C27.0986 11.8688 29.7639 9.34133 33.2565 9.34133ZM51.9603 4.40095C53.8443 4.40095 56.027 4.81459 57.383 5.31997L56.7164 6.76773C55.0393 6.23927 53.109 5.8715 51.5926 5.8715C49.0879 5.8715 47.3185 7.11243 47.3185 9.11144C47.3185 10.4441 48.4216 10.9036 50.857 11.4552C53.8443 12.1215 56.0732 12.7647 56.0732 15.4073C56.0732 18.762 53.2697 20.6462 49.3637 20.6462C47.3416 20.6462 44.9748 20.1637 43.1137 19.3366L43.8031 17.8199C45.7331 18.67 47.87 19.1298 49.7084 19.1298C52.3734 19.1298 54.3499 17.8658 54.3499 15.7748C54.3499 13.9789 52.5527 13.4881 50.6186 13.0651L50.4451 13.0274C50.2423 12.9835 50.0386 12.9399 49.8358 12.8953L49.6622 12.8568C46.767 12.2135 45.5494 11.3862 45.5494 9.47894C45.5494 6.39995 48.2378 4.40095 51.9603 4.40095ZM92.3787 9.34133C94.286 9.34133 95.6873 9.52508 97.7097 9.91566L95.7486 20.3015H94.186L94.347 19.3594C92.8533 20.2326 91.7585 20.6462 90.2877 20.6462C87.3466 20.6462 85.6692 18.6011 85.945 15.5221C86.2205 11.8688 88.8861 9.34133 92.3787 9.34133ZM8.04217 4.49282C12.3159 4.49282 15.0044 6.99749 15.0044 11.0186C15.0044 16.6481 10.7306 20.4624 5.4227 20.4624C3.56157 20.4624 1.35574 20.3706 0 20.3017L2.75736 4.67685C3.5521 4.63627 4.63104 4.58003 5.73966 4.54043L6.13175 4.5272C6.78592 4.50647 7.43999 4.49282 8.04217 4.49282ZM43.7343 3.98744L40.839 20.3017H39.2764L42.1717 3.98744H43.7343ZM102.759 3.98744L99.864 20.3017H98.3017L101.197 3.98744H102.759ZM60.5258 9.68587L58.593 20.3016H57.0304L58.9633 9.68587H60.5258ZM81.1883 9.34111C83.8765 9.34111 85.2553 10.9954 84.7727 13.7069L83.6007 20.3016H82.0384L83.1415 14.0516C83.509 11.9837 82.5899 10.7886 80.6827 10.7886C79.5109 10.7886 78.1552 10.8575 76.6618 11.1105L75.0301 20.3016H73.4678L75.3058 9.91571C76.9146 9.57101 79.3041 9.34111 81.1883 9.34111ZM67.5854 10.6968C64.7361 10.6968 62.7371 12.7878 62.7371 15.8209C62.7371 17.8889 63.9321 19.2905 65.977 19.2905L66.4866 19.2907C66.5141 19.2907 66.5414 19.2906 66.5687 19.2905L66.732 19.2894C67.5464 19.2816 68.3472 19.234 69.8143 18.9689L71.216 10.9956C69.9291 10.7888 68.8722 10.6968 67.5854 10.6968ZM33.2104 10.6968C30.3613 10.6968 28.3623 12.7878 28.3623 15.8209C28.3623 17.8889 29.5571 19.2905 31.602 19.2905C32.8429 19.2905 33.7949 18.9458 35.3803 18.0037L36.8412 10.9956C35.5544 10.7888 34.4972 10.6968 33.2104 10.6968ZM92.3326 10.6968C89.4835 10.6968 87.4845 12.7878 87.4845 15.8209C87.4845 17.8889 88.6795 19.2905 90.7244 19.2905C91.9651 19.2905 93.0143 18.9458 94.5997 18.0037L95.9631 10.9956C94.6766 10.7888 93.6197 10.6968 92.3326 10.6968ZM7.78948 6.00952C6.66363 6.00952 5.33096 6.05539 4.13617 6.10126L1.8842 18.8767C3.12486 18.9229 4.50367 18.9457 5.69846 18.9457C9.90357 18.9457 13.2811 15.8667 13.2811 11.2254C13.2811 7.98545 11.1673 6.00952 7.78948 6.00952ZM21.7449 10.628C19.516 10.628 17.7469 12.0986 17.1723 14.3502H24.686C25.0076 11.8917 23.9049 10.628 21.7449 10.628ZM60.0482 6.34128C60.5569 6.34128 60.9565 6.72307 60.9565 7.24987C60.9565 7.75855 60.5569 8.14006 60.0482 8.14006C59.5395 8.14006 59.1396 7.75855 59.1396 7.24987C59.1396 6.72307 59.5395 6.34128 60.0482 6.34128ZM61.4917 0C65.1036 0.520994 67.6831 3.79051 67.3644 7.41371L67.3539 7.5236H66.3544C66.7386 4.34951 64.5113 1.44677 61.3611 0.986072L61.2654 0.972861L61.4917 0ZM60.5298 4.13455C62.0474 4.50559 63.1202 5.87981 63.1125 7.43988L63.1111 7.52363H62.1154C62.1614 6.41393 61.4317 5.42041 60.376 5.11982L60.3051 5.10082L60.5298 4.13455ZM61.0183 2.03436C63.5953 2.49226 65.4273 4.82329 65.2697 7.4303L65.2632 7.52352H64.2629C64.4726 5.3704 62.992 3.41606 60.8808 3.02112L60.7925 3.00557L61.0183 2.03436Z" fill="white"/>
</svg>
