<svg width="180" height="46" viewBox="0 0 180 46" fill="none" xmlns="http://www.w3.org/2000/svg">
<path fill-rule="evenodd" clip-rule="evenodd" d="M118.468 16.2506C121.809 16.2506 125.028 16.6501 127.806 17.2497L124.626 35.3175C123.579 41.0733 119.152 45.2308 112.792 45.2308C110.217 45.2308 107.922 44.6316 106.071 43.8317L106.997 41.5931C108.969 42.2329 110.981 42.7523 113.155 42.7523C117.663 42.7523 120.963 39.8744 121.849 35.3571C118.861 35.8832 117.367 35.9151 115.228 35.917L114.805 35.9171C109.653 35.9171 106.715 32.3593 107.198 27.003C107.681 20.6475 112.39 16.2506 118.468 16.2506ZM38.4521 16.2504C43.6843 16.2504 46.6629 19.4881 45.8176 25.0045C45.6569 25.9639 45.5766 26.2435 45.2946 27.1231H29.7987C29.5572 31.3604 31.6096 33.3185 35.9161 33.3185C37.8483 33.3185 40.3035 32.8388 42.8395 32.2797L42.9602 34.6378C40.7461 35.2776 37.9691 35.9174 35.5539 35.9174C29.3156 35.9174 26.3774 32.1197 26.9812 26.7633C27.5846 20.3673 32.5353 16.2504 38.4521 16.2504ZM58.2544 16.2506C61.5948 16.2506 64.0505 16.5703 67.5925 17.2497L63.987 35.3175H61.2499L61.5318 33.6786C58.9155 35.1975 57.1676 35.9171 54.5917 35.9171C49.4398 35.9171 46.5016 32.3593 46.9847 27.003C47.4677 20.6475 52.1365 16.2506 58.2544 16.2506ZM91.0173 7.65609C94.3173 7.65609 98.1407 8.37568 100.516 9.25486L99.3484 11.7734C96.4106 10.8541 93.0293 10.2143 90.373 10.2143C85.9857 10.2143 82.8863 12.3731 82.8863 15.8507C82.8863 18.169 84.8185 18.9684 89.0846 19.9279C94.3173 21.0871 98.2216 22.2061 98.2216 26.8032C98.2216 32.6393 93.3108 35.9171 86.4687 35.9171C82.9267 35.9171 78.7809 35.0776 75.5209 33.6389L76.7285 31.0004C80.1093 32.4792 83.8524 33.2791 87.0726 33.2791C91.7409 33.2791 95.203 31.0802 95.203 27.4425C95.203 24.3183 92.055 23.4645 88.667 22.7286L88.363 22.663C88.0078 22.5867 87.6509 22.5109 87.2957 22.4333L86.9917 22.3662C81.9202 21.2472 79.7874 19.808 79.7874 16.49C79.7874 11.1336 84.4966 7.65609 91.0173 7.65609ZM161.817 16.2506C165.158 16.2506 167.612 16.5703 171.155 17.2497L167.72 35.3175H164.983L165.265 33.6786C162.648 35.1975 160.73 35.9171 158.154 35.9171C153.002 35.9171 150.064 32.3593 150.547 27.003C151.03 20.6475 155.699 16.2506 161.817 16.2506ZM14.0872 7.81592C21.5735 7.81592 26.2827 12.1731 26.2827 19.1684C26.2827 28.9618 18.7964 35.5972 9.49877 35.5972C6.23869 35.5972 2.37481 35.4376 0 35.3177L4.82997 8.13605C6.2221 8.06547 8.11205 7.96763 10.054 7.89874L10.7408 7.87572C11.8867 7.83966 13.0324 7.81592 14.0872 7.81592ZM76.6079 6.93673L71.5364 35.3177H68.7993L73.8708 6.93673H76.6079ZM180 6.93673L174.928 35.3177H172.192L177.263 6.93673H180ZM106.021 16.85L102.636 35.3177H99.8984L103.284 16.85H106.021ZM142.215 16.2502C146.924 16.2502 149.339 19.1281 148.494 23.8451L146.441 35.3176H143.704L145.636 24.4448C146.28 20.8473 144.67 18.7683 141.329 18.7683C139.277 18.7683 136.902 18.8883 134.286 19.3283L131.428 35.3176H128.691L131.911 17.2498C134.729 16.6502 138.915 16.2502 142.215 16.2502ZM118.387 18.6086C113.396 18.6086 109.895 22.2463 109.895 27.5228C109.895 31.1203 111.988 33.5586 115.57 33.5586L116.462 33.559C116.511 33.5589 116.559 33.5588 116.606 33.5586L116.892 33.5567C118.319 33.5431 119.722 33.4604 122.292 32.9991L124.747 19.1285C122.493 18.7687 120.641 18.6086 118.387 18.6086ZM58.1736 18.6086C53.1829 18.6086 49.6813 22.2463 49.6813 27.5228C49.6813 31.1203 51.7742 33.5586 55.3562 33.5586C57.5299 33.5586 59.1974 32.959 61.9745 31.32L64.5335 19.1285C62.2795 18.7687 60.4277 18.6086 58.1736 18.6086ZM161.736 18.6086C156.745 18.6086 153.244 22.2463 153.244 27.5228C153.244 31.1203 155.337 33.5586 158.919 33.5586C161.092 33.5586 162.93 32.959 165.707 31.32L168.095 19.1285C165.842 18.7687 163.991 18.6086 161.736 18.6086ZM13.6446 10.4544C11.6725 10.4544 9.33807 10.5342 7.2452 10.614L3.30049 32.8388C5.47371 32.9191 7.88894 32.9587 9.98181 32.9587C17.3478 32.9587 23.2641 27.6024 23.2641 19.5282C23.2641 13.8919 19.5614 10.4544 13.6446 10.4544ZM38.0898 18.4889C34.1856 18.4889 31.0867 21.0472 30.0801 24.9643H43.2417C43.8051 20.6874 41.8734 18.4889 38.0898 18.4889ZM105.184 11.0316C106.076 11.0316 106.776 11.6958 106.776 12.6122C106.776 13.4971 106.076 14.1608 105.184 14.1608C104.293 14.1608 103.593 13.4971 103.593 12.6122C103.593 11.6958 104.293 11.0316 105.184 11.0316ZM107.713 0C114.04 0.906345 118.558 6.59413 118 12.8972L117.982 13.0884H116.231C116.904 7.5666 113.002 2.51686 107.484 1.71541L107.317 1.69243L107.713 0ZM106.028 7.19265C108.686 7.83812 110.566 10.2288 110.552 12.9428L110.55 13.0885H108.806C108.886 11.158 107.608 9.42958 105.759 8.90668L105.635 8.87361L106.028 7.19265ZM106.884 3.53906C111.398 4.33565 114.607 8.39081 114.331 12.9261L114.319 13.0883H112.567C112.935 9.34258 110.341 5.94273 106.643 5.25567L106.488 5.22862L106.884 3.53906Z" fill="white"/>
</svg>
