<svg width="282" height="282" viewBox="0 0 282 282" fill="none" xmlns="http://www.w3.org/2000/svg">
<path d="M282 0H0V282H282V0Z" fill="white"/>
<path d="M237.037 37.3405C188.727 -1.16443 101.978 9.04982 54.1295 46.7488C1.06177 88.5606 12.3022 151.211 14.4849 161.896C22.0811 199.062 53.0621 258.14 112.155 266.126C177.823 274.999 229.765 214.218 248.739 177.847C253.706 168.309 295.864 84.2314 237.037 37.3405Z" fill="#FBFBFD"/>
<path opacity="0.15" d="M179.91 174.512L144.193 94.065C143.552 92.6316 142.37 91.5102 140.905 90.9462C139.439 90.3822 137.81 90.4214 136.374 91.0552L71.8343 119.712C70.4009 120.352 69.2796 121.535 68.7158 123C68.152 124.465 68.1916 126.094 68.8259 127.531L104.541 207.978C105.182 209.411 106.364 210.532 107.83 211.096C109.295 211.66 110.924 211.621 112.36 210.987L176.904 182.331C178.336 181.689 179.457 180.507 180.02 179.042C180.583 177.576 180.544 175.948 179.91 174.512Z" fill="#232323"/>
<path d="M178.685 177.338L114.14 205.988C112.703 206.622 111.074 206.662 109.609 206.098C108.144 205.534 106.961 204.413 106.32 202.98L70.6089 122.542C69.9751 121.105 69.9359 119.476 70.4999 118.011C71.0639 116.546 72.1853 115.363 73.6187 114.723L138.162 86.0664C139.598 85.4325 141.227 85.3931 142.693 85.9569C144.158 86.5207 145.34 87.6417 145.981 89.0749L181.696 169.523C182.329 170.959 182.368 172.587 181.804 174.052C181.239 175.516 180.118 176.698 178.685 177.338Z" fill="white"/>
<path d="M105.07 113.864L83.1594 123.592C82.6232 123.827 82.0156 123.841 81.4691 123.631C80.9226 123.42 80.4815 123.002 80.242 122.467C80.0053 121.931 79.9906 121.323 80.2013 120.775C80.412 120.228 80.8308 119.787 81.3662 119.547L103.276 109.821C103.813 109.584 104.421 109.57 104.968 109.78C105.515 109.991 105.956 110.41 106.195 110.945C106.431 111.482 106.446 112.09 106.235 112.637C106.024 113.184 105.605 113.625 105.07 113.864Z" fill="#E7004C"/>
<path d="M142.862 109.275L94.3418 130.817C93.8055 131.053 93.1976 131.067 92.6507 130.857C92.1039 130.646 91.6626 130.228 91.4231 129.693C91.186 129.156 91.1711 128.548 91.3818 128C91.5925 127.453 92.0116 127.011 92.5473 126.772L141.068 105.237C141.604 105.001 142.212 104.986 142.759 105.197C143.306 105.408 143.747 105.826 143.987 106.361C144.221 106.897 144.234 107.504 144.024 108.049C143.813 108.595 143.396 109.035 142.862 109.275Z" fill="#E4ECF9"/>
<path d="M147.102 118.824L91.9194 143.321C91.3829 143.558 90.7747 143.572 90.2275 143.362C89.6804 143.151 89.2389 142.732 88.9994 142.197C88.7634 141.661 88.7492 141.053 88.9598 140.506C89.1704 139.959 89.5888 139.518 90.1236 139.278L145.306 114.779C145.842 114.543 146.451 114.528 146.998 114.739C147.545 114.949 147.986 115.368 148.226 115.903C148.463 116.44 148.477 117.048 148.267 117.596C148.056 118.143 147.637 118.585 147.102 118.824Z" fill="#E4ECF9"/>
<path d="M151.339 128.369L96.1568 152.868C95.6205 153.105 95.0124 153.119 94.4655 152.908C93.9186 152.698 93.4773 152.279 93.2381 151.744C93.0018 151.208 92.9873 150.6 93.198 150.053C93.4086 149.506 93.8272 149.065 94.3623 148.825L149.545 124.326C150.081 124.09 150.689 124.075 151.236 124.286C151.783 124.497 152.224 124.915 152.463 125.45C152.7 125.987 152.714 126.595 152.503 127.142C152.293 127.688 151.874 128.13 151.339 128.369Z" fill="#E4ECF9"/>
<path d="M155.578 137.916L100.396 162.415C99.8597 162.651 99.2518 162.666 98.705 162.455C98.1581 162.244 97.7168 161.826 97.4774 161.291C97.241 160.755 97.2266 160.147 97.4372 159.6C97.6479 159.053 98.0665 158.612 98.6015 158.373L153.784 133.873C154.32 133.637 154.928 133.622 155.475 133.833C156.022 134.044 156.463 134.462 156.702 134.997C156.938 135.534 156.953 136.142 156.742 136.688C156.531 137.235 156.113 137.677 155.578 137.916Z" fill="#E4ECF9"/>
<path d="M159.817 147.463L104.635 171.962C104.098 172.198 103.49 172.213 102.943 172.002C102.396 171.791 101.955 171.373 101.715 170.838C101.479 170.302 101.464 169.694 101.675 169.147C101.886 168.599 102.304 168.158 102.839 167.918L158.021 143.42C158.558 143.183 159.166 143.169 159.713 143.379C160.261 143.59 160.702 144.009 160.941 144.544C161.177 145.081 161.191 145.689 160.981 146.235C160.77 146.782 160.352 147.223 159.817 147.463Z" fill="#E4ECF9"/>
<path d="M164.054 157.01L108.872 181.506C108.336 181.742 107.728 181.756 107.181 181.545C106.634 181.335 106.193 180.916 105.954 180.381C105.717 179.845 105.703 179.237 105.913 178.69C106.124 178.142 106.543 177.701 107.078 177.461L162.26 152.962C162.796 152.726 163.404 152.712 163.951 152.922C164.498 153.133 164.939 153.551 165.179 154.086C165.416 154.623 165.431 155.232 165.221 155.78C165.01 156.328 164.591 156.771 164.054 157.01Z" fill="#E4ECF9"/>
<path d="M168.294 166.557L113.111 191.056C112.575 191.292 111.967 191.306 111.42 191.096C110.873 190.885 110.432 190.467 110.193 189.932C109.956 189.396 109.941 188.787 110.152 188.24C110.363 187.693 110.781 187.251 111.317 187.012L166.499 162.513C167.035 162.277 167.643 162.262 168.19 162.473C168.737 162.684 169.178 163.102 169.418 163.637C169.654 164.173 169.668 164.782 169.457 165.329C169.247 165.876 168.828 166.317 168.294 166.557Z" fill="#E4ECF9"/>
<path opacity="0.15" d="M211.465 178.301V122.742C211.465 122.674 211.465 122.602 211.465 122.533C211.465 122.483 211.462 122.433 211.455 122.383C211.455 122.324 211.445 122.265 211.436 122.207C211.427 122.15 211.422 122.109 211.413 122.06C211.404 122.011 211.396 121.965 211.386 121.916C211.376 121.868 211.36 121.796 211.343 121.734C211.312 121.609 211.274 121.486 211.229 121.365C211.229 121.365 211.229 121.359 211.229 121.355C211.2 121.281 211.17 121.205 211.137 121.133C211.024 120.868 210.88 120.616 210.71 120.383C210.672 120.328 210.628 120.272 210.582 120.217C210.485 120.094 210.38 119.979 210.268 119.871C210.233 119.834 210.196 119.799 210.158 119.767C210.109 119.719 210.058 119.674 210.004 119.632C209.996 119.625 209.988 119.618 209.978 119.613L209.769 119.454L203.867 114.968V105.906L197.486 99.5255L194.002 96.0441L184.793 86.8342H166.786L160.155 81.8005C159.446 81.2611 158.579 80.969 157.687 80.969C156.796 80.969 155.929 81.2611 155.219 81.8005L148.588 86.8342H117.113C115.279 86.8383 113.52 87.5688 112.223 88.8661C110.926 90.1633 110.195 91.9215 110.191 93.756V115.979L105.622 119.456L105.413 119.617L105.386 119.636C104.926 120.014 104.557 120.488 104.303 121.026C104.049 121.564 103.918 122.151 103.918 122.746V178.297V178.498V179.06C103.917 179.162 103.921 179.264 103.931 179.366C103.931 179.39 103.931 179.414 103.931 179.437C103.931 179.46 103.931 179.473 103.931 179.489C103.931 179.506 103.931 179.51 103.931 179.52C103.931 179.53 103.931 179.539 103.931 179.549C103.937 179.611 103.946 179.678 103.955 179.734C103.955 179.745 103.955 179.755 103.955 179.766C103.955 179.79 103.966 179.813 103.969 179.837C103.973 179.86 103.98 179.887 103.986 179.911L103.994 179.951C103.994 179.962 103.994 179.974 104.003 179.987C104.018 180.052 104.035 180.115 104.053 180.184C104.053 180.198 104.062 180.211 104.065 180.224L104.092 180.307C104.103 180.336 104.11 180.367 104.122 180.397C104.148 180.465 104.174 180.536 104.2 180.602V180.609C104.219 180.654 104.241 180.699 104.263 180.738C104.272 180.757 104.278 180.777 104.287 180.798C104.314 180.856 104.346 180.915 104.376 180.974L104.391 180.999C104.391 181.012 104.405 181.023 104.413 181.036C104.432 181.071 104.451 181.106 104.473 181.14C104.482 181.154 104.494 181.167 104.503 181.18C104.54 181.241 104.578 181.308 104.619 181.359C104.627 181.373 104.635 181.385 104.644 181.398C104.683 181.457 104.728 181.511 104.772 181.566C104.794 181.593 104.815 181.621 104.838 181.648C104.862 181.675 104.903 181.725 104.936 181.761C104.949 181.775 104.964 181.787 104.978 181.802C105.042 181.87 105.106 181.93 105.176 181.999C105.197 182.018 105.218 182.039 105.241 182.058L105.323 182.132C105.435 182.227 105.552 182.316 105.674 182.399L105.738 182.439L105.829 182.498L105.975 182.585L106.079 182.635C106.116 182.654 106.155 182.673 106.195 182.691L106.307 182.744C106.369 182.771 106.436 182.794 106.495 182.818L106.525 182.83C106.55 182.839 106.571 182.851 106.596 182.859L106.691 182.89L106.741 182.905H106.75C106.83 182.932 106.912 182.951 106.994 182.971C107.015 182.978 107.037 182.984 107.059 182.987H107.092L107.138 182.995C107.189 183.005 107.239 183.017 107.291 183.023H107.302H107.342H107.385L107.478 183.035H107.52H107.552L107.702 183.044C107.774 183.044 107.846 183.044 107.917 183.044H108.139H207.41C207.481 183.044 207.553 183.044 207.625 183.044L207.775 183.033C207.792 183.033 207.804 183.033 207.817 183.033L207.889 183.024H207.927L208.009 183.015C208.009 183.015 208.009 183.015 208.022 183.015L208.124 182.996C208.15 182.996 208.18 182.996 208.206 182.983H208.221L208.331 182.958C208.413 182.939 208.494 182.918 208.576 182.892H208.585L208.643 182.873C208.667 182.865 208.693 182.858 208.716 182.849C208.73 182.845 208.744 182.841 208.758 182.836C208.772 182.836 208.781 182.827 208.795 182.823C208.809 182.819 208.832 182.804 208.853 182.796C209.026 182.731 209.194 182.653 209.355 182.564H209.369C209.395 182.551 209.421 182.535 209.448 182.518C209.472 182.506 209.496 182.492 209.518 182.476C209.548 182.459 209.577 182.44 209.607 182.421L209.645 182.394L209.684 182.368L209.819 182.273C209.825 182.267 209.831 182.262 209.839 182.258L209.924 182.187C209.951 182.167 209.977 182.145 210.003 182.123C210.028 182.102 210.022 182.109 210.031 182.1L210.054 182.081L210.13 182.013C210.151 181.996 210.172 181.977 210.191 181.957L210.239 181.909C210.257 181.893 210.273 181.873 210.29 181.857C210.306 181.84 210.358 181.787 210.39 181.752C210.422 181.716 210.455 181.679 210.487 181.639L210.542 181.573C210.59 181.514 210.636 181.454 210.683 181.393C210.7 181.366 210.719 181.34 210.738 181.312L210.771 181.261C210.799 181.218 210.827 181.175 210.853 181.132C210.871 181.106 210.887 181.079 210.903 181.052C210.918 181.022 210.935 180.997 210.951 180.967C210.968 180.938 210.983 180.904 210.996 180.879C211.042 180.794 211.082 180.702 211.124 180.615C211.127 180.605 211.13 180.596 211.135 180.588C211.144 180.559 211.158 180.529 211.17 180.497C211.183 180.465 211.196 180.429 211.209 180.393C211.21 180.391 211.21 180.39 211.21 180.388C211.21 180.386 211.21 180.384 211.209 180.383C211.219 180.353 211.228 180.322 211.237 180.293C211.246 180.263 211.256 180.239 211.264 180.211C211.272 180.183 211.273 180.184 211.277 180.171C211.279 180.163 211.279 180.156 211.277 180.148C211.287 180.108 211.3 180.066 211.31 180.02C211.317 179.998 211.322 179.975 211.326 179.952C211.33 179.939 211.333 179.926 211.333 179.912C211.333 179.897 211.342 179.883 211.345 179.869C211.345 179.863 211.345 179.858 211.345 179.853C211.345 179.853 211.345 179.838 211.345 179.83C211.355 179.785 211.364 179.737 211.37 179.69C211.377 179.644 211.387 179.593 211.391 179.544C211.391 179.524 211.391 179.505 211.4 179.481C211.409 179.458 211.4 179.456 211.4 179.443C211.4 179.41 211.406 179.378 211.406 179.348C211.406 179.319 211.406 179.283 211.406 179.249C211.406 179.178 211.406 179.11 211.406 179.042V178.273L211.465 178.301Z" fill="#232323"/>
<path d="M215.402 118.666V174.98C215.402 175.049 215.402 175.117 215.402 175.189C215.402 175.221 215.4 175.254 215.395 175.286C215.397 175.318 215.397 175.349 215.395 175.381C215.395 175.394 215.395 175.408 215.395 175.421C215.395 175.434 215.395 175.463 215.386 175.482C215.386 175.531 215.374 175.58 215.367 175.63C215.361 175.68 215.351 175.724 215.34 175.769C215.337 175.793 215.332 175.816 215.324 175.839C215.324 175.856 215.321 175.873 215.315 175.89C215.31 175.913 215.305 175.936 215.298 175.959C215.288 176.001 215.275 176.044 215.266 176.087C215.267 176.095 215.267 176.103 215.266 176.11C215.243 176.182 215.222 176.254 215.197 176.323C215.198 176.326 215.198 176.329 215.197 176.332C215.183 176.368 215.17 176.404 215.157 176.437C215.144 176.47 215.131 176.499 215.121 176.528C215.117 176.536 215.113 176.545 215.111 176.554C215.072 176.642 215.033 176.733 214.983 176.819C214.969 176.845 214.953 176.877 214.937 176.906L214.888 176.991C214.871 177.018 214.858 177.047 214.839 177.073C214.806 177.128 214.77 177.184 214.734 177.236C214.698 177.287 214.689 177.301 214.669 177.334C214.614 177.406 214.561 177.478 214.503 177.546C214.446 177.614 214.417 177.647 214.375 177.693C214.333 177.74 214.288 177.787 214.247 177.833C214.228 177.856 214.205 177.875 214.182 177.898C214.163 177.919 214.142 177.937 214.12 177.954C214.097 177.977 214.071 178 214.044 178.023L214.021 178.042C213.96 178.097 213.893 178.15 213.829 178.198C213.822 178.203 213.816 178.209 213.81 178.215C213.757 178.251 213.706 178.289 213.65 178.325C213.633 178.338 213.615 178.35 213.597 178.361C213.569 178.382 213.54 178.4 213.51 178.418C213.487 178.433 213.463 178.447 213.438 178.46C213.411 178.477 213.386 178.492 213.36 178.505C213.177 178.61 212.984 178.698 212.786 178.77C212.773 178.77 212.763 178.779 212.75 178.783C212.737 178.787 212.72 178.792 212.708 178.796C212.661 178.812 212.615 178.828 212.566 178.842C212.486 178.868 212.404 178.887 212.322 178.906L212.194 178.935C212.168 178.935 212.138 178.946 212.113 178.95L212.011 178.969C212.007 178.967 212.002 178.967 211.997 178.969L211.917 178.979H211.877L211.805 178.988C211.792 178.988 211.779 178.988 211.763 178.988L211.613 178.997C211.541 178.997 211.469 178.997 211.397 178.997H111.905C111.834 178.997 111.762 178.997 111.69 178.997L111.54 178.987C111.484 178.983 111.429 178.977 111.373 178.967C111.341 178.967 111.308 178.967 111.279 178.955C111.2 178.944 111.122 178.928 111.048 178.912C111.026 178.908 111.004 178.902 110.982 178.896C110.9 178.876 110.82 178.856 110.738 178.83C110.689 178.814 110.643 178.801 110.598 178.784C110.38 178.709 110.168 178.616 109.965 178.507L109.817 178.419C109.762 178.387 109.707 178.351 109.654 178.315C109.333 178.098 109.044 177.835 108.797 177.536C108.738 177.466 108.683 177.395 108.63 177.32C108.45 177.071 108.3 176.802 108.183 176.518C108.157 176.453 108.13 176.381 108.105 176.312C108.079 176.242 108.059 176.172 108.037 176.1C108.015 176.028 107.997 175.956 107.98 175.885C107.964 175.813 107.951 175.757 107.938 175.682C107.939 175.672 107.939 175.661 107.938 175.65C107.928 175.585 107.919 175.516 107.912 175.45C107.912 175.45 107.912 175.441 107.912 175.435C107.906 175.382 107.904 175.334 107.9 175.281C107.89 175.179 107.886 175.077 107.887 174.975V118.668C107.886 118.074 108.017 117.486 108.271 116.949C108.525 116.411 108.895 115.937 109.355 115.56C109.362 115.552 109.371 115.545 109.38 115.539L109.589 115.38C110.268 114.897 111.082 114.638 111.916 114.639H211.408C211.504 114.638 211.599 114.643 211.695 114.652C211.712 114.649 211.729 114.649 211.746 114.652C211.838 114.652 211.932 114.669 212.02 114.682L212.082 114.692C212.161 114.705 212.24 114.721 212.314 114.741C212.334 114.744 212.354 114.748 212.373 114.753C212.468 114.777 212.559 114.802 212.65 114.832C212.741 114.861 212.823 114.891 212.906 114.923C213.023 114.97 213.137 115.023 213.248 115.083C213.31 115.112 213.377 115.146 213.432 115.18C213.536 115.239 213.636 115.305 213.732 115.376L213.941 115.537L213.968 115.556C214.021 115.596 214.071 115.639 214.12 115.684C214.159 115.717 214.196 115.751 214.232 115.788C214.343 115.896 214.448 116.012 214.544 116.134C214.59 116.189 214.633 116.244 214.673 116.301C214.844 116.533 214.988 116.785 215.101 117.051C215.133 117.122 215.162 117.197 215.192 117.272C215.192 117.272 215.192 117.272 215.192 117.283C215.237 117.403 215.272 117.526 215.306 117.65C215.321 117.713 215.335 117.771 215.348 117.834C215.361 117.897 215.367 117.929 215.374 117.977C215.38 118.026 215.39 118.075 215.397 118.123C215.407 118.182 215.413 118.241 215.416 118.3C215.423 118.35 215.426 118.4 215.426 118.45C215.398 118.525 215.402 118.596 215.402 118.666Z" fill="#5B97EF"/>
<path d="M215.161 117.286H108.093C108.339 116.61 108.763 116.011 109.32 115.555C109.328 115.547 109.336 115.54 109.346 115.534L109.555 115.375L159.161 77.7192C159.87 77.1792 160.737 76.8867 161.629 76.8867C162.521 76.8867 163.388 77.1792 164.097 77.7192L213.704 115.371L213.912 115.532L213.939 115.551C213.992 115.591 214.043 115.634 214.092 115.679C214.131 115.712 214.168 115.746 214.203 115.783C214.315 115.891 214.42 116.007 214.516 116.129C214.562 116.184 214.605 116.239 214.644 116.296C214.816 116.528 214.96 116.78 215.073 117.045C215.105 117.117 215.134 117.192 215.164 117.267C215.157 117.286 215.161 117.286 215.161 117.286Z" fill="#5B97EF"/>
<path d="M207.792 101.829V157.087C207.789 158.081 207.393 159.034 206.689 159.738C205.986 160.441 205.033 160.837 204.039 160.84H117.889C116.894 160.837 115.941 160.441 115.238 159.738C114.535 159.034 114.138 158.081 114.136 157.087V89.6734C114.139 87.8388 114.87 86.0803 116.167 84.7831C117.464 83.4858 119.223 82.7553 121.058 82.7516H188.723L194.859 88.8877L201.417 95.4429L207.792 101.829Z" fill="white"/>
<path d="M189.651 100.539C189.977 100.869 190.528 103.129 207.79 104.279V101.829L189.651 100.539Z" fill="#CECECE"/>
<path d="M188.718 98.0771C188.721 99.0716 189.117 100.025 189.821 100.728C190.524 101.431 191.477 101.828 192.471 101.83H207.79L188.718 82.7581V98.0771Z" fill="#EDEDED"/>
<path d="M160.963 130.203C169.559 130.203 176.527 123.235 176.527 114.639C176.527 106.044 169.559 99.0756 160.963 99.0756C152.368 99.0756 145.399 106.044 145.399 114.639C145.399 123.235 152.368 130.203 160.963 130.203Z" fill="#6FCF97"/>
<path d="M171.261 106.21C171.243 106.155 171.203 106.11 171.151 106.085C171.099 106.059 171.039 106.055 170.984 106.073L170.856 106.118C169.927 106.447 169.027 106.852 168.164 107.329C167.32 107.775 166.545 108.275 165.778 108.782C164.297 109.789 162.903 110.919 161.61 112.159C160.97 112.76 160.357 113.388 159.77 114.033C159.183 114.678 158.616 115.339 158.075 116.021C157.677 116.519 157.295 117.029 156.922 117.545L156.264 117.242L155.569 116.953C154.625 116.562 153.66 116.225 152.677 115.944C151.636 115.634 150.569 115.417 149.49 115.296L149.352 115.282C149.306 115.277 149.259 115.287 149.219 115.311C149.179 115.335 149.148 115.371 149.129 115.414C149.111 115.457 149.107 115.504 149.118 115.55C149.128 115.595 149.153 115.636 149.188 115.666L151.367 117.55C152.09 118.182 152.824 118.803 153.558 119.421L155.758 121.277C156.491 121.897 157.237 122.502 157.975 123.115L157.985 123.123C158.032 123.159 158.085 123.185 158.141 123.201C158.198 123.217 158.257 123.221 158.315 123.214C158.374 123.207 158.43 123.188 158.481 123.16C158.532 123.131 158.577 123.092 158.614 123.046L161.827 118.934L165.001 114.791C166.065 113.415 167.094 112.012 168.141 110.622C169.189 109.233 170.2 107.816 171.23 106.414C171.252 106.385 171.266 106.351 171.271 106.316C171.276 106.28 171.273 106.244 171.261 106.21Z" fill="white"/>
<path d="M161.63 148.335C161.466 148.511 161.279 148.664 161.075 148.791L112.109 179.008H111.887C111.492 179.01 111.098 178.951 110.72 178.835L110.566 178.787C109.929 178.566 109.358 178.188 108.906 177.687C108.863 177.641 108.821 177.592 108.778 177.541C108.654 177.392 108.541 177.234 108.441 177.068C108.405 177.011 108.377 176.956 108.343 176.901C108.31 176.846 108.282 176.783 108.255 176.724C107.993 176.18 107.857 175.584 107.857 174.98V118.668C107.856 118.074 107.987 117.486 108.241 116.949C108.495 116.411 108.865 115.937 109.325 115.56C109.333 115.552 109.341 115.545 109.351 115.539L109.56 115.38C110.239 114.897 111.052 114.638 111.886 114.639H112.8L117.101 117.286L156.738 141.743L158.23 142.663L161.075 144.417C161.279 144.544 161.466 144.698 161.63 144.875C162.058 145.349 162.295 145.966 162.295 146.605C162.295 147.244 162.058 147.86 161.63 148.335Z" fill="#3B82F4"/>
<path d="M215.401 118.666V174.98C215.401 175.049 215.401 175.117 215.401 175.189C215.401 175.221 215.399 175.254 215.395 175.286C215.397 175.318 215.397 175.349 215.395 175.381C215.395 175.394 215.395 175.408 215.395 175.421C215.395 175.434 215.395 175.463 215.386 175.482C215.386 175.531 215.373 175.58 215.367 175.63C215.36 175.68 215.35 175.725 215.34 175.769C215.34 175.769 215.34 175.786 215.34 175.792C215.336 175.808 215.332 175.824 215.326 175.839C215.326 175.856 215.323 175.873 215.317 175.89C215.313 175.913 215.307 175.936 215.3 175.959C215.29 176.001 215.281 176.04 215.268 176.087C215.269 176.095 215.269 176.103 215.268 176.11C215.248 176.182 215.225 176.254 215.199 176.323C215.2 176.326 215.2 176.329 215.199 176.332C215.185 176.368 215.176 176.401 215.159 176.437C215.143 176.473 215.136 176.496 215.123 176.528C215.119 176.537 215.116 176.545 215.113 176.554C215.075 176.642 215.035 176.733 214.985 176.819C214.971 176.845 214.955 176.877 214.939 176.906L214.89 176.991C214.873 177.018 214.861 177.047 214.841 177.073C214.808 177.128 214.772 177.185 214.736 177.236C214.7 177.287 214.691 177.301 214.671 177.334C214.616 177.409 214.561 177.478 214.505 177.546C214.45 177.614 214.42 177.647 214.377 177.693C214.335 177.74 214.29 177.787 214.249 177.833C214.23 177.856 214.207 177.875 214.184 177.898C214.165 177.919 214.144 177.937 214.122 177.954C214.099 177.977 214.073 178 214.047 178.023L214.024 178.042C213.962 178.097 213.895 178.15 213.831 178.198C213.824 178.203 213.818 178.209 213.812 178.215C213.759 178.251 213.708 178.289 213.652 178.325C213.635 178.338 213.618 178.35 213.599 178.361C213.571 178.382 213.542 178.4 213.512 178.418C213.489 178.433 213.465 178.447 213.44 178.46C213.413 178.477 213.388 178.492 213.362 178.505C213.179 178.61 212.987 178.699 212.788 178.77C212.775 178.773 212.763 178.778 212.752 178.783C212.739 178.783 212.722 178.792 212.71 178.796C212.663 178.812 212.617 178.828 212.569 178.842C212.488 178.868 212.406 178.887 212.324 178.906L212.196 178.935C212.17 178.935 212.141 178.946 212.115 178.95L212.014 178.969H212.003C211.974 178.969 211.944 178.978 211.919 178.982H211.879L211.807 178.991C211.794 178.991 211.782 178.991 211.765 178.991L211.615 179C211.543 179 211.471 179 211.4 179H211.178L162.212 148.786C162.008 148.661 161.822 148.507 161.661 148.329C161.231 147.857 160.993 147.242 160.993 146.603C160.993 145.965 161.231 145.35 161.661 144.878C161.822 144.699 162.008 144.545 162.212 144.42L165.021 142.666L166.513 141.746L206.153 117.286L210.452 114.634H211.371C211.467 114.633 211.563 114.638 211.659 114.647C211.675 114.644 211.693 114.644 211.71 114.647C211.802 114.647 211.896 114.664 211.984 114.677L212.046 114.687C212.125 114.7 212.203 114.716 212.278 114.736C212.298 114.739 212.317 114.743 212.337 114.748C212.431 114.771 212.522 114.797 212.614 114.827C212.705 114.856 212.787 114.886 212.87 114.918C212.987 114.964 213.101 115.018 213.212 115.078C213.274 115.107 213.34 115.141 213.395 115.175C213.5 115.234 213.6 115.299 213.695 115.371L213.904 115.532L213.931 115.551C213.984 115.591 214.035 115.634 214.084 115.679C214.123 115.712 214.16 115.746 214.195 115.783C214.307 115.891 214.412 116.007 214.508 116.129C214.554 116.184 214.596 116.239 214.636 116.296C214.808 116.528 214.951 116.78 215.064 117.045C215.096 117.117 215.126 117.192 215.155 117.267C215.155 117.267 215.155 117.267 215.155 117.277C215.2 117.398 215.236 117.521 215.269 117.645C215.285 117.708 215.299 117.766 215.312 117.829C215.325 117.891 215.331 117.923 215.337 117.972C215.344 118.021 215.354 118.07 215.36 118.118C215.371 118.177 215.377 118.236 215.38 118.295C215.386 118.345 215.39 118.395 215.39 118.445C215.398 118.525 215.401 118.596 215.401 118.666Z" fill="#3B82F4"/>
<path opacity="0.29" d="M215.403 174.217V174.803C215.403 177.126 213.6 179.009 211.374 179.009H111.882C109.657 179.009 107.854 177.126 107.854 174.803V174.217L159.025 140.548C159.796 140.036 160.7 139.764 161.625 139.764C162.55 139.764 163.454 140.036 164.225 140.548L215.403 174.217Z" fill="#474747"/>
<path d="M215.403 174.418V174.98C215.403 176.048 214.979 177.073 214.223 177.828C213.468 178.584 212.443 179.008 211.374 179.008H111.882C110.814 179.008 109.789 178.584 109.034 177.828C108.278 177.073 107.854 176.048 107.854 174.98V174.418L159.026 142.161C159.804 141.67 160.706 141.41 161.626 141.41C162.546 141.41 163.447 141.67 164.225 142.161L215.403 174.418Z" fill="#5B97EF"/>
<path opacity="0.15" d="M182.481 167.559L182.316 167.461C182.609 166.86 182.666 166.172 182.476 165.531C182.286 164.891 181.862 164.345 181.288 164.002C180.715 163.66 180.033 163.545 179.379 163.681C178.725 163.817 178.146 164.194 177.756 164.737L177.595 164.641C177.444 164.554 177.266 164.53 177.099 164.574C176.931 164.617 176.787 164.724 176.697 164.873L175.783 166.394C175.697 166.545 175.673 166.723 175.717 166.89C175.761 167.058 175.868 167.202 176.017 167.291L176.155 167.373L175.226 168.931C175.007 168.85 174.767 168.849 174.548 168.926C174.328 169.004 174.143 169.156 174.024 169.356L150.432 208.936C150.322 209.124 150.276 209.343 150.302 209.559C150.327 209.775 150.422 209.977 150.571 210.135L150.873 212.914C150.895 213.123 150.966 213.324 151.08 213.502C151.194 213.679 151.347 213.827 151.528 213.935C151.709 214.043 151.912 214.107 152.122 214.123C152.332 214.139 152.543 214.106 152.738 214.027L155.319 212.972C155.531 213.028 155.755 213.014 155.958 212.932C156.162 212.85 156.333 212.704 156.446 212.517L158.25 209.484L179.015 174.653L180.04 172.937C180.162 172.735 180.21 172.497 180.174 172.264C180.139 172.032 180.023 171.819 179.847 171.662L180.772 170.111L180.912 170.195C180.986 170.239 181.068 170.268 181.154 170.28C181.239 170.292 181.326 170.287 181.409 170.266C181.493 170.244 181.571 170.206 181.64 170.154C181.709 170.101 181.766 170.036 181.809 169.961L181.849 169.904L182.712 168.445C182.766 168.357 182.796 168.256 182.8 168.153C182.81 168.034 182.785 167.914 182.729 167.809C182.672 167.703 182.586 167.617 182.481 167.559Z" fill="#232323"/>
<path d="M150.434 211.408L153.758 210.213L148.39 206.692L148.618 210.217C148.632 210.427 148.694 210.631 148.8 210.813C148.906 210.995 149.053 211.15 149.229 211.265C149.405 211.38 149.606 211.453 149.815 211.478C150.024 211.503 150.236 211.479 150.434 211.408Z" fill="#434444"/>
<path d="M180.807 168.405L177.359 166.147C177.068 165.957 176.678 166.038 176.488 166.329L175.14 168.388C174.949 168.678 175.031 169.068 175.322 169.259L178.769 171.516C179.06 171.707 179.45 171.625 179.641 171.335L180.988 169.276C181.179 168.985 181.098 168.595 180.807 168.405Z" fill="#434444"/>
<path d="M177.753 167.771C177.162 167.379 176.75 166.769 176.606 166.074C176.462 165.379 176.598 164.656 176.984 164.061L177.406 163.42C177.798 162.829 178.408 162.417 179.103 162.273C179.797 162.129 180.521 162.265 181.116 162.651C181.707 163.043 182.119 163.653 182.263 164.348C182.407 165.042 182.271 165.766 181.885 166.361L181.464 167.002C181.072 167.593 180.462 168.006 179.767 168.15C179.072 168.294 178.348 168.158 177.753 167.771Z" fill="#434444"/>
<path d="M152.81 210.353L148.643 207.616C148.421 207.469 148.265 207.241 148.21 206.98C148.155 206.719 148.205 206.447 148.35 206.223L173.627 167.69C173.772 167.469 173.999 167.314 174.258 167.26C174.518 167.206 174.787 167.257 175.009 167.402L179.186 170.133C179.297 170.206 179.392 170.3 179.466 170.41C179.541 170.52 179.592 170.643 179.619 170.773C179.645 170.903 179.645 171.036 179.62 171.167C179.594 171.297 179.543 171.42 179.47 171.53L178.376 173.197L156.137 207.102L154.204 210.05C154.058 210.274 153.83 210.431 153.569 210.488C153.308 210.544 153.036 210.496 152.81 210.353Z" fill="#5E5E5E"/>
<path d="M156.137 207.107L153.63 205.468C153.527 205.401 153.44 205.315 153.371 205.215C153.303 205.114 153.255 205 153.232 204.881C153.208 204.761 153.208 204.638 153.232 204.519C153.257 204.4 153.305 204.287 153.373 204.186L174.595 171.818C174.732 171.614 174.943 171.473 175.183 171.425C175.423 171.377 175.673 171.426 175.877 171.561L178.373 173.204L156.137 207.107Z" fill="#565555"/>
<path d="M173.043 172.742L164.524 185.731C164.294 186.082 164.392 186.553 164.743 186.783L165.515 187.289C165.866 187.52 166.337 187.422 166.567 187.071L175.086 174.082C175.316 173.731 175.219 173.26 174.867 173.03L174.096 172.523C173.745 172.293 173.274 172.391 173.043 172.742Z" fill="#434444"/>
<path d="M172.386 173.744L171.773 174.679L173.816 176.019L174.429 175.084L172.386 173.744Z" fill="#383838"/>
<path d="M180.458 168.828L175.706 165.713C175.565 165.618 175.466 165.471 175.429 165.304C175.393 165.137 175.423 164.962 175.513 164.816L176.491 163.334C176.586 163.193 176.733 163.093 176.9 163.057C177.068 163.021 177.242 163.051 177.388 163.141L182.144 166.267C182.244 166.331 182.323 166.423 182.372 166.531C182.422 166.64 182.439 166.76 182.422 166.877C182.413 166.98 182.379 167.079 182.322 167.164L181.396 168.585L181.355 168.641C181.26 168.784 181.113 168.884 180.945 168.919C180.777 168.954 180.602 168.921 180.458 168.828Z" fill="#5E5E5E"/>
<path d="M181.403 168.578L178.379 166.597C178.314 166.555 178.258 166.501 178.215 166.437C178.171 166.374 178.14 166.302 178.125 166.227C178.109 166.151 178.109 166.074 178.124 165.998C178.138 165.922 178.168 165.851 178.211 165.787L178.651 165.099C178.694 165.035 178.75 164.979 178.815 164.936C178.88 164.892 178.953 164.862 179.03 164.847C179.106 164.832 179.185 164.832 179.262 164.847C179.338 164.863 179.411 164.893 179.476 164.937L182.424 166.871C182.416 166.974 182.382 167.072 182.324 167.158L181.403 168.578Z" fill="#565555"/>
<path d="M68.5427 148.691L70.095 147.874C70.1742 147.832 70.2636 147.814 70.353 147.82C70.4424 147.826 70.5282 147.858 70.6007 147.911C70.6732 147.963 70.7295 148.035 70.7631 148.118C70.7967 148.201 70.8064 148.292 70.791 148.381L70.5 150.114C70.4868 150.19 70.4924 150.269 70.5163 150.343C70.5402 150.417 70.5817 150.484 70.6372 150.538L71.8934 151.762C71.9574 151.824 72.0028 151.904 72.0242 151.99C72.0457 152.077 72.0425 152.168 72.0149 152.253C71.9873 152.338 71.9364 152.414 71.868 152.472C71.7997 152.53 71.7165 152.567 71.628 152.58L69.8912 152.836C69.815 152.847 69.7426 152.876 69.6799 152.921C69.6173 152.965 69.5662 153.024 69.531 153.093L68.7542 154.665C68.7146 154.746 68.6534 154.813 68.5774 154.861C68.5014 154.908 68.4136 154.933 68.3241 154.933C68.2346 154.933 68.1469 154.908 68.0709 154.861C67.9949 154.813 67.9336 154.746 67.8941 154.665L67.1173 153.093C67.0819 153.024 67.0307 152.965 66.9678 152.92C66.9049 152.876 66.8322 152.847 66.7558 152.836L65.0202 152.58C64.9316 152.567 64.8483 152.53 64.7798 152.472C64.7113 152.415 64.6602 152.339 64.6325 152.254C64.6047 152.169 64.6014 152.078 64.6228 151.991C64.6442 151.904 64.6895 151.825 64.7536 151.762L66.0111 150.538C66.0666 150.484 66.1081 150.417 66.132 150.343C66.1559 150.269 66.1615 150.19 66.1482 150.114L65.8521 148.384C65.8367 148.296 65.8464 148.205 65.88 148.122C65.9137 148.039 65.9699 147.967 66.0424 147.914C66.1149 147.862 66.2007 147.83 66.2901 147.824C66.3795 147.818 66.4689 147.836 66.5482 147.878L68.1005 148.695C68.1692 148.729 68.2451 148.747 68.322 148.746C68.3989 148.745 68.4746 148.726 68.5427 148.691Z" fill="#4786D1"/>
<path d="M80.6279 226.46C81.9878 226.46 83.0902 225.358 83.0902 223.998C83.0902 222.638 81.9878 221.535 80.6279 221.535C79.268 221.535 78.1655 222.638 78.1655 223.998C78.1655 225.358 79.268 226.46 80.6279 226.46Z" fill="#4786D1"/>
<path d="M226.878 166.951C227.839 165.99 227.839 164.431 226.878 163.469C225.916 162.507 224.357 162.507 223.395 163.469C222.434 164.431 222.434 165.99 223.395 166.951C224.357 167.913 225.916 167.913 226.878 166.951Z" fill="#4786D1"/>
<path d="M138.18 71.4114L134.847 74.2711C134.635 74.4531 134.38 74.5762 134.106 74.6279C133.831 74.6797 133.548 74.6583 133.285 74.5659C133.022 74.4735 132.788 74.3134 132.606 74.1016C132.424 73.8899 132.301 73.634 132.25 73.3597L131.437 69.0464C131.384 68.7722 131.405 68.4888 131.498 68.2252C131.59 67.9617 131.751 67.7275 131.964 67.5467C132.175 67.3634 132.431 67.2395 132.705 67.1879C132.979 67.1363 133.263 67.1588 133.525 67.2532L137.667 68.7055C137.93 68.7977 138.165 68.9577 138.347 69.1692C138.529 69.3807 138.652 69.6364 138.704 69.9105C138.756 70.1847 138.735 70.4677 138.643 70.7311C138.551 70.9946 138.391 71.2292 138.18 71.4114ZM132.387 68.8683L133.2 73.1816C133.22 73.2901 133.268 73.3913 133.34 73.4751C133.412 73.5589 133.504 73.6223 133.608 73.6587C133.713 73.6951 133.824 73.7034 133.933 73.6826C134.041 73.6619 134.142 73.6128 134.225 73.5405L137.558 70.6795C137.641 70.6079 137.704 70.5158 137.74 70.4123C137.776 70.3088 137.785 70.1976 137.765 70.0899C137.744 69.9821 137.696 69.8816 137.625 69.7983C137.553 69.7151 137.461 69.652 137.358 69.6156L133.215 68.162C133.112 68.1245 133 68.1154 132.892 68.1357C132.784 68.156 132.684 68.2049 132.601 68.2773C132.517 68.3483 132.453 68.4405 132.417 68.5445C132.38 68.6484 132.372 68.7602 132.394 68.8683H132.387Z" fill="#4786D1"/>
<path d="M215.403 87.0496C214.587 87.0496 213.788 86.8074 213.109 86.3537C212.43 85.8999 211.901 85.255 211.589 84.5005C211.276 83.746 211.194 82.9158 211.354 82.1149C211.513 81.314 211.907 80.5783 212.484 80.0009C213.062 79.4236 213.797 79.0305 214.598 78.8713C215.399 78.7121 216.23 78.7941 216.984 79.1068C217.738 79.4195 218.383 79.9488 218.837 80.628C219.29 81.3071 219.532 82.1055 219.532 82.9221C219.531 84.0166 219.095 85.0658 218.321 85.8396C217.547 86.6134 216.498 87.0485 215.403 87.0496ZM215.403 79.9291C214.811 79.9291 214.233 80.1046 213.74 80.4335C213.248 80.7624 212.864 81.2298 212.638 81.7767C212.411 82.3236 212.352 82.9254 212.468 83.506C212.583 84.0866 212.868 84.6199 213.287 85.0385C213.705 85.4571 214.239 85.7422 214.819 85.8576C215.4 85.9731 216.002 85.9139 216.549 85.6873C217.095 85.4608 217.563 85.0772 217.892 84.585C218.221 84.0928 218.396 83.5141 218.396 82.9221C218.395 82.1286 218.08 81.3679 217.518 80.8068C216.957 80.2458 216.197 79.9301 215.403 79.9291Z" fill="#4786D1"/>
<path d="M215.403 85.0243C216.564 85.0243 217.506 84.0831 217.506 82.9221C217.506 81.7611 216.564 80.8199 215.403 80.8199C214.242 80.8199 213.301 81.7611 213.301 82.9221C213.301 84.0831 214.242 85.0243 215.403 85.0243Z" fill="#4786D1"/>
</svg>
