<svg width="80" height="69" viewBox="0 0 80 69" fill="none" xmlns="http://www.w3.org/2000/svg">
<path d="M12.3911 9.69449C12.3911 12.8425 7.67236 12.8425 7.67236 9.69449C7.67236 6.5465 12.3911 6.5465 12.3911 9.69449Z" fill="#8181A5"/>
<path d="M19.5571 9.69449C19.5571 12.8425 14.8384 12.8425 14.8384 9.69449C14.8384 6.5465 19.5571 6.5465 19.5571 9.69449Z" fill="#8181A5"/>
<path d="M26.8074 9.69449C26.8074 12.8425 22.0854 12.8425 22.0854 9.69449C22.0854 6.5465 26.8074 6.5465 26.8074 9.69449Z" fill="#8181A5"/>
<path d="M74.9391 0.000505667H5.14348C2.27872 0.000505667 0 2.3615 0 5.14399V63.0554C0 65.9202 2.361 68.1989 5.14348 68.1989H74.8565C77.7213 68.1989 80 65.8379 80 63.0554L79.9967 5.22576C80.0823 2.361 77.7214 0 74.9389 0L74.9391 0.000505667ZM5.14348 4.04745H74.8565C75.5316 4.04745 76.0353 4.55455 76.0353 5.22626V15.4279H4.04711V5.22626C4.04711 4.55123 4.55092 4.04745 5.14365 4.04745H5.14348ZM74.9391 64.234H5.14348C4.46845 64.234 3.96467 63.7269 3.96467 63.0552L3.96138 19.4744H76.0356V63.0552C76.0356 63.7303 75.5318 64.234 74.939 64.234H74.9391Z" fill="#8181A5"/>
<path d="M38.2444 43.062H34.2991C30.5491 43.062 27.5413 46.1089 27.5413 49.8589C27.5413 50.6011 28.1272 51.187 28.8694 51.187H43.6741C44.4163 51.187 45.0413 50.6011 45.0413 49.8589C45.0413 46.1089 41.9944 43.062 38.2444 43.062ZM29.4163 49.312C29.6897 46.8901 31.76 44.937 34.2991 44.937H38.2444C40.7835 44.937 42.8538 46.8901 43.1272 49.312H29.4163ZM36.2913 41.812C39.0257 41.812 41.2913 39.5854 41.2913 36.812V31.187L38.7913 32.437L36.2913 31.187L33.7913 32.437L31.2913 31.187V36.812C31.2913 39.5854 33.5179 41.812 36.2913 41.812ZM33.1663 36.187H39.4163V36.812C39.4163 38.5698 38.01 39.937 36.2913 39.937C34.5335 39.937 33.1663 38.5698 33.1663 36.812V36.187ZM48.7913 36.812C48.7913 34.4292 46.7991 32.437 44.4163 32.437C43.7132 32.437 43.0882 32.6323 42.5413 32.9058V36.812C42.5413 38.062 42.1507 39.1558 41.5647 40.1323C42.3069 40.7964 43.3225 41.187 44.4163 41.187C46.7991 41.187 48.7913 39.2339 48.7913 36.812ZM46.2522 43.687H43.4007C45.1585 45.1714 46.2913 47.3979 46.2913 49.8589C46.2913 50.3667 46.135 50.7964 45.9007 51.187H51.2913C51.9554 51.187 52.5413 50.6401 52.5413 49.937C52.5413 46.4995 49.7288 43.687 46.2522 43.687Z" fill="#8181A5"/>
</svg>
