<svg width="430" height="186" viewBox="0 0 430 186" fill="none" xmlns="http://www.w3.org/2000/svg">
<rect y="-1" width="430" height="186.843" fill="#1991EB"/>
<mask id="mask0" style="mask-type:alpha" maskUnits="userSpaceOnUse" x="0" y="-1" width="430" height="187">
<rect y="-1" width="430" height="186.843" fill="#1991EB"/>
</mask>
<g mask="url(#mask0)">
<path d="M112.344 125.32C-5.9073 170.369 -136.525 141.275 -237 176H430V31C278.514 45.5469 234.934 78.6191 112.344 125.32Z" fill="url(#paint0_linear)" fill-opacity="0.2"/>
<path d="M112.344 119.728C-5.9073 169.748 -136.525 137.443 -237 176H430V15C278.514 31.1521 234.934 67.8736 112.344 119.728Z" fill="url(#paint1_linear)" fill-opacity="0.2"/>
<path d="M112.344 114.136C-5.9073 169.126 -136.525 133.612 -237 176H430V-1C278.514 16.7573 234.934 57.1281 112.344 114.136Z" fill="url(#paint2_linear)" fill-opacity="0.2"/>
</g>
<defs>
<linearGradient id="paint0_linear" x1="96.5" y1="31" x2="96.5" y2="176" gradientUnits="userSpaceOnUse">
<stop stop-color="white"/>
<stop offset="1" stop-color="white" stop-opacity="0"/>
</linearGradient>
<linearGradient id="paint1_linear" x1="96.5" y1="15" x2="96.5" y2="176" gradientUnits="userSpaceOnUse">
<stop stop-color="white"/>
<stop offset="1" stop-color="white" stop-opacity="0"/>
</linearGradient>
<linearGradient id="paint2_linear" x1="96.5" y1="-1" x2="96.5" y2="176" gradientUnits="userSpaceOnUse">
<stop stop-color="white"/>
<stop offset="1" stop-color="white" stop-opacity="0"/>
</linearGradient>
</defs>
</svg>
