<svg width="351" height="457" viewBox="0 0 351 457" fill="none" xmlns="http://www.w3.org/2000/svg">
<path opacity="0.1" fill-rule="evenodd" clip-rule="evenodd" d="M-90.3838 386.395C-59.8068 386.395 -35.7842 409.658 -35.7842 441.758C-35.7842 472.753 -59.8068 496 -90.3838 496C-120.961 496 -145 472.753 -145 441.758C-145 409.658 -120.961 386.395 -90.3838 386.395ZM-3.6125 0C213.501 31.7458 368.557 230.968 349.401 451.741L348.767 458.437H288.686C311.782 265.03 177.899 88.1562 -11.4617 60.0845L-17.2167 59.2795L-3.6125 0ZM-61.433 251.931C29.7919 274.54 94.276 358.275 93.8176 453.336L93.7307 458.439H33.8809C36.6428 390.821 -7.22179 330.283 -70.6791 311.967L-74.9385 310.809L-61.433 251.931ZM-32.0712 123.96C122.833 151.862 232.962 293.898 223.485 452.752L223.096 458.432H162.965C175.569 327.235 86.5708 208.151 -40.333 184.086L-45.6427 183.139L-32.0712 123.96Z" fill="white"/>
</svg>
