<svg width="260" height="156" viewBox="0 0 260 156" fill="none" xmlns="http://www.w3.org/2000/svg">
<rect width="260" height="156" rx="4" fill="#EDEDF4"/>
<path d="M89.9733 122.2L85.7033 132H83.9113L79.6273 122.2H81.6013L84.8633 129.76L88.1533 122.2H89.9733ZM90.9078 124.524H92.6578V132H90.9078V124.524ZM91.7898 123.292C91.4724 123.292 91.2064 123.194 90.9918 122.998C90.7771 122.793 90.6698 122.541 90.6698 122.242C90.6698 121.943 90.7771 121.696 90.9918 121.5C91.2064 121.295 91.4724 121.192 91.7898 121.192C92.1071 121.192 92.3731 121.29 92.5878 121.486C92.8024 121.673 92.9098 121.911 92.9098 122.2C92.9098 122.508 92.8024 122.769 92.5878 122.984C92.3824 123.189 92.1164 123.292 91.7898 123.292ZM102.277 121.612V132H100.597V131.034C100.307 131.389 99.948 131.655 99.5186 131.832C99.0986 132.009 98.632 132.098 98.1186 132.098C97.4 132.098 96.7513 131.939 96.1726 131.622C95.6033 131.305 95.1553 130.857 94.8286 130.278C94.502 129.69 94.3386 129.018 94.3386 128.262C94.3386 127.506 94.502 126.839 94.8286 126.26C95.1553 125.681 95.6033 125.233 96.1726 124.916C96.7513 124.599 97.4 124.44 98.1186 124.44C98.6133 124.44 99.066 124.524 99.4766 124.692C99.8873 124.86 100.237 125.112 100.527 125.448V121.612H102.277ZM98.3286 130.6C98.7486 130.6 99.1266 130.507 99.4626 130.32C99.7986 130.124 100.065 129.849 100.261 129.494C100.457 129.139 100.555 128.729 100.555 128.262C100.555 127.795 100.457 127.385 100.261 127.03C100.065 126.675 99.7986 126.405 99.4626 126.218C99.1266 126.022 98.7486 125.924 98.3286 125.924C97.9086 125.924 97.5306 126.022 97.1946 126.218C96.8586 126.405 96.5926 126.675 96.3966 127.03C96.2006 127.385 96.1026 127.795 96.1026 128.262C96.1026 128.729 96.2006 129.139 96.3966 129.494C96.5926 129.849 96.8586 130.124 97.1946 130.32C97.5306 130.507 97.9086 130.6 98.3286 130.6ZM111.594 128.304C111.594 128.425 111.585 128.598 111.566 128.822H105.7C105.803 129.373 106.069 129.811 106.498 130.138C106.937 130.455 107.478 130.614 108.122 130.614C108.943 130.614 109.62 130.343 110.152 129.802L111.09 130.88C110.754 131.281 110.329 131.585 109.816 131.79C109.303 131.995 108.724 132.098 108.08 132.098C107.259 132.098 106.535 131.935 105.91 131.608C105.285 131.281 104.799 130.829 104.454 130.25C104.118 129.662 103.95 128.999 103.95 128.262C103.95 127.534 104.113 126.881 104.44 126.302C104.776 125.714 105.238 125.257 105.826 124.93C106.414 124.603 107.077 124.44 107.814 124.44C108.542 124.44 109.191 124.603 109.76 124.93C110.339 125.247 110.787 125.7 111.104 126.288C111.431 126.867 111.594 127.539 111.594 128.304ZM107.814 125.84C107.254 125.84 106.778 126.008 106.386 126.344C106.003 126.671 105.77 127.109 105.686 127.66H109.928C109.853 127.119 109.625 126.68 109.242 126.344C108.859 126.008 108.383 125.84 107.814 125.84ZM116.635 132.098C115.879 132.098 115.198 131.935 114.591 131.608C113.984 131.281 113.508 130.829 113.163 130.25C112.827 129.662 112.659 128.999 112.659 128.262C112.659 127.525 112.827 126.867 113.163 126.288C113.508 125.709 113.984 125.257 114.591 124.93C115.198 124.603 115.879 124.44 116.635 124.44C117.4 124.44 118.086 124.603 118.693 124.93C119.3 125.257 119.771 125.709 120.107 126.288C120.452 126.867 120.625 127.525 120.625 128.262C120.625 128.999 120.452 129.662 120.107 130.25C119.771 130.829 119.3 131.281 118.693 131.608C118.086 131.935 117.4 132.098 116.635 132.098ZM116.635 130.6C117.279 130.6 117.811 130.385 118.231 129.956C118.651 129.527 118.861 128.962 118.861 128.262C118.861 127.562 118.651 126.997 118.231 126.568C117.811 126.139 117.279 125.924 116.635 125.924C115.991 125.924 115.459 126.139 115.039 126.568C114.628 126.997 114.423 127.562 114.423 128.262C114.423 128.962 114.628 129.527 115.039 129.956C115.459 130.385 115.991 130.6 116.635 130.6ZM128.324 123.74H125.076V122.2H133.392V123.74H130.144V132H128.324V123.74ZM141.65 124.524V132H139.984V131.048C139.704 131.384 139.354 131.645 138.934 131.832C138.514 132.009 138.061 132.098 137.576 132.098C136.577 132.098 135.788 131.823 135.21 131.272C134.64 130.712 134.356 129.886 134.356 128.794V124.524H136.106V128.556C136.106 129.228 136.255 129.732 136.554 130.068C136.862 130.395 137.296 130.558 137.856 130.558C138.481 130.558 138.976 130.367 139.34 129.984C139.713 129.592 139.9 129.032 139.9 128.304V124.524H141.65ZM148.435 131.594C148.23 131.762 147.978 131.888 147.679 131.972C147.39 132.056 147.082 132.098 146.755 132.098C145.934 132.098 145.299 131.883 144.851 131.454C144.403 131.025 144.179 130.399 144.179 129.578V125.98H142.947V124.58H144.179V122.872H145.929V124.58H147.931V125.98H145.929V129.536C145.929 129.9 146.018 130.18 146.195 130.376C146.372 130.563 146.629 130.656 146.965 130.656C147.357 130.656 147.684 130.553 147.945 130.348L148.435 131.594ZM152.988 132.098C152.232 132.098 151.551 131.935 150.944 131.608C150.338 131.281 149.862 130.829 149.516 130.25C149.18 129.662 149.012 128.999 149.012 128.262C149.012 127.525 149.18 126.867 149.516 126.288C149.862 125.709 150.338 125.257 150.944 124.93C151.551 124.603 152.232 124.44 152.988 124.44C153.754 124.44 154.44 124.603 155.046 124.93C155.653 125.257 156.124 125.709 156.46 126.288C156.806 126.867 156.978 127.525 156.978 128.262C156.978 128.999 156.806 129.662 156.46 130.25C156.124 130.829 155.653 131.281 155.046 131.608C154.44 131.935 153.754 132.098 152.988 132.098ZM152.988 130.6C153.632 130.6 154.164 130.385 154.584 129.956C155.004 129.527 155.214 128.962 155.214 128.262C155.214 127.562 155.004 126.997 154.584 126.568C154.164 126.139 153.632 125.924 152.988 125.924C152.344 125.924 151.812 126.139 151.392 126.568C150.982 126.997 150.776 127.562 150.776 128.262C150.776 128.962 150.982 129.527 151.392 129.956C151.812 130.385 152.344 130.6 152.988 130.6ZM160.318 125.616C160.822 124.832 161.709 124.44 162.978 124.44V126.106C162.829 126.078 162.693 126.064 162.572 126.064C161.891 126.064 161.359 126.265 160.976 126.666C160.593 127.058 160.402 127.627 160.402 128.374V132H158.652V124.524H160.318V125.616ZM164.462 124.524H166.212V132H164.462V124.524ZM165.344 123.292C165.027 123.292 164.761 123.194 164.546 122.998C164.332 122.793 164.224 122.541 164.224 122.242C164.224 121.943 164.332 121.696 164.546 121.5C164.761 121.295 165.027 121.192 165.344 121.192C165.662 121.192 165.928 121.29 166.142 121.486C166.357 121.673 166.464 121.911 166.464 122.2C166.464 122.508 166.357 122.769 166.142 122.984C165.937 123.189 165.671 123.292 165.344 123.292ZM171.365 124.44C172.467 124.44 173.307 124.706 173.885 125.238C174.473 125.761 174.767 126.554 174.767 127.618V132H173.115V131.09C172.901 131.417 172.593 131.669 172.191 131.846C171.799 132.014 171.323 132.098 170.763 132.098C170.203 132.098 169.713 132.005 169.293 131.818C168.873 131.622 168.547 131.356 168.313 131.02C168.089 130.675 167.977 130.287 167.977 129.858C167.977 129.186 168.225 128.649 168.719 128.248C169.223 127.837 170.012 127.632 171.085 127.632H173.017V127.52C173.017 126.997 172.859 126.596 172.541 126.316C172.233 126.036 171.771 125.896 171.155 125.896C170.735 125.896 170.32 125.961 169.909 126.092C169.508 126.223 169.167 126.405 168.887 126.638L168.201 125.364C168.593 125.065 169.065 124.837 169.615 124.678C170.166 124.519 170.749 124.44 171.365 124.44ZM171.127 130.824C171.566 130.824 171.953 130.726 172.289 130.53C172.635 130.325 172.877 130.035 173.017 129.662V128.794H171.211C170.203 128.794 169.699 129.125 169.699 129.788C169.699 130.105 169.825 130.357 170.077 130.544C170.329 130.731 170.679 130.824 171.127 130.824ZM177.013 121.612H178.763V132H177.013V121.612Z" fill="#8181A5"/>
<path d="M146.312 69.8125C145.937 68.3125 144.75 67.125 143.312 66.75C140.625 66 130 66 130 66C130 66 119.312 66 116.625 66.75C115.187 67.125 114 68.3125 113.625 69.8125C112.875 72.4375 112.875 78.0625 112.875 78.0625C112.875 78.0625 112.875 83.625 113.625 86.3125C114 87.8125 115.187 88.9375 116.625 89.3125C119.312 90 130 90 130 90C130 90 140.625 90 143.312 89.3125C144.75 88.9375 145.937 87.8125 146.312 86.3125C147.062 83.625 147.062 78.0625 147.062 78.0625C147.062 78.0625 147.062 72.4375 146.312 69.8125ZM126.5 83.125V73L135.375 78.0625L126.5 83.125Z" fill="#8181A5"/>
</svg>
