<svg width="28" height="13" viewBox="0 0 28 13" fill="none" xmlns="http://www.w3.org/2000/svg">
<path d="M4.432 12C4.32533 12 4.22933 11.9627 4.144 11.888C4.06933 11.8133 4.032 11.7173 4.032 11.6V3.648L1.728 5.44C1.632 5.504 1.53067 5.53067 1.424 5.52C1.328 5.49867 1.24267 5.44 1.168 5.344L0.368 4.288C0.304 4.192 0.277333 4.09067 0.288 3.984C0.309333 3.87733 0.368 3.792 0.464 3.728L4.112 0.912C4.176 0.869333 4.23467 0.842666 4.288 0.832C4.352 0.810666 4.42133 0.799999 4.496 0.799999H6.192C6.30933 0.799999 6.40533 0.837333 6.48 0.912C6.55467 0.986666 6.592 1.08267 6.592 1.2V11.6C6.592 11.7173 6.55467 11.8133 6.48 11.888C6.40533 11.9627 6.30933 12 6.192 12H4.432ZM12.6955 12.176C11.7355 12.176 10.9302 12.0213 10.2795 11.712C9.62883 11.4027 9.13283 10.9973 8.7915 10.496C8.46083 9.99467 8.28483 9.46133 8.2635 8.896C8.2635 8.8 8.2955 8.72 8.3595 8.656C8.4235 8.592 8.5035 8.56 8.5995 8.56H10.4075C10.5462 8.56 10.6528 8.58667 10.7275 8.64C10.8128 8.69333 10.8715 8.77333 10.9035 8.88C11.0102 9.15733 11.1488 9.392 11.3195 9.584C11.5008 9.76533 11.7088 9.89867 11.9435 9.984C12.1782 10.0587 12.4342 10.096 12.7115 10.096C13.0528 10.096 13.3622 10.0267 13.6395 9.888C13.9275 9.74933 14.1568 9.54133 14.3275 9.264C14.4982 8.98667 14.5835 8.64533 14.5835 8.24C14.5835 7.888 14.5035 7.57867 14.3435 7.312C14.1835 7.04533 13.9595 6.83733 13.6715 6.688C13.3942 6.53867 13.0742 6.464 12.7115 6.464C12.4235 6.464 12.1888 6.50133 12.0075 6.576C11.8368 6.64 11.6928 6.71467 11.5755 6.8C11.4582 6.88533 11.3515 6.96533 11.2555 7.04C11.1595 7.104 11.0582 7.136 10.9515 7.136H9.1595C9.0635 7.136 8.97817 7.104 8.9035 7.04C8.8395 6.96533 8.8075 6.88 8.8075 6.784L9.3675 1.264C9.38883 1.11467 9.44217 1.00267 9.5275 0.927999C9.6235 0.842666 9.7355 0.799999 9.8635 0.799999H16.0715C16.1888 0.799999 16.2848 0.837333 16.3595 0.912C16.4342 0.986666 16.4715 1.08267 16.4715 1.2V2.48C16.4715 2.59733 16.4342 2.69333 16.3595 2.768C16.2848 2.84267 16.1888 2.88 16.0715 2.88H11.4475L11.2235 5.216C11.4262 5.06667 11.6875 4.93867 12.0075 4.832C12.3275 4.72533 12.7648 4.672 13.3195 4.672C13.8315 4.672 14.3168 4.75733 14.7755 4.928C15.2448 5.088 15.6608 5.328 16.0235 5.648C16.3968 5.968 16.6848 6.352 16.8875 6.8C17.1008 7.23733 17.2075 7.73867 17.2075 8.304C17.2075 9.072 17.0208 9.74933 16.6475 10.336C16.2848 10.912 15.7675 11.3653 15.0955 11.696C14.4235 12.016 13.6235 12.176 12.6955 12.176ZM23.1565 12.16C22.3885 12.16 21.7272 12.0533 21.1725 11.84C20.6285 11.616 20.1752 11.312 19.8125 10.928C19.4605 10.5333 19.1938 10.08 19.0125 9.568C18.8418 9.04533 18.7405 8.49067 18.7085 7.904C18.6978 7.616 18.6872 7.296 18.6765 6.944C18.6765 6.58133 18.6765 6.21867 18.6765 5.856C18.6872 5.49333 18.6978 5.16267 18.7085 4.864C18.7298 4.27733 18.8312 3.728 19.0125 3.216C19.2045 2.704 19.4818 2.256 19.8445 1.872C20.2072 1.488 20.6605 1.18933 21.2045 0.976C21.7592 0.752 22.4098 0.639999 23.1565 0.639999C23.9032 0.639999 24.5485 0.752 25.0925 0.976C25.6365 1.18933 26.0898 1.488 26.4525 1.872C26.8152 2.256 27.0872 2.704 27.2685 3.216C27.4605 3.728 27.5725 4.27733 27.6045 4.864C27.6152 5.16267 27.6205 5.49333 27.6205 5.856C27.6312 6.21867 27.6312 6.58133 27.6205 6.944C27.6205 7.296 27.6152 7.616 27.6045 7.904C27.5725 8.49067 27.4658 9.04533 27.2845 9.568C27.1032 10.08 26.8312 10.5333 26.4685 10.928C26.1165 11.312 25.6632 11.616 25.1085 11.84C24.5645 12.0533 23.9138 12.16 23.1565 12.16ZM23.1565 10.08C23.7752 10.08 24.2285 9.87733 24.5165 9.472C24.8045 9.06667 24.9538 8.51733 24.9645 7.824C24.9858 7.51467 24.9965 7.19467 24.9965 6.864C24.9965 6.53333 24.9965 6.20267 24.9965 5.872C24.9965 5.54133 24.9858 5.232 24.9645 4.944C24.9538 4.28267 24.8045 3.744 24.5165 3.328C24.2285 2.912 23.7752 2.704 23.1565 2.704C22.5378 2.704 22.0845 2.912 21.7965 3.328C21.5085 3.744 21.3538 4.28267 21.3325 4.944C21.3325 5.232 21.3272 5.54133 21.3165 5.872C21.3165 6.20267 21.3165 6.53333 21.3165 6.864C21.3272 7.19467 21.3325 7.51467 21.3325 7.824C21.3538 8.51733 21.5085 9.06667 21.7965 9.472C22.0952 9.87733 22.5485 10.08 23.1565 10.08Z" fill="#8181A5"/>
</svg>
