<svg width="18" height="24" viewBox="0 0 18 24" fill="none" xmlns="http://www.w3.org/2000/svg">
<path d="M8.25 13.875V11.625C8.25 11.0156 7.73438 10.5 7.125 10.5H4.875C4.21875 10.5 3.75 11.0156 3.75 11.625V13.875C3.75 14.5312 4.21875 15 4.875 15H7.125C7.73438 15 8.25 14.5312 8.25 13.875ZM6.75 13.5H5.25V12H6.75V13.5ZM4.875 9H7.125C7.73438 9 8.25 8.53125 8.25 7.875V5.625C8.25 5.01562 7.73438 4.5 7.125 4.5H4.875C4.21875 4.5 3.75 5.01562 3.75 5.625V7.875C3.75 8.53125 4.21875 9 4.875 9ZM5.25 6H6.75V7.5H5.25V6ZM9 18C7.3125 18.0469 6 19.3594 6 21V23.25C6 23.6719 6.32812 24 6.75 24C7.125 24 7.5 23.6719 7.5 23.25V21C7.5 20.2031 8.15625 19.5469 9 19.5469C9.79688 19.5469 10.5 20.2031 10.5 21V23.25C10.5 23.6719 10.8281 24 11.25 24C11.625 24 12 23.6719 12 23.25V21C12 19.3594 10.6406 18.0469 9 18ZM13.125 4.5H10.875C10.2188 4.5 9.75 5.01562 9.75 5.625V7.875C9.75 8.53125 10.2188 9 10.875 9H13.125C13.7344 9 14.25 8.53125 14.25 7.875V5.625C14.25 5.01562 13.7344 4.5 13.125 4.5ZM12.75 7.5H11.25V6H12.75V7.5ZM15 0H3C1.3125 0 0 1.35938 0 3V23.25C0 23.6719 0.328125 24 0.75 24C1.125 24 1.5 23.6719 1.5 23.25V3C1.5 2.20312 2.15625 1.5 3 1.5H15C15.7969 1.5 16.5 2.20312 16.5 3V23.25C16.5 23.6719 16.8281 24 17.25 24C17.625 24 18 23.6719 18 23.25V3C18 1.35938 16.6406 0 15 0ZM13.125 10.5H10.875C10.2188 10.5 9.75 11.0156 9.75 11.625V13.875C9.75 14.5312 10.2188 15 10.875 15H13.125C13.7344 15 14.25 14.5312 14.25 13.875V11.625C14.25 11.0156 13.7344 10.5 13.125 10.5ZM12.75 13.5H11.25V12H12.75V13.5Z" fill="#8181A5"/>
</svg>
