<svg width="42" height="42" viewBox="0 0 42 42" fill="none" xmlns="http://www.w3.org/2000/svg">
<rect width="42" height="42" rx="2" fill="#E2FFEE"/>
<rect width="42" height="42" rx="2" stroke="white"/>
<g clip-path="url(#clip0)">
<path d="M32.5864 20.5876H29.6613C29.4738 16.1251 25.8739 12.5251 21.4113 12.3376V9.41251C21.4113 9.18751 21.2238 9 20.9988 9C20.7738 9 20.5863 9.1875 20.5863 9.41251V12.3376C16.1237 12.5251 12.5237 16.1251 12.3363 20.5876H9.41117C9.18617 20.5876 8.99866 20.7751 8.99866 21.0001C8.99866 21.2252 9.18616 21.4127 9.41117 21.4127H12.3363C12.5613 25.8752 16.1237 29.4378 20.5863 29.6627V32.5878C20.5863 32.8128 20.7738 33.0003 20.9988 33.0003C21.2238 33.0003 21.4113 32.8128 21.4113 32.5878V29.6627C25.8739 29.4377 29.4364 25.8752 29.6613 21.4127H32.5864C32.8114 21.4127 32.9989 21.2252 32.9989 21.0001C32.9989 20.7751 32.8114 20.5876 32.5864 20.5876ZM27.299 20.5876H21.4116V14.7002C24.5616 14.9252 27.0741 17.4376 27.299 20.5876ZM20.5864 14.7002V20.5876H14.699C14.924 17.4376 17.4364 14.9251 20.5864 14.7002ZM14.699 21.4128H20.5864V27.3002C17.4364 27.0752 14.9239 24.5628 14.699 21.4128ZM21.4116 27.3002V21.4128H27.299C27.074 24.5628 24.5616 27.0753 21.4116 27.3002Z" fill="#27AE60"/>
</g>
<defs>
<clipPath id="clip0">
<rect width="24" height="24" fill="white" transform="translate(9 9)"/>
</clipPath>
</defs>
</svg>
