<svg width="12" height="13" viewBox="0 0 12 13" fill="none" xmlns="http://www.w3.org/2000/svg">
<path d="M3.77344 1.10938C3.35156 0.734375 2.83594 0.5 2.25 0.5C0.984375 0.5 0 1.50781 0 2.75C0 3.19531 0.117188 3.61719 0.351562 3.96875L3.77344 1.10938ZM9.75 0.5C9.14062 0.5 8.625 0.734375 8.20312 1.10938L11.625 3.96875C11.8594 3.61719 12 3.19531 12 2.75C12 1.50781 10.9922 0.5 9.75 0.5ZM11.25 7.27344C11.25 4.46094 9 2 6 2C3.09375 2 0.75 4.36719 0.75 7.25C0.75 8.44531 1.125 9.52344 1.78125 10.3906L0.960938 11.2344C0.820312 11.375 0.75 11.5625 0.75 11.75C0.75 11.9609 0.820312 12.1484 0.960938 12.2891C1.10156 12.4297 1.28906 12.5 1.5 12.5C1.6875 12.5 1.875 12.4297 2.01562 12.2891L2.85938 11.4688C3.72656 12.125 4.80469 12.5 6 12.5C7.17188 12.5 8.25 12.125 9.11719 11.4688L9.96094 12.2891C10.1016 12.4297 10.2891 12.5 10.5 12.5C10.6875 12.5 10.875 12.4297 11.0156 12.2891C11.1562 12.1484 11.25 11.9609 11.25 11.7734C11.25 11.5625 11.1562 11.375 11.0156 11.2344L10.1953 10.3906C10.8516 9.52344 11.25 8.44531 11.25 7.27344ZM8.0625 8.77344C8.0625 9.07812 7.80469 9.3125 7.47656 9.3125C7.35938 9.3125 7.24219 9.28906 7.14844 9.21875L5.64844 8.09375C5.50781 7.97656 5.4375 7.8125 5.4375 7.625V4.8125C5.4375 4.50781 5.67188 4.25 6 4.25C6.30469 4.25 6.5625 4.50781 6.5625 4.8125V7.34375L7.82812 8.30469C7.96875 8.42188 8.0625 8.58594 8.0625 8.77344Z" fill="#1991EB"/>
</svg>
