<svg width="42" height="42" viewBox="0 0 42 42" fill="none" xmlns="http://www.w3.org/2000/svg">
<rect width="42" height="42" rx="4" fill="#6FCF97"/>
<path d="M21 10.4375C15.2852 10.4375 10.6875 15.0781 10.6875 20.75C10.6875 26.4648 15.2852 31.0625 21 31.0625C26.6719 31.0625 31.3125 26.4648 31.3125 20.75C31.3125 15.0781 26.6719 10.4375 21 10.4375ZM21 29C16.4453 29 12.75 25.3047 12.75 20.75C12.75 16.2383 16.4453 12.5 21 12.5C25.5117 12.5 29.25 16.2383 29.25 20.75C29.25 25.3047 25.5117 29 21 29ZM24.3945 17.3125L19.625 22.082L17.5625 20.0625C17.1758 19.6328 16.5312 19.6328 16.1445 20.0625C15.7148 20.4492 15.7148 21.0938 16.1445 21.4805L18.8945 24.2305C19.0664 24.4453 19.3242 24.5312 19.625 24.5312C19.8828 24.5312 20.1406 24.4453 20.3125 24.2305L25.8125 18.7305C26.2422 18.3438 26.2422 17.6992 25.8125 17.3125C25.4258 16.8828 24.7812 16.8828 24.3945 17.3125Z" fill="white"/>
</svg>
