<svg width="21" height="21" viewBox="0 0 21 21" fill="none" xmlns="http://www.w3.org/2000/svg">
<path d="M20.9609 1.94531C21.0391 1.47656 20.8438 1.00781 20.4531 0.734375C20.0234 0.460938 19.5156 0.460938 19.125 0.695312L1.625 10.6953C1.19531 10.9297 0.960938 11.3594 1 11.8281C1 12.3359 1.3125 12.7266 1.74219 12.9219L5.76562 14.6016L17.2109 4.28906L8.73438 15.1875C8.57812 15.3828 8.46094 15.6562 8.46094 15.9297V19.7188C8.46094 20.1484 8.85156 20.5 9.28125 20.5C9.55469 20.5 9.82812 20.3828 9.98438 20.1484L11.9766 17.1797L16.7422 19.1719C16.8984 19.25 17.0547 19.25 17.2109 19.25C17.4453 19.25 17.6406 19.2109 17.8359 19.0938C18.1875 18.9375 18.4219 18.5859 18.4609 18.1953L20.9609 1.94531Z" fill="white"/>
</svg>
