<svg width="24" height="19" viewBox="0 0 24 19" fill="none" xmlns="http://www.w3.org/2000/svg">
<path d="M10.3828 10.9375H6.83203C3.45703 10.9375 0.75 13.6797 0.75 17.0547C0.75 17.7227 1.27734 18.25 1.94531 18.25H15.2695C15.9375 18.25 16.5 17.7227 16.5 17.0547C16.5 13.6797 13.7578 10.9375 10.3828 10.9375ZM2.4375 16.5625C2.68359 14.3828 4.54688 12.625 6.83203 12.625H10.3828C12.668 12.625 14.5312 14.3828 14.7773 16.5625H2.4375ZM8.625 9.8125C11.0859 9.8125 13.125 7.80859 13.125 5.3125V0.25L10.875 1.375L8.625 0.25L6.375 1.375L4.125 0.25V5.3125C4.125 7.80859 6.12891 9.8125 8.625 9.8125ZM5.8125 4.75H11.4375V5.3125C11.4375 6.89453 10.1719 8.125 8.625 8.125C7.04297 8.125 5.8125 6.89453 5.8125 5.3125V4.75ZM19.875 5.3125C19.875 3.16797 18.082 1.375 15.9375 1.375C15.3047 1.375 14.7422 1.55078 14.25 1.79688V5.3125C14.25 6.4375 13.8984 7.42188 13.3711 8.30078C14.0391 8.89844 14.9531 9.25 15.9375 9.25C18.082 9.25 19.875 7.49219 19.875 5.3125ZM17.5898 11.5H15.0234C16.6055 12.8359 17.625 14.8398 17.625 17.0547C17.625 17.5117 17.4844 17.8984 17.2734 18.25H22.125C22.7227 18.25 23.25 17.7578 23.25 17.125C23.25 14.0312 20.7188 11.5 17.5898 11.5Z" fill="#8181A5"/>
</svg>
