<svg width="14" height="26" viewBox="0 0 14 26" fill="none" xmlns="http://www.w3.org/2000/svg">
<path d="M1.15486 14.0952L7.81111 1.99678C7.83922 1.9427 7.88483 1.89975 7.9405 1.87493C7.99616 1.85011 8.0586 1.84488 8.11761 1.86011C8.17663 1.87534 8.22874 1.91012 8.26544 1.95878C8.30215 2.00744 8.32127 2.0671 8.3197 2.12803V11.0343H12.3041C12.409 11.0344 12.5122 11.0618 12.6033 11.1138C12.6945 11.1659 12.7705 11.2407 12.8239 11.3311C12.8774 11.4214 12.9064 11.5241 12.9081 11.629C12.9098 11.734 12.8842 11.8376 12.8338 11.9296L6.18924 24.0023C6.16113 24.0563 6.11552 24.0993 6.05985 24.1241C6.00419 24.1489 5.94175 24.1541 5.88274 24.1389C5.82372 24.1237 5.77161 24.0889 5.73491 24.0403C5.6982 23.9916 5.67908 23.9319 5.68064 23.871V14.9999H1.67752C1.57181 14.9995 1.46805 14.9714 1.37659 14.9184C1.28513 14.8653 1.20918 14.7893 1.15629 14.6977C1.10341 14.6062 1.07545 14.5024 1.0752 14.3967C1.07495 14.2909 1.10242 14.187 1.15486 14.0952V14.0952Z" stroke="#8181A5" stroke-width="2" stroke-linecap="round" stroke-linejoin="round"/>
</svg>
