<svg width="14" height="13" viewBox="0 0 14 13" fill="none" xmlns="http://www.w3.org/2000/svg">
<path d="M9.40625 3.6875H5.14062C4.78516 3.6875 4.48438 3.98828 4.48438 4.34375C4.48438 4.72656 4.78516 5 5.14062 5H7.82031L4.12891 8.71875C3.85547 8.96484 3.85547 9.375 4.12891 9.62109C4.23828 9.75781 4.40234 9.8125 4.59375 9.8125C4.75781 9.8125 4.92188 9.75781 5.03125 9.62109L8.75 5.92969V8.60938C8.75 8.96484 9.02344 9.26562 9.40625 9.26562C9.76172 9.26562 10.0625 8.96484 10.0625 8.60938V4.34375C10.0625 3.98828 9.76172 3.6875 9.40625 3.6875ZM11.375 0.625H2.625C1.64062 0.625 0.875 1.41797 0.875 2.375V11.125C0.875 12.1094 1.64062 12.875 2.625 12.875H11.375C12.332 12.875 13.125 12.1094 13.125 11.125V2.375C13.125 1.41797 12.332 0.625 11.375 0.625ZM11.8125 11.125C11.8125 11.3711 11.5938 11.5625 11.375 11.5625H2.625C2.37891 11.5625 2.1875 11.3711 2.1875 11.125V2.375C2.1875 2.15625 2.37891 1.9375 2.625 1.9375H11.375C11.5938 1.9375 11.8125 2.15625 11.8125 2.375V11.125Z" fill="#1991EB"/>
</svg>
