<svg width="16" height="16" viewBox="0 0 16 16" fill="none" xmlns="http://www.w3.org/2000/svg">
<path d="M4.34375 6.8125C4.9375 5.09375 6.65625 4.0625 8.5 4.1875L14.9062 4.53125C14.25 3.21875 13.2188 2.09375 11.8438 1.3125C10.625 0.59375 9.28125 0.25 7.96875 0.25C5.6875 0.28125 3.4375 1.28125 1.96875 3.15625L4.34375 6.8125ZM5.375 8C5.375 9.46875 6.53125 10.625 8 10.625C9.4375 10.625 10.5938 9.46875 10.5938 8C10.5938 6.5625 9.4375 5.40625 8 5.40625C6.53125 5.40625 5.375 6.5625 5.375 8ZM15.2188 5.21875L10.8438 5.4375C12.0312 6.84375 12.0625 8.84375 11.0625 10.375L7.5625 15.75C9 15.8438 10.5 15.5 11.8438 14.7188C15.2188 12.7812 16.5625 8.71875 15.2188 5.21875ZM4.40625 9.5L1.5 3.78125C0.6875 5 0.25 6.4375 0.25 8C0.25 11.875 3.0625 15.0938 6.78125 15.6562L8.78125 11.7812C6.96875 12.0938 5.25 11.125 4.40625 9.5Z" fill="#1991EB"/>
</svg>
