<svg width="42" height="45" viewBox="0 0 42 45" fill="none" xmlns="http://www.w3.org/2000/svg">
<rect y="0.59375" width="42" height="44.3357" rx="4" fill="#F5F5FA"/>
<path d="M16.8867 21.0083C17.5547 19.0747 19.4883 17.9146 21.5625 18.0552L28.7695 18.4419C28.0312 16.9653 26.8711 15.6997 25.3242 14.8208C23.9531 14.0122 22.4414 13.6255 20.9648 13.6255C18.3984 13.6606 15.8672 14.7856 14.2148 16.895L16.8867 21.0083ZM18.0469 22.3442C18.0469 23.9966 19.3477 25.2974 21 25.2974C22.6172 25.2974 23.918 23.9966 23.918 22.3442C23.918 20.7271 22.6172 19.4263 21 19.4263C19.3477 19.4263 18.0469 20.7271 18.0469 22.3442ZM29.1211 19.2153L24.1992 19.4614C25.5352 21.0435 25.5703 23.2935 24.4453 25.0161L20.5078 31.063C22.125 31.1685 23.8125 30.7817 25.3242 29.9028C29.1211 27.7231 30.6328 23.1528 29.1211 19.2153ZM16.957 24.0317L13.6875 17.5981C12.7734 18.9692 12.2812 20.5864 12.2812 22.3442C12.2812 26.7036 15.4453 30.3247 19.6289 30.9575L21.8789 26.5981C19.8398 26.9497 17.9062 25.8599 16.957 24.0317Z" fill="#8181A5"/>
</svg>
