<svg width="42" height="42" viewBox="0 0 42 42" fill="none" xmlns="http://www.w3.org/2000/svg">
<rect width="42" height="42" rx="4" fill="#1991EB"/>
<path d="M17.2708 19.9141C17.9387 17.9805 19.8723 16.8203 21.9466 16.9609L29.1536 17.3477C28.4153 15.8711 27.2551 14.6055 25.7083 13.7266C24.3372 12.918 22.8255 12.5312 21.3489 12.5312C18.7825 12.5664 16.2512 13.6914 14.5989 15.8008L17.2708 19.9141ZM18.4309 21.25C18.4309 22.9023 19.7317 24.2031 21.3841 24.2031C23.0012 24.2031 24.302 22.9023 24.302 21.25C24.302 19.6328 23.0012 18.332 21.3841 18.332C19.7317 18.332 18.4309 19.6328 18.4309 21.25ZM29.5051 18.1211L24.5833 18.3672C25.9192 19.9492 25.9544 22.1992 24.8294 23.9219L20.8919 29.9688C22.5091 30.0742 24.1966 29.6875 25.7083 28.8086C29.5051 26.6289 31.0169 22.0586 29.5051 18.1211ZM17.3411 22.9375L14.0716 16.5039C13.1575 17.875 12.6653 19.4922 12.6653 21.25C12.6653 25.6094 15.8294 29.2305 20.013 29.8633L22.263 25.5039C20.2239 25.8555 18.2903 24.7656 17.3411 22.9375Z" fill="white"/>
</svg>
