<svg width="12" height="12" viewBox="0 0 12 12" fill="none" xmlns="http://www.w3.org/2000/svg">
<path d="M11.3438 10.4688L7.16016 6.25L11.3438 2.06641C11.6953 1.75 11.6953 1.22266 11.3438 0.90625C11.0273 0.554688 10.5 0.554688 10.1836 0.90625L6 5.08984L1.78125 0.90625C1.46484 0.554688 0.9375 0.554688 0.621094 0.90625C0.269531 1.22266 0.269531 1.75 0.621094 2.06641L4.80469 6.25L0.621094 10.4688C0.269531 10.7852 0.269531 11.3125 0.621094 11.6289C0.9375 11.9805 1.46484 11.9805 1.78125 11.6289L6 7.44531L10.1836 11.6289C10.5 11.9805 11.0273 11.9805 11.3438 11.6289C11.6953 11.3125 11.6953 10.7852 11.3438 10.4688Z" fill="#8181A5"/>
</svg>
