<svg width="21" height="21" viewBox="0 0 21 21" fill="none" xmlns="http://www.w3.org/2000/svg">
<path d="M13.4541 16.5016C13.2371 16.2846 12.8851 16.2846 12.6681 16.5016L10.8371 18.3316V12.0306C10.8371 11.7236 10.5881 11.4746 10.2811 11.4746C9.97406 11.4746 9.72506 11.7236 9.72506 12.0306V18.3316L7.89406 16.5016C7.67706 16.2846 7.32506 16.2846 7.10806 16.5016C6.89106 16.7186 6.89106 17.0706 7.10806 17.2876L9.88706 20.0666C9.99506 20.1756 10.1381 20.2296 10.2801 20.2296C10.4221 20.2296 10.5651 20.1756 10.6731 20.0666L13.4521 17.2876C13.6711 17.0706 13.6711 16.7186 13.4541 16.5016Z" fill="#5E81F4"/>
<path d="M16.376 5.589C16.109 2.463 13.478 0 10.284 0C6.912 0 4.169 2.743 4.169 6.115C4.169 6.393 4.189 6.674 4.229 6.954C4.163 6.95 4.097 6.949 4.03 6.949C1.808 6.949 0 8.757 0 10.979C0 13.201 1.808 15.009 4.03 15.009H7.504C7.811 15.009 8.06 14.76 8.06 14.453C8.06 14.146 7.811 13.897 7.504 13.897H4.03C2.421 13.897 1.112 12.588 1.112 10.979C1.112 9.37 2.421 8.061 4.03 8.061C4.28 8.061 4.537 8.096 4.794 8.166C4.987 8.219 5.194 8.163 5.335 8.02C5.476 7.878 5.529 7.671 5.475 7.478C5.346 7.024 5.281 6.566 5.281 6.115C5.281 3.357 7.525 1.112 10.284 1.112C13.043 1.112 15.287 3.356 15.287 6.115C15.287 6.422 15.536 6.671 15.843 6.671C17.835 6.671 19.456 8.292 19.456 10.284C19.456 12.276 17.835 13.897 15.843 13.897H13.064C12.757 13.897 12.508 14.146 12.508 14.453C12.508 14.76 12.757 15.009 13.064 15.009H15.843C18.448 15.009 20.568 12.889 20.568 10.284C20.568 7.859 18.731 5.855 16.376 5.589Z" fill="#5E81F4"/>
</svg>
