<svg width="32" height="33" viewBox="0 0 32 33" fill="none" xmlns="http://www.w3.org/2000/svg">
<path d="M12 10.7817C5.3125 10.7817 0 13.0317 0 15.7817V27.7817C0 30.5942 5.3125 32.7817 12 32.7817C18.625 32.7817 24 30.5942 24 27.7817V15.7817C24 13.0317 18.625 10.7817 12 10.7817ZM22 27.7817C22 28.5942 18.5 30.7817 12 30.7817C5.4375 30.7817 2 28.5942 2 27.7817V24.5942C4.125 25.9067 7.8125 26.7817 12 26.7817C16.125 26.7817 19.8125 25.9067 22 24.5942V27.7817ZM22 21.7817C22 22.5942 18.5 24.7817 12 24.7817C5.4375 24.7817 2 22.5942 2 21.7817V18.5942C4.125 19.9067 7.8125 20.7817 12 20.7817C16.125 20.7817 19.8125 19.9067 22 18.5942V21.7817ZM12 18.7817C5.4375 18.7817 2 16.5942 2 15.7817C2 15.0317 5.4375 12.7817 12 12.7817C18.5 12.7817 22 15.0317 22 15.7817C22 16.5942 18.5 18.7817 12 18.7817ZM20 0.781738C14 0.781738 8 2.46924 8 5.78174V7.78174C8 8.34424 8.4375 8.78174 9 8.78174C9.5 8.78174 10 8.34424 10 7.78174V5.78174C10 4.53174 13.9375 2.71924 20 2.71924C26 2.71924 30 4.53174 30 5.78174C30 6.65674 27.5 8.15674 22.875 8.59424C22.375 8.65674 22 9.09424 22 9.59424C22 10.4692 22.8125 10.5942 22.9375 10.5942C23.3125 10.5942 27.4375 10.2192 30 8.65674V10.7817C30 11.3442 28.9375 12.2192 26.6875 12.9067C26.25 13.0317 25.9375 13.4692 25.9375 13.8442C25.9375 13.9692 26 14.0942 26 14.1567C26.125 14.5942 26.5625 14.9067 27 14.9067C27.3125 14.9067 28.875 14.3442 30 13.6567V15.7817C30 16.3442 28.9375 17.2817 26.6875 17.9067C26.25 18.0942 25.9375 18.4692 25.9375 18.9067C25.9375 18.9692 26 19.0942 26 19.1567C26.125 19.5942 26.5625 19.9067 27 19.9067C27.0625 19.9067 32 18.7192 32 15.7817V5.78174C32 2.46924 26 0.781738 20 0.781738Z" fill="white"/>
</svg>
