<svg width="30" height="31" viewBox="0 0 30 31" fill="none" xmlns="http://www.w3.org/2000/svg">
<path d="M11.25 10.125C4.98047 10.125 0 12.2344 0 14.8125V26.0625C0 28.6992 4.98047 30.75 11.25 30.75C17.4609 30.75 22.5 28.6992 22.5 26.0625V14.8125C22.5 12.2344 17.4609 10.125 11.25 10.125ZM20.625 26.0625C20.625 26.8242 17.3438 28.875 11.25 28.875C5.09766 28.875 1.875 26.8242 1.875 26.0625V23.0742C3.86719 24.3047 7.32422 25.125 11.25 25.125C15.1172 25.125 18.5742 24.3047 20.625 23.0742V26.0625ZM20.625 20.4375C20.625 21.1992 17.3438 23.25 11.25 23.25C5.09766 23.25 1.875 21.1992 1.875 20.4375V17.4492C3.86719 18.6797 7.32422 19.5 11.25 19.5C15.1172 19.5 18.5742 18.6797 20.625 17.4492V20.4375ZM11.25 17.625C5.09766 17.625 1.875 15.5742 1.875 14.8125C1.875 14.1094 5.09766 12 11.25 12C17.3438 12 20.625 14.1094 20.625 14.8125C20.625 15.5742 17.3438 17.625 11.25 17.625ZM18.75 0.75C13.125 0.75 7.5 2.33203 7.5 5.4375V7.3125C7.5 7.83984 7.91016 8.25 8.4375 8.25C8.90625 8.25 9.375 7.83984 9.375 7.3125V5.4375C9.375 4.26562 13.0664 2.56641 18.75 2.56641C24.375 2.56641 28.125 4.26562 28.125 5.4375C28.125 6.25781 25.7812 7.66406 21.4453 8.07422C20.9766 8.13281 20.625 8.54297 20.625 9.01172C20.625 9.83203 21.3867 9.94922 21.5039 9.94922C21.8555 9.94922 25.7227 9.59766 28.125 8.13281V10.125C28.125 10.6523 27.1289 11.4727 25.0195 12.1172C24.6094 12.2344 24.3164 12.6445 24.3164 12.9961C24.3164 13.1133 24.375 13.2305 24.375 13.2891C24.4922 13.6992 24.9023 13.9922 25.3125 13.9922C25.6055 13.9922 27.0703 13.4648 28.125 12.8203V14.8125C28.125 15.3398 27.1289 16.2188 25.0195 16.8047C24.6094 16.9805 24.3164 17.332 24.3164 17.7422C24.3164 17.8008 24.375 17.918 24.375 17.9766C24.4922 18.3867 24.9023 18.6797 25.3125 18.6797C25.3711 18.6797 30 17.5664 30 14.8125V5.4375C30 2.33203 24.375 0.75 18.75 0.75Z" fill="#8181A5"/>
</svg>
