<svg width="42" height="42" viewBox="0 0 42 42" fill="none" xmlns="http://www.w3.org/2000/svg">
<rect width="42" height="42" rx="4" fill="#1991EB"/>
<path d="M25.8841 13.375C25.8841 12.7773 25.3567 12.25 24.7591 12.25C24.1262 12.25 23.6341 12.7773 23.6341 13.375V16.75H25.8841V13.375ZM27.5716 17.875H15.1966C14.8801 17.875 14.6341 18.1562 14.6341 18.4375V19.5625C14.6341 19.8789 14.8801 20.125 15.1966 20.125H15.7591V21.25C15.7591 23.9219 17.6223 26.2422 20.2591 26.7695V30.25H22.5091V26.7695C25.1106 26.2422 27.0091 23.9219 27.0091 21.25V20.125H27.5716C27.8528 20.125 28.1341 19.8789 28.1341 19.5625V18.4375C28.1341 18.1562 27.8528 17.875 27.5716 17.875ZM19.1341 13.375C19.1341 12.7773 18.6067 12.25 18.0091 12.25C17.3762 12.25 16.8841 12.7773 16.8841 13.375V16.75H19.1341V13.375Z" fill="white"/>
</svg>
