<svg width="14" height="19" viewBox="0 0 14 19" fill="none" xmlns="http://www.w3.org/2000/svg">
<path d="M11.2188 1.09375C11.2188 0.636719 10.832 0.25 10.375 0.25C9.88281 0.25 9.53125 0.636719 9.53125 1.09375V4.1875H11.2188V1.09375ZM4.46875 1.09375C4.46875 0.636719 4.08203 0.25 3.625 0.25C3.13281 0.25 2.78125 0.636719 2.78125 1.09375V4.1875H4.46875V1.09375ZM12.9062 5.3125H1.09375C0.601562 5.3125 0.25 5.69922 0.25 6.15625C0.25 6.64844 0.601562 7 1.09375 7H1.375V9.25C1.375 12.0977 3.44922 14.3828 6.15625 14.8047V17.4062C6.15625 17.8984 6.50781 18.25 7 18.25C7.45703 18.25 7.84375 17.8984 7.84375 17.4062V14.8047C10.5156 14.3828 12.625 12.0977 12.625 9.25V7H12.9062C13.3633 7 13.75 6.64844 13.75 6.15625C13.75 5.69922 13.3633 5.3125 12.9062 5.3125ZM10.9375 9.25C10.9375 11.4297 9.14453 13.1875 7 13.1875C4.82031 13.1875 3.0625 11.4297 3.0625 9.25V7H10.9375V9.25Z" fill="#8181A5"/>
</svg>
