<svg width="20" height="17" viewBox="0 0 20 17" fill="none" xmlns="http://www.w3.org/2000/svg">
<path d="M7 8.88232C9.1875 8.88232 11 7.10107 11 4.88232V0.382324L9 1.38232L7 0.382324L5 1.38232L3 0.382324V4.88232C3 7.10107 4.78125 8.88232 7 8.88232ZM4.5 4.38232H9.5V4.88232C9.5 6.28857 8.375 7.38232 7 7.38232C5.59375 7.38232 4.5 6.28857 4.5 4.88232V4.38232ZM8.5625 9.88232H5.40625C2.40625 9.88232 0 12.3198 0 15.3198C0 15.9136 0.46875 16.3823 1.0625 16.3823H12.9062C13.5 16.3823 14 15.9136 14 15.3198C14 12.3198 11.5625 9.88232 8.5625 9.88232ZM17 4.88232C17 2.97607 15.4062 1.38232 13.5 1.38232C12.9375 1.38232 12.4375 1.53857 12 1.75732V4.88232C12 5.88232 11.6875 6.75732 11.2188 7.53857C11.8125 8.06982 12.625 8.38232 13.5 8.38232C15.4062 8.38232 17 6.81982 17 4.88232ZM14.9688 10.3823H12.6875C14.0938 11.5698 15 13.3511 15 15.3198C15 15.7261 14.875 16.0698 14.6875 16.3823H19C19.5312 16.3823 20 15.9448 20 15.3823C20 12.6323 17.75 10.3823 14.9688 10.3823Z" fill="#8181A5"/>
</svg>
