<svg width="26" height="21" viewBox="0 0 26 21" fill="none" xmlns="http://www.w3.org/2000/svg">
<path d="M11.2031 12.375H7.25781C3.50781 12.375 0.5 15.4219 0.5 19.1719C0.5 19.9141 1.08594 20.5 1.82813 20.5L16.6328 20.5C17.375 20.5 18 19.9141 18 19.1719C18 15.4219 14.9531 12.375 11.2031 12.375ZM16.6328 19.25L1.82813 19.25C1.78906 19.25 1.75 19.2109 1.75 19.1719C1.75 16.125 4.21094 13.625 7.25781 13.625H11.2031C14.25 13.625 16.75 16.125 16.75 19.1719C16.75 19.2109 16.6719 19.25 16.6328 19.25ZM15.1484 9.91406C15.8125 10.3047 16.5938 10.5 17.375 10.5C19.7578 10.5 21.75 8.54687 21.75 6.125C21.75 3.74219 19.7578 1.75 17.375 1.75C16.8672 1.75 16.3594 1.86719 15.8906 2.02344C15.5781 2.14062 15.3828 2.49219 15.5 2.80469C15.6172 3.15625 16.0078 3.3125 16.3203 3.19531C16.6328 3.07812 16.9844 3 17.375 3C19.0938 3 20.5 4.40625 20.5 6.125C20.5 7.88281 19.0938 9.25 17.375 9.25C16.7891 9.25 16.2812 9.13281 15.8125 8.85937C15.5 8.66406 15.1094 8.78125 14.9531 9.09375C14.7578 9.36719 14.875 9.75781 15.1484 9.91406ZM19.6406 13H18C17.6484 13 17.375 13.3125 17.375 13.625C17.375 13.9766 17.6484 14.25 18 14.25H19.6406C22.1797 14.25 24.25 16.3203 24.25 18.8594C24.25 19.0937 24.0547 19.25 23.8203 19.25H19.875C19.5234 19.25 19.25 19.5625 19.25 19.875C19.25 20.2266 19.5234 20.5 19.875 20.5H23.8203C24.7188 20.5 25.5 19.7578 25.5 18.8594C25.5 15.6172 22.8828 13 19.6406 13ZM9.25 11.125C11.9844 11.125 14.25 8.89844 14.25 6.125L14.25 1.4375C14.25 1.00781 13.7422 0.695312 13.3125 0.890625L11.75 1.71094L9.52344 0.578125C9.32812 0.5 9.13281 0.5 8.9375 0.578125L6.75 1.71094L5.14844 0.890625C4.71875 0.695312 4.25 1.00781 4.25 1.4375L4.25 6.125C4.25 8.89844 6.47656 11.125 9.25 11.125ZM5.5 2.45312L6.75 3.07812L9.25 1.82812L11.75 3.07812L13 2.45312L13 4.875L5.5 4.875L5.5 2.45312ZM13 6.125C13 8.19531 11.2813 9.875 9.25 9.875C7.17969 9.875 5.5 8.19531 5.5 6.125H13Z" fill="#8181A5"/>
</svg>
