<svg width="12" height="12" viewBox="0 0 12 12" fill="none" xmlns="http://www.w3.org/2000/svg">
<path d="M9.09 4.35429L5.19 8.25429C5.14996 8.29401 5.10246 8.32543 5.05025 8.34676C4.99803 8.36809 4.94212 8.3789 4.88572 8.37857H4.85572C4.79432 8.37414 4.73459 8.35654 4.6806 8.32696C4.62662 8.29738 4.57964 8.25651 4.54286 8.20714L2.87143 6C2.80323 5.90907 2.77395 5.79477 2.79002 5.68225C2.8061 5.56973 2.86621 5.4682 2.95714 5.4C3.04808 5.3318 3.16237 5.30252 3.2749 5.31859C3.38742 5.33467 3.48895 5.39478 3.55715 5.48572L4.93286 7.28572L8.48143 3.73286C8.56213 3.65216 8.67159 3.60682 8.78572 3.60682C8.89984 3.60682 9.0093 3.65216 9.09 3.73286C9.1707 3.81356 9.21604 3.92302 9.21604 4.03715C9.21604 4.15127 9.1707 4.26073 9.09 4.34143V4.35429ZM12 6C12 4.81331 11.6481 3.65328 10.9888 2.66658C10.3295 1.67989 9.39246 0.910851 8.2961 0.456725C7.19975 0.0025997 5.99335 -0.11622 4.82946 0.115291C3.66557 0.346802 2.59648 0.918247 1.75736 1.75736C0.918247 2.59648 0.346802 3.66557 0.115291 4.82946C-0.11622 5.99335 0.0025997 7.19975 0.456725 8.2961C0.910851 9.39246 1.67989 10.3295 2.66658 10.9888C3.65328 11.6481 4.81331 12 6 12C7.5913 12 9.11742 11.3679 10.2426 10.2426C11.3679 9.11742 12 7.5913 12 6ZM11.1429 6C11.1429 7.01716 10.8412 8.01148 10.2761 8.85722C9.71103 9.70296 8.90782 10.3621 7.96809 10.7514C7.02835 11.1406 5.9943 11.2425 4.99668 11.044C3.99906 10.8456 3.08269 10.3558 2.36345 9.63655C1.64421 8.91731 1.1544 8.00094 0.955964 7.00332C0.757526 6.00571 0.859371 4.97165 1.24862 4.03192C1.63787 3.09218 2.29705 2.28898 3.14278 1.72387C3.98852 1.15877 4.98284 0.857145 6 0.857145C7.36397 0.857145 8.67208 1.39898 9.63655 2.36345C10.601 3.32793 11.1429 4.63603 11.1429 6Z" fill="#27AE60"/>
</svg>
