<svg width="42" height="42" viewBox="0 0 42 42" fill="none" xmlns="http://www.w3.org/2000/svg">
<rect width="42" height="42" rx="4" fill="#1991EB"/>
<path d="M23.7747 15.9062L25.8841 16.75L26.7278 18.8594C26.7981 18.9648 26.9036 19 27.0091 19C27.1145 19 27.1848 18.9648 27.2551 18.8594L28.1341 16.75L30.2083 15.9062C30.3137 15.8359 30.3841 15.7305 30.3841 15.625C30.3841 15.5195 30.3137 15.4492 30.2083 15.3789L28.1341 14.5L27.2551 12.4258C27.1848 12.3203 27.1145 12.25 27.0091 12.25C26.9036 12.25 26.7981 12.3203 26.7278 12.4258L25.8841 14.5L23.7747 15.3789C23.6692 15.4492 23.6341 15.5195 23.6341 15.625C23.6341 15.7305 23.6692 15.8359 23.7747 15.9062ZM30.2083 26.6289L28.1341 25.75L27.2551 23.6758C27.1848 23.5703 27.1145 23.5 27.0091 23.5C26.9036 23.5 26.7981 23.5703 26.7278 23.6758L25.8841 25.75L23.7747 26.6289C23.6692 26.6992 23.6341 26.7695 23.6341 26.875C23.6341 26.9805 23.6692 27.0859 23.7747 27.1562L25.8841 28L26.7278 30.1094C26.7981 30.2148 26.9036 30.25 27.0091 30.25C27.1145 30.25 27.1848 30.2148 27.2551 30.1094L28.1341 28L30.2083 27.1562C30.3137 27.0859 30.3841 26.9805 30.3841 26.875C30.3841 26.7695 30.3137 26.6992 30.2083 26.6289ZM25.8841 21.25C25.8841 21.0391 25.7434 20.8281 25.5676 20.7578L21.595 18.7539L19.6262 14.8164C19.4153 14.4297 18.8176 14.4297 18.6067 14.8164L16.638 18.7539L12.6653 20.7578C12.4895 20.8281 12.3841 21.0391 12.3841 21.25C12.3841 21.4609 12.4895 21.6719 12.6653 21.7422L16.638 23.7461L18.6067 27.7188C18.7122 27.8945 18.888 28 19.1341 28C19.3098 28 19.5208 27.8945 19.6262 27.7188L21.595 23.7461L25.5676 21.7422C25.7434 21.6719 25.8841 21.4609 25.8841 21.25Z" fill="white"/>
</svg>
