<svg width="22" height="17" viewBox="0 0 22 17" fill="none" xmlns="http://www.w3.org/2000/svg">
<path d="M11 0.375C5.41016 0.375 0.875 4.91016 0.875 10.5C0.875 12.3633 1.36719 14.1211 2.24609 15.5977C2.42188 15.9492 2.80859 16.125 3.19531 16.125H18.7695C19.1562 16.125 19.543 15.9492 19.7539 15.5977C20.5977 14.1211 21.125 12.3633 21.125 10.5C21.125 4.91016 16.5898 0.375 11 0.375ZM12.9336 13.875H9.03125C8.85547 13.5586 8.75 13.1719 8.75 12.75C8.75 12.3281 8.85547 11.9414 9.06641 11.625L5.23438 6.52734C4.95312 6.14062 5.05859 5.61328 5.41016 5.33203C5.79688 5.05078 6.32422 5.12109 6.60547 5.50781L10.4023 10.6055C10.6133 10.5352 10.7891 10.5 11 10.5C12.2305 10.5 13.25 11.5195 13.25 12.75C13.25 13.1719 13.1094 13.5586 12.9336 13.875Z" fill="#8181A5"/>
</svg>
