<svg width="24" height="22" viewBox="0 0 24 22" fill="none" xmlns="http://www.w3.org/2000/svg">
<path d="M21 0.5H3C1.3125 0.5 0 1.85938 0 3.5V6.5C0 8.1875 1.3125 9.5 3 9.5H21C22.6406 9.5 24 8.1875 24 6.5V3.5C24 1.85938 22.6406 0.5 21 0.5ZM22.5 6.5C22.5 7.34375 21.7969 8 21 8H3C2.15625 8 1.5 7.34375 1.5 6.5V3.5C1.5 2.70312 2.15625 2 3 2H21C21.7969 2 22.5 2.70312 22.5 3.5V6.5ZM19.5 3.875C18.8438 3.875 18.375 4.39062 18.375 5C18.375 5.65625 18.8438 6.125 19.5 6.125C20.1094 6.125 20.625 5.65625 20.625 5C20.625 4.39062 20.1094 3.875 19.5 3.875ZM15 3.875C14.3438 3.875 13.875 4.39062 13.875 5C13.875 5.65625 14.3438 6.125 15 6.125C15.6094 6.125 16.125 5.65625 16.125 5C16.125 4.39062 15.6094 3.875 15 3.875ZM21 12.5H3C1.3125 12.5 0 13.8594 0 15.5V18.5C0 20.1875 1.3125 21.5 3 21.5H21C22.6406 21.5 24 20.1875 24 18.5V15.5C24 13.8594 22.6406 12.5 21 12.5ZM22.5 18.5C22.5 19.3438 21.7969 20 21 20H3C2.15625 20 1.5 19.3438 1.5 18.5V15.5C1.5 14.7031 2.15625 14 3 14H21C21.7969 14 22.5 14.7031 22.5 15.5V18.5ZM19.5 15.875C18.8438 15.875 18.375 16.3906 18.375 17C18.375 17.6562 18.8438 18.125 19.5 18.125C20.1094 18.125 20.625 17.6562 20.625 17C20.625 16.3906 20.1094 15.875 19.5 15.875ZM15 15.875C14.3438 15.875 13.875 16.3906 13.875 17C13.875 17.6562 14.3438 18.125 15 18.125C15.6094 18.125 16.125 17.6562 16.125 17C16.125 16.3906 15.6094 15.875 15 15.875Z" fill="#8181A5"/>
</svg>
