<svg width="42" height="45" viewBox="0 0 42 45" fill="none" xmlns="http://www.w3.org/2000/svg">
<rect y="0.0107422" width="42" height="44.3357" rx="4" fill="#1991EB"/>
<path d="M28.8841 13.3726H13.8841C12.4778 13.3726 11.3841 14.5054 11.3841 15.8726V18.3726C11.3841 19.7788 12.4778 20.8726 13.8841 20.8726H28.8841C30.2512 20.8726 31.3841 19.7788 31.3841 18.3726V15.8726C31.3841 14.5054 30.2512 13.3726 28.8841 13.3726ZM29.5091 18.3726C29.5091 18.7241 29.1966 18.9976 28.8841 18.9976H13.8841C13.5325 18.9976 13.2591 18.7241 13.2591 18.3726V15.8726C13.2591 15.5601 13.5325 15.2476 13.8841 15.2476H28.8841C29.1966 15.2476 29.5091 15.5601 29.5091 15.8726V18.3726ZM28.8841 23.3726H13.8841C12.4778 23.3726 11.3841 24.5054 11.3841 25.8726V28.3726C11.3841 29.7788 12.4778 30.8726 13.8841 30.8726H28.8841C30.2512 30.8726 31.3841 29.7788 31.3841 28.3726V25.8726C31.3841 24.5054 30.2512 23.3726 28.8841 23.3726ZM29.5091 28.3726C29.5091 28.7241 29.1966 28.9976 28.8841 28.9976H13.8841C13.5325 28.9976 13.2591 28.7241 13.2591 28.3726V25.8726C13.2591 25.5601 13.5325 25.2476 13.8841 25.2476H28.8841C29.1966 25.2476 29.5091 25.5601 29.5091 25.8726V28.3726ZM25.1341 16.1851C24.5872 16.1851 24.1966 16.6147 24.1966 17.1226C24.1966 17.6694 24.5872 18.0601 25.1341 18.0601C25.6419 18.0601 26.0716 17.6694 26.0716 17.1226C26.0716 16.6147 25.6419 16.1851 25.1341 16.1851ZM27.6341 16.1851C27.0872 16.1851 26.6966 16.6147 26.6966 17.1226C26.6966 17.6694 27.0872 18.0601 27.6341 18.0601C28.1419 18.0601 28.5716 17.6694 28.5716 17.1226C28.5716 16.6147 28.1419 16.1851 27.6341 16.1851ZM25.1341 26.1851C24.5872 26.1851 24.1966 26.6147 24.1966 27.1226C24.1966 27.6694 24.5872 28.0601 25.1341 28.0601C25.6419 28.0601 26.0716 27.6694 26.0716 27.1226C26.0716 26.6147 25.6419 26.1851 25.1341 26.1851ZM27.6341 26.1851C27.0872 26.1851 26.6966 26.6147 26.6966 27.1226C26.6966 27.6694 27.0872 28.0601 27.6341 28.0601C28.1419 28.0601 28.5716 27.6694 28.5716 27.1226C28.5716 26.6147 28.1419 26.1851 27.6341 26.1851Z" fill="white"/>
</svg>
