<svg width="38" height="38" viewBox="0 0 38 38" fill="none" xmlns="http://www.w3.org/2000/svg">
<rect width="38" height="38" fill="#888888"/>
<rect x="-4772" y="-3437" width="13423" height="19620" fill="#373737"/>
<rect x="-366" y="-21" width="1478" height="80" fill="white"/>
<rect x="-366" y="-21" width="1478" height="80" stroke="#EDEDF4"/>
<circle cx="19" cy="19" r="19" fill="#F5F5FA"/>
<path d="M16.375 18.4219C16.375 18.6133 16.5117 18.75 16.7031 18.75H17.7969C17.9609 18.75 18.125 18.6133 18.125 18.4219V17.3281C18.125 17.1641 17.9609 17 17.7969 17H16.7031C16.5117 17 16.375 17.1641 16.375 17.3281V18.4219ZM18.125 21.0469L18.125 19.9531C18.125 19.7891 17.9609 19.625 17.7969 19.625H16.7031C16.5117 19.625 16.375 19.7891 16.375 19.9531L16.375 21.0469C16.375 21.2383 16.5117 21.375 16.7031 21.375H17.7969C17.9609 21.375 18.125 21.2383 18.125 21.0469ZM16.7031 16.125H17.7969C17.9609 16.125 18.125 15.9883 18.125 15.7969V14.7031C18.125 14.5391 17.9609 14.375 17.7969 14.375H16.7031C16.5117 14.375 16.375 14.5391 16.375 14.7031V15.7969C16.375 15.9883 16.5117 16.125 16.7031 16.125ZM22.5 11.75L15.5 11.75C14.5156 11.75 13.75 12.543 13.75 13.5L13.75 25.0938C13.75 25.4766 14.0234 25.75 14.4063 25.75C14.7617 25.75 15.0625 25.4766 15.0625 25.0938L15.0625 13.5C15.0625 13.2812 15.2539 13.0625 15.5 13.0625L22.5 13.0625C22.7188 13.0625 22.9375 13.2812 22.9375 13.5L22.9375 25.0937C22.9375 25.4766 23.2109 25.75 23.5938 25.75C23.9492 25.75 24.25 25.4766 24.25 25.0937L24.25 13.5C24.25 12.543 23.457 11.75 22.5 11.75ZM21.2969 14.375H20.2031C20.0117 14.375 19.875 14.5391 19.875 14.7031V15.7969C19.875 15.9883 20.0117 16.125 20.2031 16.125L21.2969 16.125C21.4609 16.125 21.625 15.9883 21.625 15.7969V14.7031C21.625 14.5391 21.4609 14.375 21.2969 14.375ZM21.2969 17L20.2031 17C20.0117 17 19.875 17.1641 19.875 17.3281V18.4219C19.875 18.6133 20.0117 18.75 20.2031 18.75L21.2969 18.75C21.4609 18.75 21.625 18.6133 21.625 18.4219V17.3281C21.625 17.1641 21.4609 17 21.2969 17ZM21.2969 19.625L20.2031 19.625C20.0117 19.625 19.875 19.7891 19.875 19.9531L19.875 21.0469C19.875 21.2383 20.0117 21.375 20.2031 21.375L21.2969 21.375C21.4609 21.375 21.625 21.2383 21.625 21.0469L21.625 19.9531C21.625 19.7891 21.4609 19.625 21.2969 19.625ZM18.9727 22.2773C18.043 22.2773 17.6875 23.125 17.6875 23.6445V25.0937C17.6875 25.4766 17.9609 25.75 18.3438 25.75H19.6563C20.0117 25.75 20.3125 25.4766 20.3125 25.0937V23.6172C20.3125 22.8789 19.7109 22.25 18.9727 22.2773Z" fill="#8181A5"/>
</svg>
