<svg width="18" height="19" viewBox="0 0 18 19" fill="none" xmlns="http://www.w3.org/2000/svg">
<path d="M11.3906 3.90625L13.5 4.75L14.3438 6.85938C14.4141 6.96484 14.5195 7 14.625 7C14.7305 7 14.8008 6.96484 14.8711 6.85938L15.75 4.75L17.8242 3.90625C17.9297 3.83594 18 3.73047 18 3.625C18 3.51953 17.9297 3.44922 17.8242 3.37891L15.75 2.5L14.8711 0.425781C14.8008 0.320312 14.7305 0.25 14.625 0.25C14.5195 0.25 14.4141 0.320312 14.3438 0.425781L13.5 2.5L11.3906 3.37891C11.2852 3.44922 11.25 3.51953 11.25 3.625C11.25 3.73047 11.2852 3.83594 11.3906 3.90625ZM17.8242 14.6289L15.75 13.75L14.8711 11.6758C14.8008 11.5703 14.7305 11.5 14.625 11.5C14.5195 11.5 14.4141 11.5703 14.3438 11.6758L13.5 13.75L11.3906 14.6289C11.2852 14.6992 11.25 14.7695 11.25 14.875C11.25 14.9805 11.2852 15.0859 11.3906 15.1562L13.5 16L14.3438 18.1094C14.4141 18.2148 14.5195 18.25 14.625 18.25C14.7305 18.25 14.8008 18.2148 14.8711 18.1094L15.75 16L17.8242 15.1562C17.9297 15.0859 18 14.9805 18 14.875C18 14.7695 17.9297 14.6992 17.8242 14.6289ZM13.5 9.25C13.5 9.03906 13.3594 8.82812 13.1836 8.75781L9.21094 6.75391L7.24219 2.81641C7.03125 2.42969 6.43359 2.42969 6.22266 2.81641L4.25391 6.75391L0.28125 8.75781C0.105469 8.82812 0 9.03906 0 9.25C0 9.46094 0.105469 9.67188 0.28125 9.74219L4.25391 11.7461L6.22266 15.7188C6.32812 15.8945 6.50391 16 6.75 16C6.92578 16 7.13672 15.8945 7.24219 15.7188L9.21094 11.7461L13.1836 9.74219C13.3594 9.67188 13.5 9.46094 13.5 9.25Z" fill="#8181A5"/>
</svg>
