<svg width="104" height="104" viewBox="0 0 104 104" fill="none" xmlns="http://www.w3.org/2000/svg">
<mask id="path-1-inside-1" fill="white">
<path d="M52 0C60.4293 -3.68457e-07 68.7323 2.04919 76.1937 5.97104C83.6551 9.8929 90.0512 15.5698 94.8312 22.5129C99.6111 29.4559 102.632 37.4569 103.632 45.8266C104.633 54.1963 103.584 62.6838 100.576 70.5581C97.5674 78.4323 92.6899 85.4572 86.3635 91.0276C80.037 96.598 72.4512 100.547 64.2595 102.534C56.0677 104.521 47.5157 104.488 39.34 102.435C31.1643 100.383 23.6101 96.3742 17.328 90.7538L32.1874 74.145C35.7772 77.3567 40.0939 79.6475 44.7657 80.8202C49.4375 81.9929 54.3244 82.0123 59.0054 80.8767C63.6864 79.7411 68.0211 77.4846 71.6363 74.3015C75.2514 71.1184 78.0385 67.1042 79.7575 62.6046C81.4766 58.1051 82.076 53.255 81.5041 48.4723C80.9323 43.6897 79.2064 39.1177 76.475 35.1502C73.7436 31.1828 70.0886 27.9388 65.825 25.6977C61.5613 23.4567 56.8168 22.2857 52 22.2857L52 0Z"/>
</mask>
<path d="M52 0C60.4293 -3.68457e-07 68.7323 2.04919 76.1937 5.97104C83.6551 9.8929 90.0512 15.5698 94.8312 22.5129C99.6111 29.4559 102.632 37.4569 103.632 45.8266C104.633 54.1963 103.584 62.6838 100.576 70.5581C97.5674 78.4323 92.6899 85.4572 86.3635 91.0276C80.037 96.598 72.4512 100.547 64.2595 102.534C56.0677 104.521 47.5157 104.488 39.34 102.435C31.1643 100.383 23.6101 96.3742 17.328 90.7538L32.1874 74.145C35.7772 77.3567 40.0939 79.6475 44.7657 80.8202C49.4375 81.9929 54.3244 82.0123 59.0054 80.8767C63.6864 79.7411 68.0211 77.4846 71.6363 74.3015C75.2514 71.1184 78.0385 67.1042 79.7575 62.6046C81.4766 58.1051 82.076 53.255 81.5041 48.4723C80.9323 43.6897 79.2064 39.1177 76.475 35.1502C73.7436 31.1828 70.0886 27.9388 65.825 25.6977C61.5613 23.4567 56.8168 22.2857 52 22.2857L52 0Z" fill="#7CE7AC" stroke="white" stroke-width="4" mask="url(#path-1-inside-1)"/>
<mask id="path-2-inside-2" fill="white">
<path d="M17.328 90.7538C11.5653 85.598 7.02496 79.222 4.03758 72.0899C1.05019 64.9579 -0.309026 57.2494 0.0588986 49.5257C0.426823 41.8021 2.51263 34.2577 6.16443 27.4419C9.81623 20.6261 14.9421 14.7106 21.1688 10.1259L34.3822 28.072C30.8241 30.6917 27.895 34.0721 25.8082 37.9668C23.7215 41.8615 22.5296 46.1726 22.3194 50.5861C22.1091 54.9997 22.8858 59.4045 24.5929 63.48C26.3 67.5554 28.8945 71.1989 32.1874 74.145L17.328 90.7538Z"/>
</mask>
<path d="M17.328 90.7538C11.5653 85.598 7.02496 79.222 4.03758 72.0899C1.05019 64.9579 -0.309026 57.2494 0.0588986 49.5257C0.426823 41.8021 2.51263 34.2577 6.16443 27.4419C9.81623 20.6261 14.9421 14.7106 21.1688 10.1259L34.3822 28.072C30.8241 30.6917 27.895 34.0721 25.8082 37.9668C23.7215 41.8615 22.5296 46.1726 22.3194 50.5861C22.1091 54.9997 22.8858 59.4045 24.5929 63.48C26.3 67.5554 28.8945 71.1989 32.1874 74.145L17.328 90.7538Z" fill="#2D9CDB" stroke="white" stroke-width="4" mask="url(#path-2-inside-2)"/>
<mask id="path-3-inside-3" fill="white">
<path d="M21.1688 10.1259C30.1026 3.54815 40.9059 -1.32296e-07 52 0V22.2857C45.6605 22.2857 39.4872 24.3132 34.3822 28.072L21.1688 10.1259Z"/>
</mask>
<path d="M21.1688 10.1259C30.1026 3.54815 40.9059 -1.32296e-07 52 0V22.2857C45.6605 22.2857 39.4872 24.3132 34.3822 28.072L21.1688 10.1259Z" fill="#FFAA00" stroke="white" stroke-width="4" mask="url(#path-3-inside-3)"/>
<path d="M36.9599 58.0859C36.8666 58.0859 36.7826 58.0533 36.7079 57.9879C36.6426 57.9226 36.6099 57.8386 36.6099 57.7359V50.7779L34.5939 52.3459C34.5099 52.4019 34.4212 52.4253 34.3279 52.4159C34.2439 52.3973 34.1692 52.3459 34.1039 52.2619L33.4039 51.3379C33.3479 51.2539 33.3246 51.1653 33.3339 51.0719C33.3526 50.9786 33.4039 50.9039 33.4879 50.8479L36.6799 48.3839C36.7359 48.3466 36.7872 48.3233 36.8339 48.3139C36.8899 48.2953 36.9506 48.2859 37.0159 48.2859H38.4999C38.6026 48.2859 38.6866 48.3186 38.7519 48.3839C38.8172 48.4493 38.8499 48.5333 38.8499 48.6359V57.7359C38.8499 57.8386 38.8172 57.9226 38.7519 57.9879C38.6866 58.0533 38.6026 58.0859 38.4999 58.0859H36.9599ZM40.5925 59.1359C40.5085 59.1359 40.4431 59.1033 40.3965 59.0379C40.3498 58.9819 40.3311 58.9119 40.3405 58.8279L40.7325 56.2799C40.7511 56.1586 40.7978 56.0513 40.8725 55.9579C40.9471 55.8553 41.0591 55.8039 41.2085 55.8039H42.6785C42.7531 55.8039 42.8138 55.8319 42.8605 55.8879C42.9071 55.9439 42.9305 56.0046 42.9305 56.0699C42.9305 56.1353 42.9211 56.1959 42.9025 56.2519L41.9225 58.7579C41.8851 58.8513 41.8291 58.9353 41.7545 59.0099C41.6891 59.0939 41.5818 59.1359 41.4325 59.1359H40.5925ZM48.0635 58.2259C47.2515 58.2259 46.5422 58.0766 45.9355 57.7779C45.3289 57.4793 44.8575 57.0686 44.5215 56.5459C44.1949 56.0139 44.0315 55.4166 44.0315 54.7539C44.0315 54.4739 44.0735 54.1939 44.1575 53.9139C44.2415 53.6339 44.3442 53.3726 44.4655 53.1299C44.5869 52.8779 44.7082 52.6539 44.8295 52.4579C44.9602 52.2619 45.0675 52.1033 45.1515 51.9819L47.6715 48.5659C47.7089 48.5193 47.7649 48.4633 47.8395 48.3979C47.9235 48.3233 48.0309 48.2859 48.1615 48.2859H49.7435C49.8275 48.2859 49.8975 48.3186 49.9535 48.3839C50.0095 48.4399 50.0375 48.5099 50.0375 48.5939C50.0375 48.6313 50.0282 48.6686 50.0095 48.7059C50.0002 48.7339 49.9862 48.7573 49.9675 48.7759L48.0495 51.4219C48.1242 51.4033 48.2082 51.3893 48.3015 51.3799C48.3949 51.3706 48.4789 51.3659 48.5535 51.3659C49.0015 51.3753 49.4309 51.4686 49.8415 51.6459C50.2615 51.8139 50.6349 52.0473 50.9615 52.3459C51.2882 52.6353 51.5449 52.9806 51.7315 53.3819C51.9275 53.7833 52.0255 54.2313 52.0255 54.7259C52.0255 55.3513 51.8622 55.9299 51.5355 56.4619C51.2182 56.9939 50.7609 57.4233 50.1635 57.7499C49.5755 58.0673 48.8755 58.2259 48.0635 58.2259ZM48.0355 56.4059C48.3435 56.4059 48.6282 56.3453 48.8895 56.2239C49.1509 56.0933 49.3609 55.9066 49.5195 55.6639C49.6782 55.4119 49.7575 55.1086 49.7575 54.7539C49.7575 54.3899 49.6782 54.0866 49.5195 53.8439C49.3609 53.5919 49.1509 53.4053 48.8895 53.2839C48.6282 53.1533 48.3435 53.0879 48.0355 53.0879C47.7369 53.0879 47.4522 53.1533 47.1815 53.2839C46.9202 53.4053 46.7102 53.5919 46.5515 53.8439C46.4022 54.0866 46.3275 54.3899 46.3275 54.7539C46.3275 55.1086 46.4069 55.4119 46.5655 55.6639C46.7242 55.9066 46.9342 56.0933 47.1955 56.2239C47.4569 56.3453 47.7369 56.4059 48.0355 56.4059ZM56.8369 58.2399C55.9969 58.2399 55.2923 58.1046 54.7229 57.8339C54.1536 57.5633 53.7196 57.2086 53.4209 56.7699C53.1316 56.3313 52.9776 55.8646 52.9589 55.3699C52.9589 55.2859 52.9869 55.2159 53.0429 55.1599C53.0989 55.1039 53.1689 55.0759 53.2529 55.0759H54.8349C54.9563 55.0759 55.0496 55.0993 55.1149 55.1459C55.1896 55.1926 55.2409 55.2626 55.2689 55.3559C55.3623 55.5986 55.4836 55.8039 55.6329 55.9719C55.7916 56.1306 55.9736 56.2473 56.1789 56.3219C56.3843 56.3873 56.6083 56.4199 56.8509 56.4199C57.1496 56.4199 57.4203 56.3593 57.6629 56.2379C57.9149 56.1166 58.1156 55.9346 58.2649 55.6919C58.4143 55.4493 58.4889 55.1506 58.4889 54.7959C58.4889 54.4879 58.4189 54.2173 58.2789 53.9839C58.1389 53.7506 57.9429 53.5686 57.6909 53.4379C57.4483 53.3073 57.1683 53.2419 56.8509 53.2419C56.5989 53.2419 56.3936 53.2746 56.2349 53.3399C56.0856 53.3959 55.9596 53.4613 55.8569 53.5359C55.7543 53.6106 55.6609 53.6806 55.5769 53.7459C55.4929 53.8019 55.4043 53.8299 55.3109 53.8299H53.7429C53.6589 53.8299 53.5843 53.8019 53.5189 53.7459C53.4629 53.6806 53.4349 53.6059 53.4349 53.5219L53.9249 48.6919C53.9436 48.5613 53.9903 48.4633 54.0649 48.3979C54.1489 48.3233 54.2469 48.2859 54.3589 48.2859H59.7909C59.8936 48.2859 59.9776 48.3186 60.0429 48.3839C60.1083 48.4493 60.1409 48.5333 60.1409 48.6359V49.7559C60.1409 49.8586 60.1083 49.9426 60.0429 50.0079C59.9776 50.0733 59.8936 50.1059 59.7909 50.1059H55.7449L55.5489 52.1499C55.7263 52.0193 55.9549 51.9073 56.2349 51.8139C56.5149 51.7206 56.8976 51.6739 57.3829 51.6739C57.8309 51.6739 58.2556 51.7486 58.6569 51.8979C59.0676 52.0379 59.4316 52.2479 59.7489 52.5279C60.0756 52.8079 60.3276 53.1439 60.5049 53.5359C60.6916 53.9186 60.7849 54.3573 60.7849 54.8519C60.7849 55.5239 60.6216 56.1166 60.2949 56.6299C59.9776 57.1339 59.5249 57.5306 58.9369 57.8199C58.3489 58.0999 57.6489 58.2399 56.8369 58.2399ZM65.6963 58.2399C64.8563 58.2399 64.1516 58.1046 63.5823 57.8339C63.013 57.5633 62.579 57.2086 62.2803 56.7699C61.991 56.3313 61.837 55.8646 61.8183 55.3699C61.8183 55.2859 61.8463 55.2159 61.9023 55.1599C61.9583 55.1039 62.0283 55.0759 62.1123 55.0759H63.6943C63.8156 55.0759 63.909 55.0993 63.9743 55.1459C64.049 55.1926 64.1003 55.2626 64.1283 55.3559C64.2216 55.5986 64.343 55.8039 64.4923 55.9719C64.651 56.1306 64.833 56.2473 65.0383 56.3219C65.2436 56.3873 65.4676 56.4199 65.7103 56.4199C66.009 56.4199 66.2796 56.3593 66.5223 56.2379C66.7743 56.1166 66.975 55.9346 67.1243 55.6919C67.2736 55.4493 67.3483 55.1506 67.3483 54.7959C67.3483 54.4879 67.2783 54.2173 67.1383 53.9839C66.9983 53.7506 66.8023 53.5686 66.5503 53.4379C66.3076 53.3073 66.0276 53.2419 65.7103 53.2419C65.4583 53.2419 65.253 53.2746 65.0943 53.3399C64.945 53.3959 64.819 53.4613 64.7163 53.5359C64.6136 53.6106 64.5203 53.6806 64.4363 53.7459C64.3523 53.8019 64.2636 53.8299 64.1703 53.8299H62.6023C62.5183 53.8299 62.4436 53.8019 62.3783 53.7459C62.3223 53.6806 62.2943 53.6059 62.2943 53.5219L62.7843 48.6919C62.803 48.5613 62.8496 48.4633 62.9243 48.3979C63.0083 48.3233 63.1063 48.2859 63.2183 48.2859H68.6503C68.753 48.2859 68.837 48.3186 68.9023 48.3839C68.9676 48.4493 69.0003 48.5333 69.0003 48.6359V49.7559C69.0003 49.8586 68.9676 49.9426 68.9023 50.0079C68.837 50.0733 68.753 50.1059 68.6503 50.1059H64.6043L64.4083 52.1499C64.5856 52.0193 64.8143 51.9073 65.0943 51.8139C65.3743 51.7206 65.757 51.6739 66.2423 51.6739C66.6903 51.6739 67.115 51.7486 67.5163 51.8979C67.927 52.0379 68.291 52.2479 68.6083 52.5279C68.935 52.8079 69.187 53.1439 69.3643 53.5359C69.551 53.9186 69.6443 54.3573 69.6443 54.8519C69.6443 55.5239 69.481 56.1166 69.1543 56.6299C68.837 57.1339 68.3843 57.5306 67.7963 57.8199C67.2083 58.0999 66.5083 58.2399 65.6963 58.2399Z" fill="#8181A5"/>
</svg>
