<svg width="38" height="38" viewBox="0 0 38 38" fill="none" xmlns="http://www.w3.org/2000/svg">
<circle cx="19" cy="19" r="19" fill="#F5F5FA"/>
<path d="M25.75 12.5L12.25 12.5C10.9844 12.5 10 13.5195 10 14.75L10 23.75C10 25.0156 10.9844 26 12.25 26L25.75 26C26.9805 26 28 25.0156 28 23.75L28 14.75C28 13.5195 26.9805 12.5 25.75 12.5ZM12.25 13.625L25.75 13.625C26.3477 13.625 26.875 14.1523 26.875 14.75L26.875 16.0508L19.9844 21.1836C19.3867 21.6406 18.5781 21.6406 17.9805 21.1836L11.125 16.0508V14.75C11.125 14.1523 11.6172 13.625 12.25 13.625ZM26.875 23.75C26.875 24.3828 26.3477 24.875 25.75 24.875L12.25 24.875C11.6172 24.875 11.125 24.3828 11.125 23.75L11.125 17.4219L17.3125 22.0625C17.8047 22.4492 18.4023 22.625 19 22.625C19.5625 22.625 20.1602 22.4492 20.6875 22.0625L26.875 17.4219V23.75Z" fill="#8181A5"/>
</svg>
