<svg width="42" height="42" viewBox="0 0 42 42" fill="none" xmlns="http://www.w3.org/2000/svg">
<g opacity="0.1">
<rect width="42" height="42" rx="4" fill="#E7004C"/>
<rect width="42" height="42" rx="4" stroke="white"/>
</g>
<path d="M21 24C23.5391 24 25.6094 22.0859 25.9219 19.625H16.0391C16.3516 22.0859 18.4219 24 21 24ZM15.6875 18.375H26.3125C26.4688 18.375 26.625 18.2578 26.625 18.0625V16.8125C26.625 16.6562 26.4688 16.5 26.3125 16.5H26C26 14.7422 24.9453 13.1797 23.3047 12.4766L22.25 14.625V12.125C22.25 11.8125 21.9375 11.5 21.625 11.5H20.375C20.0234 11.5 19.75 11.8125 19.75 12.125V14.625L18.6562 12.4766C17.0156 13.1797 16 14.7422 16 16.5H15.6875C15.4922 16.5 15.375 16.6562 15.375 16.8125V18.0625C15.375 18.2578 15.4922 18.375 15.6875 18.375ZM24.5156 25.25H17.4453C14.5547 25.25 12.25 27.5938 12.25 30.4844C12.25 31.0703 12.6797 31.5 13.2656 31.5H28.6953C29.2812 31.5 29.75 31.0703 29.75 30.4844C29.75 27.5938 27.4062 25.25 24.5156 25.25Z" fill="#E7004C"/>
</svg>
