<svg width="180" height="180" viewBox="0 0 180 180" fill="none" xmlns="http://www.w3.org/2000/svg">
<g opacity="0.1">
<path d="M63 74.5C69.5625 74.5 75 69.1562 75 62.5V49L69 52L63 49L57 52L51 49V62.5C51 69.1562 56.3438 74.5 63 74.5ZM55.5 61H70.5V62.5C70.5 66.7188 67.125 70 63 70C58.7812 70 55.5 66.7188 55.5 62.5V61ZM67.6875 77.5H58.2188C49.2188 77.5 42 84.8125 42 93.8125C42 95.5938 43.4062 97 45.1875 97H80.7188C82.5 97 84 95.5938 84 93.8125C84 84.8125 76.6875 77.5 67.6875 77.5ZM93 62.5C93 56.7812 88.2188 52 82.5 52C80.8125 52 79.3125 52.4688 78 53.125V62.5C78 65.5 77.0625 68.125 75.6562 70.4688C77.4375 72.0625 79.875 73 82.5 73C88.2188 73 93 68.3125 93 62.5ZM86.9062 79H80.0625C84.2812 82.5625 87 87.9062 87 93.8125C87 95.0312 86.625 96.0625 86.0625 97H99C100.594 97 102 95.6875 102 94C102 85.75 95.25 79 86.9062 79Z" fill="#8181A5"/>
<path fill-rule="evenodd" clip-rule="evenodd" d="M71.7773 3.79111e-06C90.818 -0.00617418 109.075 7.53857 122.552 20.9804C136.012 34.4546 143.571 52.7146 143.571 71.7551C143.571 90.7956 136.012 109.056 122.552 122.53C109.076 135.973 90.816 143.518 71.7773 143.51C52.7386 143.502 34.4794 135.941 21.0192 122.482C7.55941 109.025 0 90.7792 0 71.7551C0 52.7311 7.559 34.4859 21.0192 21.0278C34.479 7.56967 52.7366 0.00618177 71.7773 3.79111e-06ZM12.0679 71.7881C12.0679 87.6099 18.3553 102.782 29.5534 113.971C40.7586 125.145 55.9434 131.419 71.7691 131.419C87.5948 131.419 102.779 125.145 113.985 113.971C125.183 102.783 131.47 87.6099 131.47 71.7881C131.47 55.9663 125.183 40.7944 113.985 29.6049C102.788 18.4233 87.603 12.1327 71.7691 12.1327C55.9351 12.1327 40.7516 18.4233 29.5534 29.6049C18.3553 40.7932 12.0679 55.9663 12.0679 71.7881ZM145.22 121.116L174.266 150.074L174.202 150.14C177.744 153.254 179.837 157.694 179.99 162.4C180.135 167.114 178.332 171.675 174.999 175.005C171.666 178.335 167.101 180.137 162.384 179.993C157.674 179.84 153.23 177.748 150.115 174.209L121.068 145.185C118.686 142.803 118.685 138.942 121.068 136.561C123.451 134.18 127.316 134.18 129.699 136.561L158.745 165.649C160.693 167.258 163.543 167.121 165.322 165.335C167.109 163.558 167.246 160.71 165.636 158.763L136.59 129.739C134.207 127.358 134.207 123.497 136.59 121.116C138.973 118.735 142.837 118.735 145.22 121.116Z" fill="#8181A5"/>
</g>
</svg>
