<svg width="18" height="19" viewBox="0 0 18 19" fill="none" xmlns="http://www.w3.org/2000/svg">
<path d="M17.0508 12.4141C16.6289 12.2383 16.1367 12.4492 15.9609 12.8711C15.8555 13.1523 15.8906 13.4688 16.0664 13.7148L8.96484 16.5625L1.89844 13.7148C2.07422 13.4688 2.10938 13.1523 2.00391 12.8711C1.82812 12.4492 1.33594 12.2383 0.914062 12.4141C0.351562 12.625 0 13.1875 0 13.75C0 14.3477 0.351562 14.875 0.914062 15.1211L8.33203 18.1445C8.54297 18.2148 8.75391 18.25 8.96484 18.25C9.21094 18.25 9.42188 18.2148 9.63281 18.1445L17.0508 15.1211C17.6133 14.875 18 14.3477 18 13.75C18 13.1875 17.6133 12.625 17.0508 12.4141ZM17.0508 7.91406L9.63281 4.89062C9.21094 4.71484 8.75391 4.71484 8.33203 4.89062L0.914062 7.91406C0.351562 8.125 0 8.6875 0 9.25C0 9.84766 0.351562 10.375 0.914062 10.6211L8.33203 13.6445C8.54297 13.7148 8.75391 13.75 8.96484 13.75C9.21094 13.75 9.42188 13.7148 9.63281 13.6445L17.0508 10.6211C17.6133 10.375 18 9.84766 18 9.25C18 8.6875 17.6133 8.125 17.0508 7.91406ZM8.96484 12.0625L2.07422 9.28516L9 6.47266L15.9258 9.25L8.96484 12.0625ZM13.2188 3.90625H14.3438V5.03125C14.3438 5.52344 14.6953 5.875 15.1875 5.875C15.6445 5.875 16.0312 5.52344 16.0312 5.03125V3.90625H17.1562C17.6133 3.90625 18 3.55469 18 3.0625C18 2.60547 17.6133 2.21875 17.1562 2.21875H16.0312V1.09375C16.0312 0.636719 15.6445 0.25 15.1875 0.25C14.6953 0.25 14.3438 0.636719 14.3438 1.09375V2.21875H13.2188C12.7266 2.21875 12.375 2.60547 12.375 3.0625C12.375 3.55469 12.7266 3.90625 13.2188 3.90625Z" fill="#8181A5"/>
</svg>
