<svg width="19" height="14" viewBox="0 0 19 14" fill="none" xmlns="http://www.w3.org/2000/svg">
<path d="M9.02325 3C6.8045 3 5.02325 4.8125 5.02325 7C5.02325 9.21875 6.8045 11 9.02325 11C11.2108 11 13.0233 9.21875 13.0233 7.03125V7C13.0233 4.8125 11.2108 3 9.02325 3ZM9.02325 10C7.367 10 6.02325 8.65625 6.02325 7C6.02325 5.375 7.367 4 9.02325 4C10.6483 4 12.0233 5.375 12.0233 7.03125C12.0233 8.65625 10.6483 10 9.02325 10ZM17.8983 6.46875C16.2108 2.625 12.8358 0 9.02325 0C5.1795 0 1.8045 2.625 0.117004 6.46875C0.0545044 6.625 0.0232544 6.875 0.0232544 7C0.0232544 7.15625 0.0545044 7.40625 0.117004 7.5625C1.8045 11.4062 5.1795 14 9.02325 14C12.8358 14 16.2108 11.4062 17.8983 7.5625C17.9608 7.40625 18.0233 7.15625 18.0233 7C18.0233 6.875 17.9608 6.625 17.8983 6.46875ZM16.992 7.15625C15.3983 10.7812 12.3358 13 9.02325 13C5.6795 13 2.617 10.7812 1.02325 7.15625C1.02325 7.125 1.02325 7.03125 0.992004 7.03125C1.02325 7 1.02325 6.90625 1.02325 6.875C2.617 3.25 5.6795 1 9.02325 1C12.3358 1 15.3983 3.25 16.992 6.875C16.992 6.90625 16.992 7 17.0233 7C16.992 7.03125 16.992 7.125 16.992 7.15625Z" fill="#8181A5"/>
</svg>
