<svg width="16" height="15" viewBox="0 0 16 15" fill="none" xmlns="http://www.w3.org/2000/svg">
<path d="M10.4688 6H12.4375C13.2812 6 13.9375 5.34375 13.9375 4.5V2.5C13.9375 1.6875 13.2812 1 12.4375 1H10.4688C9.625 1 8.96875 1.6875 8.96875 2.5V4.5C8.96875 5.34375 9.625 6 10.4688 6ZM9.96875 2.5C9.96875 2.25 10.1875 2 10.4688 2H12.4375C12.7188 2 12.9375 2.25 12.9375 2.5V4.5C12.9375 4.78125 12.7188 5 12.4375 5H10.4688C10.1875 5 9.96875 4.78125 9.96875 4.5V2.5ZM14.4688 8H10.4688C9.625 8 8.96875 8.6875 8.96875 9.5V13.5C8.96875 14.3438 9.625 15 10.4688 15H14.4688C15.2812 15 15.9688 14.3438 15.9688 13.5V9.5C15.9688 8.6875 15.2812 8 14.4688 8ZM14.9688 13.5C14.9688 13.7812 14.7188 14 14.4688 14H10.4688C10.1875 14 9.96875 13.7812 9.96875 13.5V9.5C9.96875 9.25 10.1875 9 10.4688 9H14.4688C14.7188 9 14.9688 9.25 14.9688 9.5V13.5ZM4.3125 1.15625C4.125 0.96875 3.78125 0.96875 3.59375 1.15625L0.59375 4.15625C0.40625 4.34375 0.40625 4.6875 0.59375 4.875C0.78125 5.0625 1.125 5.0625 1.3125 4.875L3.46875 2.71875V14.5C3.46875 14.7812 3.6875 15 3.96875 15C4.21875 15 4.46875 14.7812 4.46875 14.5V2.71875L6.59375 4.875C6.6875 4.96875 6.8125 5 6.96875 5C7.09375 5 7.21875 4.96875 7.3125 4.875C7.5 4.6875 7.5 4.34375 7.3125 4.15625L4.3125 1.15625Z" fill="#8181A5"/>
</svg>
