<svg width="42" height="42" viewBox="0 0 42 42" fill="none" xmlns="http://www.w3.org/2000/svg">
<rect width="42" height="42" rx="2" fill="#E2FFEE"/>
<rect width="42" height="42" rx="2" stroke="white"/>
<path d="M15 28.5V14C15 13.4688 14.5312 13 14 13C13.4375 13 13 13.4688 13 14V28.5C13 28.7812 13.2188 29 13.5 29H14.5C14.75 29 15 28.7812 15 28.5ZM25.2188 19.5L28.8125 15.25C29 15.0312 29.0312 14.7188 28.9062 14.4375C28.7812 14.1875 28.5312 14 28.2188 14H16V25H28.2188C28.5312 25 28.7812 24.8438 28.9062 24.5938C29.0312 24.3125 29 24 28.8125 23.7812L25.2188 19.5Z" fill="#27AE60"/>
</svg>
