<svg width="15" height="18" viewBox="0 0 15 18" fill="none" xmlns="http://www.w3.org/2000/svg">
<path d="M13.3069 1.1375C12.6968 1.21515 11.9257 1.33164 11.1048 1.33164C9.82348 1.33164 8.66419 1.01547 7.48826 0.765858C6.29568 0.510702 5.06428 0.25 3.76077 0.25C1.15929 0.25 0.277342 0.810232 0.188593 0.871248L0 1.00437V1.14859V10.1179V17.9999H0.887497V10.0513C1.22031 9.91262 2.09671 9.66856 3.76631 9.66856C4.97553 9.66856 6.10709 10.129 7.31076 10.3897C8.53106 10.6504 9.79575 10.9222 11.1658 10.9222C11.9812 10.9222 12.7023 10.8112 13.3125 10.7391C13.6453 10.7003 13.9392 10.6614 14.2 10.6171V1.91406V0.998826C13.9392 1.04875 13.6397 1.09312 13.3069 1.1375Z" fill="#5E81F4"/>
</svg>
