<svg width="25" height="24" viewBox="0 0 25 24" fill="none" xmlns="http://www.w3.org/2000/svg">
<path d="M24.6925 12.2753C24.6925 11.4595 24.6259 10.6394 24.4838 9.83691H13.084V14.4579H19.6121C19.3412 15.9482 18.4708 17.2666 17.1963 18.1044V21.1028H21.091C23.378 19.0127 24.6925 15.9262 24.6925 12.2753Z" fill="#4285F4"/>
<path d="M13.0845 23.9999C16.3441 23.9999 19.0931 22.9372 21.0959 21.1029L17.2012 18.1046C16.1176 18.8365 14.7188 19.251 13.0889 19.251C9.93589 19.251 7.26245 17.1389 6.30321 14.2993H2.28418V17.3903C4.33589 21.4424 8.51479 23.9999 13.0845 23.9999Z" fill="#34A853"/>
<path d="M6.29829 14.2992C5.79202 12.8089 5.79202 11.1951 6.29829 9.70471V6.61377H2.28369C0.569498 10.0045 0.569498 13.9994 2.28369 17.3902L6.29829 14.2992Z" fill="#FBBC04"/>
<path d="M13.0845 4.74868C14.8076 4.72223 16.4729 5.36599 17.7208 6.54769L21.1714 3.12164C18.9865 1.08453 16.0866 -0.0354426 13.0845 -0.000167897C8.51479 -0.000167897 4.33589 2.55725 2.28418 6.61383L6.29877 9.70477C7.25357 6.86075 9.93145 4.74868 13.0845 4.74868Z" fill="#EA4335"/>
</svg>
