<svg width="80" height="80" viewBox="0 0 80 80" fill="none" xmlns="http://www.w3.org/2000/svg">
<circle opacity="0.8" cx="40" cy="40" r="40" fill="#F5F5FA"/>
<path d="M27.3676 47C27.2609 47 27.1609 46.96 27.0676 46.88C26.9876 46.7867 26.9476 46.6867 26.9476 46.58C26.9476 46.5 26.9542 46.44 26.9676 46.4L31.6676 33.56C31.7076 33.4 31.7942 33.2667 31.9276 33.16C32.0609 33.0533 32.2342 33 32.4476 33H35.4076C35.6209 33 35.7942 33.0533 35.9276 33.16C36.0609 33.2667 36.1476 33.4 36.1876 33.56L40.8676 46.4L40.9076 46.58C40.9076 46.6867 40.8609 46.7867 40.7676 46.88C40.6876 46.96 40.5876 47 40.4676 47H38.0076C37.6876 47 37.4742 46.86 37.3676 46.58L36.5876 44.54H31.2476L30.4876 46.58C30.3809 46.86 30.1609 47 29.8276 47H27.3676ZM35.7876 41.66L33.9276 36.38L32.0676 41.66H35.7876ZM46.344 46.34C46.2107 46.34 46.0907 46.2933 45.984 46.2C45.8907 46.0933 45.844 45.9733 45.844 45.84V42.18H42.284C42.1373 42.18 42.0107 42.1333 41.904 42.04C41.8107 41.9467 41.764 41.8267 41.764 41.68V40.22C41.764 40.0733 41.8107 39.9533 41.904 39.86C42.0107 39.7533 42.1373 39.7 42.284 39.7H45.844V36.16C45.844 36.0133 45.8907 35.8933 45.984 35.8C46.0907 35.7067 46.2107 35.66 46.344 35.66H47.984C48.1307 35.66 48.2507 35.7067 48.344 35.8C48.4373 35.8933 48.484 36.0133 48.484 36.16V39.7H52.024C52.1707 39.7 52.2907 39.7533 52.384 39.86C52.4773 39.9533 52.524 40.0733 52.524 40.22V41.68C52.524 41.8267 52.4773 41.9467 52.384 42.04C52.2907 42.1333 52.1707 42.18 52.024 42.18H48.484V45.84C48.484 45.9733 48.4373 46.0933 48.344 46.2C48.2507 46.2933 48.1307 46.34 47.984 46.34H46.344Z" fill="#8181A5"/>
</svg>
