<svg width="26" height="19" viewBox="0 0 26 19" fill="none" xmlns="http://www.w3.org/2000/svg">
<path d="M24.8359 4.85156L13.8203 0.90625C13.5469 0.828125 13.2734 0.75 13 0.75C12.6875 0.75 12.4141 0.828125 12.1406 0.90625L1.125 4.85156C0.734375 5.00781 0.5 5.35938 0.5 5.75C0.5 6.17969 0.734375 6.53125 1.125 6.6875L3.46875 7.50781C3 8.13281 2.64844 8.83594 2.49219 9.61719C2.0625 9.8125 1.75 10.2422 1.75 10.75C1.75 11.1406 1.90625 11.4922 2.17969 11.7266L1.24219 17.5469C1.16406 17.9375 1.47656 18.25 1.82812 18.25H4.13281C4.52344 18.25 4.79688 17.9375 4.71875 17.5469L3.78125 11.7266C4.05469 11.4922 4.25 11.1406 4.25 10.75C4.25 10.3594 4.01562 10.0078 3.74219 9.8125C3.89844 9.10938 4.25 8.48438 4.71875 7.97656L12.1406 10.6328C12.4141 10.7109 12.6875 10.75 13 10.75C13.2734 10.75 13.5469 10.7109 13.8203 10.6328L24.8359 6.6875C25.2266 6.53125 25.5 6.17969 25.5 5.75C25.5 5.35938 25.2266 5.00781 24.8359 4.85156ZM13.1953 8.875C13 8.91406 12.8438 8.875 12.7656 8.875L7.33594 6.92188L13.1562 5.125C13.5078 5.00781 13.6641 4.65625 13.5859 4.34375C13.4688 3.99219 13.1172 3.79688 12.8047 3.91406L5.38281 6.21875L4.13281 5.75L12.7656 2.66406C12.9609 2.625 13.1172 2.66406 13.1953 2.66406L21.8281 5.75L13.1953 8.875ZM18.1562 10.3984L18.625 14.7734C18.625 15.2031 16.6719 16.375 13 16.375C9.28906 16.375 7.375 15.2031 7.375 14.7734L7.80469 10.3984L6.00781 9.77344L5.5 14.6953C5.5 17.0781 9.25 18.25 13 18.25C16.7109 18.25 20.5 17.0781 20.4609 14.6953L19.9531 9.77344L18.1562 10.3984Z" fill="white"/>
</svg>
