<svg width="18" height="18" viewBox="0 0 18 18" fill="none" xmlns="http://www.w3.org/2000/svg">
<path d="M9 12.0625C8.36719 12.0625 7.875 12.5547 7.875 13.1875C7.875 13.8203 8.36719 14.3125 9 14.3125C9.63281 14.3125 10.125 13.8203 10.125 13.1875C10.125 12.5547 9.63281 12.0625 9 12.0625ZM10.1953 4.75H8.36719C6.99609 4.75 5.90625 5.83984 5.90625 7.21094C5.90625 7.66797 6.29297 8.05469 6.75 8.05469C7.20703 8.05469 7.59375 7.66797 7.59375 7.21094C7.59375 6.78906 7.94531 6.4375 8.36719 6.4375H10.1953C10.6172 6.4375 10.9688 6.78906 10.9688 7.21094C10.9688 7.49219 10.8281 7.73828 10.582 7.87891L8.57812 9.07422C8.29688 9.25 8.15625 9.53125 8.15625 9.8125V10.375C8.15625 10.832 8.54297 11.2188 9 11.2188C9.45703 11.2188 9.84375 10.832 9.84375 10.375V10.3047L11.4609 9.32031C12.1992 8.86328 12.6562 8.05469 12.6562 7.21094C12.6562 5.83984 11.5664 4.75 10.1953 4.75ZM9 0.8125C4.32422 0.8125 0.5625 4.60938 0.5625 9.25C0.5625 13.9258 4.32422 17.6875 9 17.6875C13.6406 17.6875 17.4375 13.9258 17.4375 9.25C17.4375 4.60938 13.6406 0.8125 9 0.8125ZM9 16C5.27344 16 2.25 12.9766 2.25 9.25C2.25 5.55859 5.27344 2.5 9 2.5C12.6914 2.5 15.75 5.55859 15.75 9.25C15.75 12.9766 12.6914 16 9 16Z" fill="#8181A5"/>
</svg>
