<svg width="19" height="19" viewBox="0 0 19 19" fill="none" xmlns="http://www.w3.org/2000/svg">
<path d="M18.2949 6.08594C17.3672 5.34375 16.625 4.75 12.209 1.55859C11.5781 1.11328 10.3535 0 9.5 0V0.0371094C9.46289 0.0371094 9.46289 0 9.46289 0C8.60938 0 7.38477 1.11328 6.75391 1.55859C2.33789 4.75 1.5957 5.34375 0.667969 6.08594C0.222656 6.41992 0 6.93945 0 7.45898L0 17.2188C0 18.2207 0.779297 19 1.78125 19L17.2188 19C18.1836 19 19 18.2207 19 17.2187L19 7.45898C19 6.93945 18.7402 6.41992 18.2949 6.08594ZM17.8125 17.2187C17.8125 17.5527 17.5156 17.8125 17.2188 17.8125L1.78125 17.8125C1.44727 17.8125 1.1875 17.5527 1.1875 17.2188L1.1875 7.45898C1.1875 7.27344 1.26172 7.125 1.41016 7.01367C2.26367 6.30859 2.96875 5.75195 7.45898 2.52344C7.57031 2.44922 7.68164 2.33789 7.83008 2.22656C8.20117 1.9668 9.0918 1.22461 9.5 1.22461C9.87109 1.22461 10.7617 1.9668 11.1328 2.22656C11.2812 2.33789 11.3926 2.44922 11.5039 2.52344C15.9941 5.75195 16.6992 6.30859 17.5898 7.01367C17.7012 7.125 17.8125 7.27344 17.8125 7.45898L17.8125 17.2187ZM15.6602 9.64844L10.7246 13.248C9.98242 13.8047 8.98047 13.8047 8.23828 13.248L3.30273 9.64844C3.04297 9.42578 2.67188 9.5 2.48633 9.75977C2.26367 10.0195 2.33789 10.3906 2.59766 10.5762L7.5332 14.2129C8.08984 14.6211 8.75781 14.8437 9.5 14.8437C10.2051 14.8437 10.873 14.6211 11.4297 14.2129L16.3652 10.5762C16.625 10.3906 16.6992 10.0195 16.4766 9.75977C16.291 9.5 15.9199 9.42578 15.6602 9.64844Z" fill="#6FCF97"/>
</svg>
