<svg width="17" height="13" viewBox="0 0 17 13" fill="none" xmlns="http://www.w3.org/2000/svg">
<path d="M16.0239 4.04505C16.1483 3.94616 16.3333 4.03867 16.3333 4.19499V10.7188C16.3333 11.5641 15.6475 12.25 14.8021 12.25H1.53125C0.685872 12.25 0 11.5641 0 10.7188V4.19818C0 4.03867 0.181836 3.94935 0.30944 4.04824C1.02402 4.60332 1.97148 5.30833 5.22539 7.6722C5.8985 8.16348 7.03418 9.19707 8.16667 9.19069C9.30553 9.20026 10.4635 8.14434 11.1111 7.6722C14.365 5.30833 15.3093 4.60013 16.0239 4.04505ZM8.16667 8.16667C8.90677 8.17943 9.97227 7.23516 10.5082 6.84596C14.7415 3.77389 15.0637 3.50592 16.0398 2.7403C16.2249 2.59674 16.3333 2.37344 16.3333 2.13737V1.53125C16.3333 0.685872 15.6475 0 14.8021 0H1.53125C0.685872 0 0 0.685872 0 1.53125V2.13737C0 2.37344 0.108464 2.59355 0.29349 2.7403C1.26966 3.50273 1.59186 3.77389 5.82513 6.84596C6.36107 7.23516 7.42656 8.17943 8.16667 8.16667Z" fill="#979797"/>
</svg>
