<svg width="14" height="14" viewBox="0 0 14 14" fill="none" xmlns="http://www.w3.org/2000/svg">
<path opacity="0.5" d="M7 0.1875C3.36328 0.1875 0.4375 3.14062 0.4375 6.75C0.4375 10.3867 3.36328 13.3125 7 13.3125C10.6094 13.3125 13.5625 10.3867 13.5625 6.75C13.5625 3.14062 10.6094 0.1875 7 0.1875ZM7 3.25C7.46484 3.25 7.875 3.66016 7.875 4.125C7.875 4.61719 7.46484 5 7 5C6.50781 5 6.125 4.61719 6.125 4.125C6.125 3.66016 6.50781 3.25 7 3.25ZM8.09375 10.25H5.90625C5.52344 10.25 5.25 9.97656 5.25 9.59375C5.25 9.23828 5.52344 8.9375 5.90625 8.9375H6.34375V7.1875H6.125C5.74219 7.1875 5.46875 6.91406 5.46875 6.53125C5.46875 6.17578 5.74219 5.875 6.125 5.875H7C7.35547 5.875 7.65625 6.17578 7.65625 6.53125V8.9375H8.09375C8.44922 8.9375 8.75 9.23828 8.75 9.59375C8.75 9.97656 8.44922 10.25 8.09375 10.25Z" fill="#8181A5"/>
</svg>
