<svg width="14" height="19" viewBox="0 0 14 19" fill="none" xmlns="http://www.w3.org/2000/svg">
<path d="M13.6445 8.86328C13.5039 8.44141 13.082 8.16016 12.5898 8.16016H8.6875L11.3945 1.83203C11.6055 1.33984 11.4297 0.777344 11.0078 0.496094C10.5859 0.179688 10.0234 0.214844 9.60156 0.53125L0.601562 8.40625C0.25 8.72266 0.144531 9.21484 0.320312 9.67188C0.460938 10.0938 0.882812 10.4102 1.375 10.4102H5.27734L2.57031 16.7031C2.35938 17.1953 2.53516 17.7578 2.95703 18.0391C3.13281 18.1797 3.37891 18.25 3.625 18.25C3.87109 18.25 4.15234 18.1797 4.36328 18.0039L13.3633 10.1289C13.7148 9.8125 13.8203 9.32031 13.6445 8.86328ZM7.38672 5.48828L6.22656 8.16016H4.36328L7.38672 5.48828ZM6.57812 13.0469L7.73828 10.4102H9.60156L6.57812 13.0469Z" fill="#8181A5"/>
</svg>
