<svg width="23" height="20" viewBox="0 0 23 20" fill="none" xmlns="http://www.w3.org/2000/svg">
<path d="M21.8329 0.418485C21.788 0.329071 21.6983 0.239658 21.6534 0.194951C21.4738 0.0161248 21.2494 -0.0285819 21.0249 0.0161248C20.8454 0.0608314 20.6209 0.150245 20.5312 0.373778C19.3641 2.38558 17.2992 3.59266 14.8753 3.59266L11.778 3.59266C7.64834 3.59266 4.32664 6.94566 4.32664 11.1481C4.32664 11.3716 4.32664 11.6399 4.37153 11.9081C2.21691 13.7411 0.64583 16.2446 0.0173999 19.1506C-0.0723759 19.5529 0.196951 19.9106 0.556055 20C0.600942 20 0.64583 20 0.735606 20C1.04982 20 1.36404 19.7765 1.40892 19.4635C1.90269 17.1388 3.06978 15.0823 4.68574 13.5175C4.8204 13.9199 4.99996 14.2775 5.17951 14.6352C6.52614 17.0941 9.03987 18.6141 11.778 18.6141C12.0474 18.6141 12.3167 18.5694 12.5411 18.5694C18.601 18.1223 23 12.8469 23 6.00682C23 4.08443 22.5511 2.07263 21.8329 0.418485ZM12.4065 17.1388C12.2269 17.1388 12.0025 17.1835 11.778 17.1835C9.57852 17.1835 7.51368 15.9317 6.43637 13.9646C6.16704 13.4728 5.98749 12.9363 5.89771 12.4893C7.91767 10.9245 10.4763 10.0304 13.1696 10.0304L15.0997 10.0304C15.4588 10.0304 15.8179 9.67276 15.8179 9.31511C15.8179 8.91275 15.4588 8.5998 15.0997 8.5998L13.1696 8.5998C10.4763 8.5998 7.91767 9.40452 5.76305 10.7904C5.9426 7.61626 8.63587 5.02327 11.778 5.02327H14.8753C17.2992 5.02327 19.4987 3.99502 20.98 2.25146C21.3391 3.41383 21.5636 4.75503 21.5636 6.00682C21.5636 12.0869 17.7032 16.7364 12.4065 17.1388Z" fill="#6FCF97"/>
</svg>
