<svg width="16" height="14" viewBox="0 0 16 14" fill="none" xmlns="http://www.w3.org/2000/svg">
<path d="M14.2968 0.254543C14.1502 -0.0726785 13.7314 -0.0857673 13.556 0.223129C12.7445 1.63411 11.2916 2.51368 9.63196 2.51368H7.53774C4.76291 2.51368 2.51163 4.76496 2.51163 7.5398C2.51163 7.72304 2.53257 7.89843 2.55089 8.07644C4.22103 6.88012 6.632 5.86442 10.0508 5.86442C10.2812 5.86442 10.4696 6.0529 10.4696 6.28327C10.4696 6.51363 10.2812 6.70211 10.0508 6.70211C3.46973 6.70211 0.679188 10.7361 0.0613942 12.2518C-0.111379 12.6785 0.0928074 13.1654 0.519504 13.3408C0.948818 13.5188 1.43572 13.312 1.61373 12.8879C1.653 12.7937 2.16085 11.634 3.49591 10.5162C4.34407 11.6654 5.95661 12.7622 8.07439 12.5371C12.1843 12.2387 15.0769 8.55287 15.0769 4.03984C15.0769 2.72572 14.7942 1.36448 14.2968 0.254543Z" fill="#979797"/>
</svg>
