<svg width="14" height="13" viewBox="0 0 14 13" fill="none" xmlns="http://www.w3.org/2000/svg">
<path d="M13.2756 0.236361C13.1395 -0.0674872 12.7506 -0.0796411 12.5877 0.207192C11.8342 1.51739 10.4851 2.33413 8.94396 2.33413H6.99933C4.4227 2.33413 2.33222 4.42461 2.33222 7.00124C2.33222 7.17139 2.35167 7.33426 2.36869 7.49955C3.91953 6.38868 6.15828 5.44554 9.33289 5.44554C9.5468 5.44554 9.72182 5.62055 9.72182 5.83446C9.72182 6.04837 9.5468 6.22339 9.33289 6.22339C3.22189 6.22339 0.630674 9.96923 0.0570089 11.3767C-0.103423 11.7729 0.0861783 12.225 0.482396 12.3879C0.881045 12.5532 1.33317 12.3611 1.49847 11.9673C1.53493 11.8798 2.0065 10.803 3.2462 9.76504C4.03378 10.8322 5.53114 11.8507 7.49765 11.6416C11.314 11.3645 14 7.94195 14 3.75128C14 2.53102 13.7375 1.26701 13.2756 0.236361Z" fill="#6FCF97"/>
</svg>
