<svg width="14" height="19" viewBox="0 0 14 19" fill="none" xmlns="http://www.w3.org/2000/svg">
<path d="M7 0.25C3.23828 0.25 0.25 3.27344 0.25 7C0.25 9.74219 1.16406 10.5156 6.29687 17.8984C6.47266 18.1445 6.71875 18.25 7 18.25C7.24609 18.25 7.49219 18.1445 7.66797 17.8984C12.8008 10.5156 13.75 9.74219 13.75 7C13.75 3.27344 10.7266 0.25 7 0.25ZM7 16.9141C2.04297 9.8125 1.375 9.25 1.375 7C1.375 3.90625 3.87109 1.375 7 1.375C10.0938 1.375 12.625 3.90625 12.625 7C12.625 9.25 11.9219 9.77734 7 16.9141ZM7 4.1875C5.41797 4.1875 4.1875 5.45312 4.1875 7C4.1875 8.58203 5.41797 9.8125 7 9.8125C8.54688 9.8125 9.8125 8.58203 9.8125 7C9.8125 5.45312 8.54688 4.1875 7 4.1875ZM7 8.6875C6.05078 8.6875 5.3125 7.94922 5.3125 7C5.3125 6.08594 6.05078 5.3125 7 5.3125C7.91406 5.3125 8.6875 6.08594 8.6875 7C8.6875 7.94922 7.91406 8.6875 7 8.6875Z" fill="#8181A5"/>
</svg>
