<svg width="4" height="14" viewBox="0 0 4 14" fill="none" xmlns="http://www.w3.org/2000/svg">
<path d="M2 2.8125C2.71094 2.8125 3.3125 2.23828 3.3125 1.5C3.3125 0.789062 2.71094 0.1875 2 0.1875C1.26172 0.1875 0.6875 0.789062 0.6875 1.5C0.6875 2.23828 1.26172 2.8125 2 2.8125ZM2 10.6875C1.26172 10.6875 0.6875 11.2891 0.6875 12C0.6875 12.7383 1.26172 13.3125 2 13.3125C2.71094 13.3125 3.3125 12.7383 3.3125 12C3.3125 11.2891 2.71094 10.6875 2 10.6875ZM2 5.4375C1.26172 5.4375 0.6875 6.03906 0.6875 6.75C0.6875 7.48828 1.26172 8.0625 2 8.0625C2.71094 8.0625 3.3125 7.48828 3.3125 6.75C3.3125 6.03906 2.71094 5.4375 2 5.4375Z" fill="#C0C0CA"/>
</svg>
