<svg width="4" height="18" viewBox="0 0 4 18" fill="none" xmlns="http://www.w3.org/2000/svg">
<path d="M2 4.1875C2.91406 4.1875 3.6875 3.44922 3.6875 2.5C3.6875 1.58594 2.91406 0.8125 2 0.8125C1.05078 0.8125 0.3125 1.58594 0.3125 2.5C0.3125 3.44922 1.05078 4.1875 2 4.1875ZM2 14.3125C1.05078 14.3125 0.3125 15.0859 0.3125 16C0.3125 16.9492 1.05078 17.6875 2 17.6875C2.91406 17.6875 3.6875 16.9492 3.6875 16C3.6875 15.0859 2.91406 14.3125 2 14.3125ZM2 7.5625C1.05078 7.5625 0.3125 8.33594 0.3125 9.25C0.3125 10.1992 1.05078 10.9375 2 10.9375C2.91406 10.9375 3.6875 10.1992 3.6875 9.25C3.6875 8.33594 2.91406 7.5625 2 7.5625Z" fill="#8181A5"/>
</svg>
