<svg width="19" height="16" viewBox="0 0 19 16" fill="none" xmlns="http://www.w3.org/2000/svg">
<path d="M16.0239 4.04505C16.1483 3.94616 16.3333 4.03867 16.3333 4.19499V10.7188C16.3333 11.5641 15.6475 12.25 14.8021 12.25H1.53125C0.685872 12.25 0 11.5641 0 10.7188V4.19818C0 4.03867 0.181836 3.94935 0.30944 4.04824C1.02402 4.60332 1.97148 5.30833 5.22539 7.6722C5.8985 8.16348 7.03418 9.19707 8.16667 9.19069C9.30553 9.20026 10.4635 8.14434 11.1111 7.6722C14.365 5.30833 15.3093 4.60013 16.0239 4.04505ZM8.16667 8.16667C8.90677 8.17943 9.97227 7.23516 10.5082 6.84596C14.7415 3.77389 15.0637 3.50592 16.0398 2.7403C16.2249 2.59674 16.3333 2.37344 16.3333 2.13737V1.53125C16.3333 0.685872 15.6475 0 14.8021 0H1.53125C0.685872 0 0 0.685872 0 1.53125V2.13737C0 2.37344 0.108464 2.59355 0.29349 2.7403C1.26966 3.50273 1.59186 3.77389 5.82513 6.84596C6.36107 7.23516 7.42656 8.17943 8.16667 8.16667Z" fill="#6FCF97"/>
<circle cx="13.6155" cy="10.3848" r="5" fill="white"/>
<path d="M16.1905 9.01334L12.9405 12.2633C12.9071 12.2964 12.8675 12.3226 12.824 12.3404C12.7805 12.3582 12.7339 12.3672 12.6869 12.3669H12.6619C12.6107 12.3632 12.561 12.3485 12.516 12.3239C12.471 12.2992 12.4318 12.2652 12.4012 12.2241L11.0083 10.3848C10.9515 10.309 10.9271 10.2137 10.9405 10.12C10.9539 10.0262 11.004 9.9416 11.0798 9.88477C11.1555 9.82794 11.2508 9.80353 11.3446 9.81693C11.4383 9.83032 11.5229 9.88042 11.5798 9.9562L12.7262 11.4562L15.6833 8.49548C15.7506 8.42823 15.8418 8.39045 15.9369 8.39045C16.032 8.39045 16.1232 8.42823 16.1905 8.49548C16.2577 8.56273 16.2955 8.65395 16.2955 8.74905C16.2955 8.84416 16.2577 8.93537 16.1905 9.00262V9.01334ZM18.6155 10.3848C18.6155 9.39586 18.3222 8.42916 17.7728 7.60692C17.2234 6.78467 16.4425 6.14381 15.5289 5.76537C14.6153 5.38693 13.6099 5.28792 12.64 5.48084C11.6701 5.67377 10.7792 6.14997 10.0799 6.84923C9.38068 7.5485 8.90448 8.43941 8.71155 9.40932C8.51863 10.3792 8.61764 11.3846 8.99608 12.2982C9.37452 13.2118 10.0154 13.9927 10.8376 14.5421C11.6599 15.0915 12.6266 15.3848 13.6155 15.3848C14.9416 15.3848 16.2133 14.858 17.151 13.9203C18.0887 12.9826 18.6155 11.7108 18.6155 10.3848ZM17.9012 10.3848C17.9012 11.2324 17.6498 12.061 17.1789 12.7658C16.708 13.4706 16.0387 14.0199 15.2556 14.3442C14.4724 14.6686 13.6107 14.7535 12.7794 14.5881C11.948 14.4228 11.1844 14.0146 10.585 13.4152C9.98565 12.8159 9.57748 12.0522 9.41212 11.2209C9.24675 10.3895 9.33162 9.52781 9.656 8.7447C9.98037 7.96158 10.5297 7.29225 11.2345 6.82133C11.9392 6.35041 12.7678 6.09905 13.6155 6.09905C14.7521 6.09905 15.8422 6.55058 16.6459 7.35431C17.4497 8.15804 17.9012 9.24813 17.9012 10.3848Z" fill="#6FCF97"/>
</svg>
