<svg width="20" height="15" viewBox="0 0 20 15" fill="none" xmlns="http://www.w3.org/2000/svg">
<path d="M16.0239 4.04505C16.1483 3.94616 16.3333 4.03867 16.3333 4.19499V10.7188C16.3333 11.5641 15.6475 12.25 14.8021 12.25H1.53125C0.685872 12.25 0 11.5641 0 10.7188V4.19818C0 4.03867 0.181836 3.94935 0.30944 4.04824C1.02402 4.60332 1.97148 5.30833 5.22539 7.6722C5.8985 8.16348 7.03418 9.19707 8.16667 9.19069C9.30553 9.20026 10.4635 8.14434 11.1111 7.6722C14.365 5.30833 15.3093 4.60013 16.0239 4.04505ZM8.16667 8.16667C8.90677 8.17943 9.97227 7.23516 10.5082 6.84596C14.7415 3.77389 15.0637 3.50592 16.0398 2.7403C16.2249 2.59674 16.3333 2.37344 16.3333 2.13737V1.53125C16.3333 0.685872 15.6475 0 14.8021 0H1.53125C0.685872 0 0 0.685872 0 1.53125V2.13737C0 2.37344 0.108464 2.59355 0.29349 2.7403C1.26966 3.50273 1.59186 3.77389 5.82513 6.84596C6.36107 7.23516 7.42656 8.17943 8.16667 8.16667Z" fill="#1991EB"/>
<circle cx="14.9215" cy="9.92028" r="4.4691" fill="white"/>
<path d="M20 10C20 9.0111 19.7068 8.0444 19.1573 7.22215C18.6079 6.3999 17.827 5.75904 16.9134 5.3806C15.9998 5.00217 14.9945 4.90315 14.0245 5.09608C13.0546 5.289 12.1637 5.76521 11.4645 6.46447C10.7652 7.16373 10.289 8.05465 10.0961 9.02455C9.90315 9.99445 10.0022 10.9998 10.3806 11.9134C10.759 12.827 11.3999 13.6079 12.2222 14.1573C13.0444 14.7068 14.0111 15 15 15C16.3261 15 17.5979 14.4732 18.5355 13.5355C19.4732 12.5979 20 11.3261 20 10ZM19.2857 10C19.2857 10.8476 19.0344 11.6762 18.5634 12.381C18.0925 13.0858 17.4232 13.6351 16.6401 13.9595C15.857 14.2839 14.9952 14.3687 14.1639 14.2034C13.3326 14.038 12.5689 13.6298 11.9695 13.0305C11.3702 12.4311 10.962 11.6674 10.7966 10.8361C10.6313 10.0048 10.7161 9.14304 11.0405 8.35993C11.3649 7.57682 11.9142 6.90748 12.619 6.43656C13.3238 5.96564 14.1524 5.71429 15 5.71429C16.1366 5.71429 17.2267 6.16582 18.0305 6.96954C18.8342 7.77327 19.2857 8.86336 19.2857 10Z" fill="#1991EB"/>
<path d="M16.884 7.84681C16.8055 7.81878 16.7096 7.83747 16.6573 7.90288L16.2125 8.37009C15.8636 8.0337 15.4101 7.82812 14.9217 7.82812C14.0583 7.82812 13.2821 8.45419 13.0379 9.3419C13.0118 9.46338 13.0728 9.58485 13.1862 9.62223C13.2996 9.65026 13.4129 9.58485 13.4478 9.46338C13.631 8.7719 14.2415 8.27665 14.9217 8.27665C15.2968 8.27665 15.6456 8.4355 15.916 8.6878L15.4014 9.24846C15.3404 9.30453 15.3229 9.40731 15.3491 9.49141C15.384 9.57551 15.4625 9.62223 15.5497 9.62223H16.8055C16.9189 9.62223 17.0149 9.52879 17.0149 9.39797V8.05239C17.0149 7.96829 16.9625 7.88419 16.884 7.84681ZM16.6486 10.2296C16.5439 10.2016 16.4218 10.267 16.3956 10.3885C16.2038 11.0799 15.5933 11.5658 14.9217 11.5658C14.538 11.5658 14.1891 11.4163 13.9188 11.164L14.4333 10.6034C14.4944 10.5473 14.5118 10.4445 14.4857 10.3604C14.4508 10.2763 14.3723 10.2203 14.2938 10.2203H13.0379C12.9158 10.2203 12.8286 10.3231 12.8286 10.4445V11.7901C12.8286 11.8836 12.8722 11.9677 12.9507 12.005C12.9769 12.0144 13.003 12.0144 13.0379 12.0144C13.0903 12.0144 13.1426 11.9957 13.1775 11.949L13.6223 11.4817C13.9711 11.8181 14.4246 12.0144 14.9217 12.0144C15.7852 12.0144 16.5526 11.3976 16.7968 10.5099C16.823 10.3885 16.7619 10.267 16.6486 10.2296Z" fill="#1991EB"/>
</svg>
