<svg width="42" height="42" viewBox="0 0 42 42" fill="none" xmlns="http://www.w3.org/2000/svg">
<rect x="0.5" y="0.5" width="41" height="41" rx="3.5" fill="white"/>
<rect x="0.5" y="0.5" width="41" height="41" rx="3.5" fill="#2BAEF9" fill-opacity="0.15"/>
<rect x="0.5" y="0.5" width="41" height="41" rx="3.5" stroke="white"/>
<path d="M19.3828 23.5127H15.832C12.457 23.5127 9.75 26.2549 9.75 29.6299C9.75 30.2979 10.2773 30.8252 10.9453 30.8252H24.2695C24.9375 30.8252 25.5 30.2979 25.5 29.6299C25.5 26.2549 22.7578 23.5127 19.3828 23.5127ZM11.4375 29.1377C11.6836 26.958 13.5469 25.2002 15.832 25.2002H19.3828C21.668 25.2002 23.5312 26.958 23.7773 29.1377H11.4375ZM17.625 22.3877C20.0859 22.3877 22.125 20.3838 22.125 17.8877V12.8252L19.875 13.9502L17.625 12.8252L15.375 13.9502L13.125 12.8252V17.8877C13.125 20.3838 15.1289 22.3877 17.625 22.3877ZM14.8125 17.3252H20.4375V17.8877C20.4375 19.4697 19.1719 20.7002 17.625 20.7002C16.043 20.7002 14.8125 19.4697 14.8125 17.8877V17.3252ZM28.875 17.8877C28.875 15.7432 27.082 13.9502 24.9375 13.9502C24.3047 13.9502 23.7422 14.126 23.25 14.3721V17.8877C23.25 19.0127 22.8984 19.9971 22.3711 20.876C23.0391 21.4736 23.9531 21.8252 24.9375 21.8252C27.082 21.8252 28.875 20.0674 28.875 17.8877ZM26.5898 24.0752H24.0234C25.6055 25.4111 26.625 27.415 26.625 29.6299C26.625 30.0869 26.4844 30.4736 26.2734 30.8252H31.125C31.7227 30.8252 32.25 30.333 32.25 29.7002C32.25 26.6064 29.7188 24.0752 26.5898 24.0752Z" fill="#1991EB"/>
</svg>
