<svg width="43" height="43" viewBox="0 0 43 43" fill="none" xmlns="http://www.w3.org/2000/svg">
<rect x="0.5" y="0.5" width="42" height="42" rx="3.5" fill="white"/>
<rect x="0.5" y="0.5" width="42" height="42" rx="3.5" fill="#9698D6" fill-opacity="0.1"/>
<rect x="0.5" y="0.5" width="42" height="42" rx="3.5" stroke="white"/>
<path d="M19.8834 23.1523H16.3326C12.9576 23.1523 10.2506 25.8945 10.2506 29.2695C10.2506 29.9375 10.7779 30.4648 11.4459 30.4648H24.7701C25.4381 30.4648 26.0006 29.9375 26.0006 29.2695C26.0006 25.8945 23.2584 23.1523 19.8834 23.1523ZM11.9381 28.7773C12.1842 26.5977 14.0474 24.8398 16.3326 24.8398H19.8834C22.1685 24.8398 24.0318 26.5977 24.2779 28.7773H11.9381ZM18.1256 22.0273C20.5865 22.0273 22.6256 20.0234 22.6256 17.5273V12.4648L20.3756 13.5898L18.1256 12.4648L15.8756 13.5898L13.6256 12.4648V17.5273C13.6256 20.0234 15.6295 22.0273 18.1256 22.0273ZM15.3131 16.9648H20.9381V17.5273C20.9381 19.1094 19.6724 20.3398 18.1256 20.3398C16.5435 20.3398 15.3131 19.1094 15.3131 17.5273V16.9648ZM29.3756 17.5273C29.3756 15.3828 27.5826 13.5898 25.4381 13.5898C24.8052 13.5898 24.2427 13.7656 23.7506 14.0117V17.5273C23.7506 18.6523 23.399 19.6367 22.8717 20.5156C23.5396 21.1133 24.4537 21.4648 25.4381 21.4648C27.5826 21.4648 29.3756 19.707 29.3756 17.5273ZM27.0904 23.7148H24.524C26.106 25.0508 27.1256 27.0547 27.1256 29.2695C27.1256 29.7266 26.9849 30.1133 26.774 30.4648H31.6256C32.2232 30.4648 32.7506 29.9727 32.7506 29.3398C32.7506 26.2461 30.2193 23.7148 27.0904 23.7148Z" fill="#8181A5"/>
</svg>
