<svg width="21" height="19" viewBox="0 0 21 19" fill="none" xmlns="http://www.w3.org/2000/svg">
<path d="M19 8.125C18.6836 3.90625 15.3438 0.566406 11.125 0.25H11.0898C10.8086 0.25 10.5625 0.53125 10.5625 0.847656V8.6875H18.4023C18.7188 8.6875 19 8.44141 19 8.125ZM12.25 7V2.14844C14.6055 2.74609 16.5039 4.64453 17.1016 7H12.25ZM8.875 10.375V2.04297C8.875 1.72656 8.59375 1.48047 8.3125 1.48047C8.27734 1.48047 8.24219 1.48047 8.24219 1.48047C4.05859 2.07812 0.824219 5.73438 1 10.1289C1.14062 14.5938 4.97266 18.25 9.4375 18.25H9.54297C11.3008 18.25 12.9531 17.6875 14.2891 16.7031C14.5703 16.5273 14.5703 16.1055 14.3242 15.8594L8.875 10.375ZM9.50781 16.5625H9.4375C5.88672 16.5625 2.79297 13.6094 2.6875 10.0586C2.58203 7.07031 4.44531 4.43359 7.1875 3.48438V11.0781L7.67969 11.5703L12.1094 16.0352C11.3008 16.3867 10.4219 16.5625 9.50781 16.5625ZM19.5273 10.375H11.1953L16.75 15.9297C16.8555 16.0703 17.0312 16.1055 17.1719 16.1055C17.3125 16.1055 17.418 16.0703 17.5234 15.9648C18.8945 14.6992 19.8438 12.9766 20.0898 11.0078C20.1602 10.6914 19.8789 10.375 19.5273 10.375Z" fill="#8181A5"/>
</svg>
