<svg width="41" height="42" viewBox="0 0 41 42" fill="none" xmlns="http://www.w3.org/2000/svg">
<g opacity="0.1">
<rect width="40.69" height="42" rx="4" fill="#1991EB"/>
<rect width="40.69" height="42" rx="4" stroke="white"/>
</g>
<path d="M16.625 21.8125C19.0859 21.8125 21.125 19.8086 21.125 17.3125V12.25L18.875 13.375L16.625 12.25L14.375 13.375L12.125 12.25V17.3125C12.125 19.8086 14.1289 21.8125 16.625 21.8125ZM13.8125 16.75H19.4375V17.3125C19.4375 18.8945 18.1719 20.125 16.625 20.125C15.043 20.125 13.8125 18.8945 13.8125 17.3125V16.75ZM18.3828 22.9375H14.832C11.457 22.9375 8.75 25.6797 8.75 29.0547C8.75 29.7227 9.27734 30.25 9.94531 30.25H23.2695C23.9375 30.25 24.5 29.7227 24.5 29.0547C24.5 25.6797 21.7578 22.9375 18.3828 22.9375ZM27.875 17.3125C27.875 15.168 26.082 13.375 23.9375 13.375C23.3047 13.375 22.7422 13.5508 22.25 13.7969V17.3125C22.25 18.4375 21.8984 19.4219 21.3711 20.3008C22.0391 20.8984 22.9531 21.25 23.9375 21.25C26.082 21.25 27.875 19.4922 27.875 17.3125ZM25.5898 23.5H23.0234C24.6055 24.8359 25.625 26.8398 25.625 29.0547C25.625 29.5117 25.4844 29.8984 25.2734 30.25H30.125C30.7227 30.25 31.25 29.7578 31.25 29.125C31.25 26.0312 28.7188 23.5 25.5898 23.5Z" fill="#1991EB"/>
</svg>
