<svg width="42" height="42" viewBox="0 0 42 42" fill="none" xmlns="http://www.w3.org/2000/svg">
<rect x="0.5" y="0.5" width="41" height="41" rx="3.5" fill="white"/>
<rect x="0.5" y="0.5" width="41" height="41" rx="3.5" fill="#2BAEF9" fill-opacity="0.15"/>
<rect x="0.5" y="0.5" width="41" height="41" rx="3.5" stroke="white"/>
<path d="M19.3828 15.8125H15.832C12.457 15.8125 9.75 18.5547 9.75 21.9297C9.75 22.5977 10.2773 23.125 10.9453 23.125H24.2695C24.9375 23.125 25.5 22.5977 25.5 21.9297C25.5 18.5547 22.7578 15.8125 19.3828 15.8125ZM11.4375 21.4375C11.6836 19.2578 13.5469 17.5 15.832 17.5H19.3828C21.668 17.5 23.5312 19.2578 23.7773 21.4375H11.4375ZM17.625 14.6875C20.0859 14.6875 22.125 12.6836 22.125 10.1875V5.125L19.875 6.25L17.625 5.125L15.375 6.25L13.125 5.125V10.1875C13.125 12.6836 15.1289 14.6875 17.625 14.6875ZM14.8125 9.625H20.4375V10.1875C20.4375 11.7695 19.1719 13 17.625 13C16.043 13 14.8125 11.7695 14.8125 10.1875V9.625ZM28.875 10.1875C28.875 8.04297 27.082 6.25 24.9375 6.25C24.3047 6.25 23.7422 6.42578 23.25 6.67188V10.1875C23.25 11.3125 22.8984 12.2969 22.3711 13.1758C23.0391 13.7734 23.9531 14.125 24.9375 14.125C27.082 14.125 28.875 12.3672 28.875 10.1875ZM26.5898 16.375H24.0234C25.6055 17.7109 26.625 19.7148 26.625 21.9297C26.625 22.3867 26.4844 22.7734 26.2734 23.125H31.125C31.7227 23.125 32.25 22.6328 32.25 22C32.25 18.9062 29.7188 16.375 26.5898 16.375Z" fill="#1991EB"/>
</svg>
