<svg width="30" height="24" viewBox="0 0 30 24" fill="none" xmlns="http://www.w3.org/2000/svg">
<path d="M12.8438 14.25H8.10938C3.60938 14.25 0 17.9062 0 22.4062C0 23.2969 0.703125 24 1.59375 24H19.3594C20.25 24 21 23.2969 21 22.4062C21 17.9062 17.3438 14.25 12.8438 14.25ZM19.3594 22.5H1.59375C1.54688 22.5 1.5 22.4531 1.5 22.4062C1.5 18.75 4.45312 15.75 8.10938 15.75H12.8438C16.5 15.75 19.5 18.75 19.5 22.4062C19.5 22.4531 19.4062 22.5 19.3594 22.5ZM17.5781 11.2969C18.375 11.7656 19.3125 12 20.25 12C23.1094 12 25.5 9.65625 25.5 6.75C25.5 3.89062 23.1094 1.5 20.25 1.5C19.6406 1.5 19.0312 1.64062 18.4688 1.82812C18.0938 1.96875 17.8594 2.39062 18 2.76562C18.1406 3.1875 18.6094 3.375 18.9844 3.23438C19.3594 3.09375 19.7812 3 20.25 3C22.3125 3 24 4.6875 24 6.75C24 8.85938 22.3125 10.5 20.25 10.5C19.5469 10.5 18.9375 10.3594 18.375 10.0312C18 9.79688 17.5312 9.9375 17.3438 10.3125C17.1094 10.6406 17.25 11.1094 17.5781 11.2969ZM22.9688 15H21C20.5781 15 20.25 15.375 20.25 15.75C20.25 16.1719 20.5781 16.5 21 16.5H22.9688C26.0156 16.5 28.5 18.9844 28.5 22.0312C28.5 22.3125 28.2656 22.5 27.9844 22.5H23.25C22.8281 22.5 22.5 22.875 22.5 23.25C22.5 23.6719 22.8281 24 23.25 24H27.9844C29.0625 24 30 23.1094 30 22.0312C30 18.1406 26.8594 15 22.9688 15ZM10.5 12.75C13.7812 12.75 16.5 10.0781 16.5 6.75V1.125C16.5 0.609375 15.8906 0.234375 15.375 0.46875L13.5 1.45312L10.8281 0.09375C10.5938 0 10.3594 0 10.125 0.09375L7.5 1.45312L5.57812 0.46875C5.0625 0.234375 4.5 0.609375 4.5 1.125V6.75C4.5 10.0781 7.17188 12.75 10.5 12.75ZM6 2.34375L7.5 3.09375L10.5 1.59375L13.5 3.09375L15 2.34375V5.25H6V2.34375ZM15 6.75C15 9.23438 12.9375 11.25 10.5 11.25C8.01562 11.25 6 9.23438 6 6.75H15Z" fill="#8181A5"/>
</svg>
