<svg width="16" height="16" viewBox="0 0 16 16" fill="none" xmlns="http://www.w3.org/2000/svg">
<path d="M8 0.5C3.84375 0.5 0.5 3.875 0.5 8C0.5 12.1562 3.84375 15.5 8 15.5C12.125 15.5 15.5 12.1562 15.5 8C15.5 3.875 12.125 0.5 8 0.5ZM8 14C6.59375 14 5.34375 13.5312 4.3125 12.75C4.96875 12 5.90625 11.5 7 11.5H9C10.0625 11.5 11 12 11.625 12.75C10.625 13.5312 9.375 14 8 14ZM12.7188 11.6875C11.8125 10.6562 10.4688 10 9 10H7C5.5 10 4.15625 10.6562 3.25 11.6875C2.46875 10.6875 2 9.40625 2 8C2 4.71875 4.6875 2 8 2C11.2812 2 14 4.71875 14 8C14 9.40625 13.5 10.6875 12.7188 11.6875ZM8 3.5C6.46875 3.5 5.25 4.75 5.25 6.25C5.25 7.78125 6.46875 9 8 9C9.5 9 10.75 7.78125 10.75 6.25C10.75 4.75 9.5 3.5 8 3.5ZM8 7.5C7.28125 7.5 6.75 6.96875 6.75 6.25C6.75 5.5625 7.28125 5 8 5C8.6875 5 9.25 5.5625 9.25 6.25C9.25 6.96875 8.6875 7.5 8 7.5Z" fill="#8181A5"/>
</svg>
