<svg width="38" height="38" viewBox="0 0 38 38" fill="none" xmlns="http://www.w3.org/2000/svg">
<circle cx="19" cy="19" r="19" fill="#F5F5FA"/>
<path d="M14.2852 10.0352L10.9805 10.7734C10.2422 10.9492 9.75 11.582 9.75 12.3555C9.75 20.9688 16.7461 28 25.3594 28C26.1328 28 26.7656 27.4727 26.9062 26.7344L27.6797 23.4297C27.8555 22.6914 27.4688 21.918 26.7656 21.6016L23.1797 20.0898C22.5469 19.8086 21.7734 19.9844 21.3516 20.5117L20.1562 21.9531C18.3281 20.9336 16.7812 19.3867 15.7617 17.5586L17.168 16.3633C17.7305 15.9414 17.9062 15.168 17.6602 14.5352L16.1133 10.9492C15.7969 10.2461 15.0234 9.85938 14.2852 10.0352ZM14.5312 11.125C14.7773 11.0547 14.9883 11.1953 15.0938 11.4062L16.6055 14.957C16.6758 15.1328 16.6406 15.3789 16.4648 15.5195L14.707 16.9609C14.4961 17.1367 14.4258 17.418 14.5664 17.6289C15.7266 20.0195 17.6953 21.9883 20.0508 23.1484C20.2969 23.2891 20.5781 23.2188 20.7539 23.0078L22.1953 21.25C22.3359 21.0742 22.5469 21.0391 22.7578 21.1094L26.3086 22.6562C26.4844 22.7266 26.625 22.9023 26.625 23.0781C26.625 23.1133 26.5898 23.1484 26.5898 23.1836L25.8164 26.4883C25.7812 26.6992 25.6055 26.875 25.3594 26.875C17.3789 26.875 10.875 20.3359 10.875 12.3555C10.875 12.1094 11.0156 11.9336 11.2266 11.8984L14.5312 11.125Z" fill="#8181A5"/>
</svg>
