<svg width="20" height="15" viewBox="0 0 20 15" fill="none" xmlns="http://www.w3.org/2000/svg">
<path d="M0.508584 0.672938L3.35228 0.0167016C3.66125 -0.0543907 3.97844 0.106934 4.10421 0.396772L5.41669 3.45921C5.53153 3.72717 5.45497 4.04162 5.22802 4.22482L3.57102 5.58104C4.55538 7.67826 6.27526 9.42275 8.41623 10.4262L9.77246 8.76925C9.95839 8.5423 10.2701 8.46574 10.5381 8.58058L13.6005 9.89305C13.8931 10.0216 14.0544 10.3387 13.9833 10.6477L13.3271 13.4914C13.2587 13.7867 12.9962 14 12.6872 14C5.68465 14 0 8.32629 0 1.31277C0 1.00652 0.210544 0.741296 0.508584 0.672938Z" fill="#6FCF97"/>
<circle cx="15" cy="10" r="5" fill="white"/>
<path d="M17.575 8.62857L14.325 11.8786C14.2916 11.9117 14.2521 11.9379 14.2085 11.9556C14.165 11.9734 14.1184 11.9824 14.0714 11.9821H14.0464C13.9953 11.9785 13.9455 11.9638 13.9005 11.9391C13.8555 11.9145 13.8164 11.8804 13.7857 11.8393L12.3929 10C12.336 9.92423 12.3116 9.82898 12.325 9.73521C12.3384 9.64144 12.3885 9.55683 12.4643 9.5C12.5401 9.44317 12.6353 9.41877 12.7291 9.43216C12.8228 9.44556 12.9075 9.49565 12.9643 9.57143L14.1107 11.0714L17.0679 8.11072C17.1351 8.04346 17.2263 8.00568 17.3214 8.00568C17.4165 8.00568 17.5077 8.04346 17.575 8.11072C17.6423 8.17797 17.68 8.26918 17.68 8.36429C17.68 8.4594 17.6423 8.55061 17.575 8.61786V8.62857ZM20 10C20 9.0111 19.7068 8.0444 19.1573 7.22215C18.6079 6.3999 17.827 5.75904 16.9134 5.3806C15.9998 5.00217 14.9945 4.90315 14.0245 5.09608C13.0546 5.289 12.1637 5.76521 11.4645 6.46447C10.7652 7.16373 10.289 8.05465 10.0961 9.02455C9.90315 9.99445 10.0022 10.9998 10.3806 11.9134C10.759 12.827 11.3999 13.6079 12.2222 14.1573C13.0444 14.7068 14.0111 15 15 15C16.3261 15 17.5979 14.4732 18.5355 13.5355C19.4732 12.5979 20 11.3261 20 10ZM19.2857 10C19.2857 10.8476 19.0344 11.6762 18.5634 12.381C18.0925 13.0858 17.4232 13.6351 16.6401 13.9595C15.857 14.2839 14.9952 14.3687 14.1639 14.2034C13.3326 14.038 12.5689 13.6298 11.9695 13.0305C11.3702 12.4311 10.962 11.6674 10.7966 10.8361C10.6313 10.0048 10.7161 9.14304 11.0405 8.35993C11.3649 7.57682 11.9142 6.90748 12.619 6.43656C13.3238 5.96564 14.1524 5.71429 15 5.71429C16.1366 5.71429 17.2267 6.16582 18.0305 6.96954C18.8342 7.77327 19.2857 8.86336 19.2857 10Z" fill="#6FCF97"/>
</svg>
