<svg width="20" height="16" viewBox="0 0 20 16" fill="none" xmlns="http://www.w3.org/2000/svg">
<path d="M0.508584 0.672938L3.35228 0.0167016C3.66125 -0.0543907 3.97844 0.106934 4.10421 0.396772L5.41669 3.45921C5.53153 3.72717 5.45497 4.04162 5.22802 4.22482L3.57102 5.58104C4.55538 7.67826 6.27526 9.42275 8.41623 10.4262L9.77246 8.76925C9.95839 8.5423 10.2701 8.46574 10.5381 8.58058L13.6005 9.89305C13.8931 10.0216 14.0544 10.3387 13.9833 10.6477L13.3271 13.4914C13.2587 13.7867 12.9962 14 12.6872 14C5.68465 14 0 8.32629 0 1.31277C0 1.00652 0.210544 0.741296 0.508584 0.672938Z" fill="#FFA200"/>
<circle cx="15" cy="11" r="5" fill="white"/>
<path d="M15.0187 6C17.7528 6 20 8.24719 20 11.0187C20 13.7528 17.7528 16 15.0187 16C12.2472 16 10 13.7528 10 11.0187C10 8.24719 12.2472 6 15.0187 6ZM14.4944 8.28464C14.4944 7.79775 15.2434 7.79775 15.2434 8.28464V10.9438L16.9663 11.4307C17.4157 11.5805 17.2285 12.2921 16.7416 12.1798L14.794 11.5805C14.6067 11.5431 14.4944 11.3933 14.4944 11.206V8.28464ZM15.0187 6.74906C12.6592 6.74906 10.7491 8.65918 10.7491 11.0187C10.7491 13.3408 12.6592 15.2509 15.0187 15.2509C17.3408 15.2509 19.2509 13.3408 19.2509 11.0187C19.2509 8.65918 17.3408 6.74906 15.0187 6.74906Z" fill="#FFA200"/>
</svg>
