<svg width="19" height="19" viewBox="0 0 19 19" fill="none" xmlns="http://www.w3.org/2000/svg">
<path d="M4.7946 0.0445157L1.30086 0.823508C0.520344 1.00898 0 1.67669 0 2.49278C0 11.581 7.39632 19 16.5023 19C17.32 19 17.989 18.4436 18.1377 17.6646L18.9554 14.1777C19.1412 13.3987 18.7324 12.5826 17.989 12.2487L14.198 10.6537C13.529 10.3569 12.7113 10.5424 12.2653 11.0988L11.0016 12.6197C9.06886 11.5439 7.43349 9.91175 6.35563 7.98282L7.84233 6.72159C8.43701 6.27646 8.62285 5.46037 8.36268 4.79266L6.72731 1.00898C6.3928 0.267085 5.57512 -0.140959 4.7946 0.0445157ZM5.05477 1.19446C5.31495 1.12027 5.53795 1.26865 5.64945 1.49122L7.24765 5.2378C7.32199 5.42327 7.28482 5.68294 7.09898 5.83132L5.24061 7.35221C5.01761 7.53768 4.94327 7.83444 5.09194 8.05701C6.31847 10.5795 8.39984 12.6568 10.8901 13.8809C11.1502 14.0293 11.4476 13.9551 11.6334 13.7325L13.1573 11.8778C13.3059 11.6923 13.529 11.6552 13.752 11.7294L17.5059 13.3616C17.6917 13.4358 17.8404 13.6212 17.8404 13.8067C17.8404 13.8438 17.8032 13.8809 17.8032 13.918L16.9855 17.4049C16.9484 17.6275 16.7625 17.813 16.5023 17.813C8.06534 17.813 1.18936 10.9133 1.18936 2.49278C1.18936 2.23311 1.33803 2.04764 1.56103 2.01054L5.05477 1.19446Z" fill="#6FCF97"/>
</svg>
