<svg width="18" height="16" viewBox="0 0 18 16" fill="none" xmlns="http://www.w3.org/2000/svg">
<path d="M11 10H10C9.4375 10 9 10.4688 9 11V12C9 12.5625 9.4375 13 10 13H11C11.5312 13 12 12.5625 12 12V11C12 10.4688 11.5312 10 11 10ZM11 12H10V11H11V12ZM11 6H10C9.4375 6 9 6.46875 9 7V8C9 8.5625 9.4375 9 10 9H11C11.5312 9 12 8.5625 12 8V7C12 6.46875 11.5312 6 11 6ZM11 8H10V7H11V8ZM15 10H14C13.4375 10 13 10.4688 13 11V12C13 12.5625 13.4375 13 14 13H15C15.5312 13 16 12.5625 16 12V11C16 10.4688 15.5312 10 15 10ZM15 12H14V11H15V12ZM15 6H14C13.4375 6 13 6.46875 13 7V8C13 8.5625 13.4375 9 14 9H15C15.5312 9 16 8.5625 16 8V7C16 6.46875 15.5312 6 15 6ZM15 8H14V7H15V8ZM16 1H7.40625C7.1875 0.4375 6.625 0 6 0H4C3.34375 0 2.78125 0.4375 2.59375 1H2C0.875 1 0 1.90625 0 3L0 14C0 15.125 0.875 16 2 16H16C17.0938 16 18 15.125 18 14V3C18 1.90625 17.0938 1 16 1ZM10 2H15V4H10V2ZM3.5 1.5C3.5 1.25 3.71875 1 4 1H6C6.25 1 6.5 1.25 6.5 1.5V12C6.5 12.2812 6.25 12.5 6 12.5H4C3.71875 12.5 3.5 12.2812 3.5 12L3.5 1.5ZM17 14C17 14.5625 16.5312 15 16 15H2C1.4375 15 1 14.5625 1 14L1 3C1 2.46875 1.4375 2 2 2H2.5L2.5 12C2.5 12.8438 3.15625 13.5 4 13.5H6C6.8125 13.5 7.5 12.8438 7.5 12V2H9V4C9 4.5625 9.4375 5 10 5H15C15.5312 5 16 4.5625 16 4V2C16.5312 2 17 2.46875 17 3V14Z" fill="#8181A5"/>
</svg>
