<svg width="42" height="42" viewBox="0 0 42 42" fill="none" xmlns="http://www.w3.org/2000/svg">
<rect width="42" height="42" rx="4" fill="#E2FFEE"/>
<rect width="42" height="42" rx="4" stroke="white"/>
<path d="M17.375 12.6328C17.1641 12.1758 16.6367 11.8945 16.1445 12L12.5938 12.8438C12.0664 12.9492 11.7148 13.3711 11.7148 13.8984C11.7148 22.7578 18.957 30 27.8164 30C28.3438 30 28.7656 29.6484 28.8711 29.1211L29.7148 25.6055C29.8203 25.0781 29.5391 24.5508 29.082 24.3398L25.25 22.6875C24.793 22.5117 24.2656 22.6172 23.9844 23.0039L22.4023 24.9023C19.9766 23.707 18.0078 21.7383 16.8125 19.2773L18.7109 17.7305C19.0977 17.4492 19.2031 16.9219 19.0273 16.4648L17.375 12.6328Z" fill="#27AE60"/>
</svg>
