<svg width="32" height="32" viewBox="0 0 32 32" fill="none" xmlns="http://www.w3.org/2000/svg">
<path d="M10.4686 6.75503L22.6036 14.094C23.8906 14.872 23.8906 16.739 22.6036 17.517L10.4686 24.856C9.13559 25.662 7.43359 24.702 7.43359 23.145V8.46603C7.43359 6.90903 9.13559 5.94903 10.4686 6.75503Z" fill="#979797"/>
<path d="M10.4656 24.855L22.6006 17.516C23.8876 16.738 23.8876 14.871 22.6006 14.093L20.1436 12.607L20.0236 12.603L9.64062 25.118C9.93186 25.0933 10.2138 25.0034 10.4656 24.855Z" fill="#979797"/>
<path d="M7.43359 20.415V23.144C7.43359 24.702 9.13559 25.661 10.4686 24.855L22.6036 17.516C23.3686 17.054 23.6676 16.208 23.5226 15.434L7.43359 20.415Z" fill="#979797"/>
<path d="M8.51161 6.69995C8.18612 6.86575 7.91302 7.11862 7.7227 7.4304C7.53238 7.74219 7.4323 8.10067 7.43361 8.46595V11.032L8.51161 6.69995Z" fill="#979797"/>
<path d="M22.6026 14.094L10.4676 6.75497C10.2152 6.60626 9.93256 6.51604 9.64062 6.49097L20.0246 19.076L22.6036 17.517C23.8896 16.738 23.8896 14.872 22.6026 14.094Z" fill="#979797"/>
<path d="M15.6556 17.8691L9.64062 25.1191C9.91963 25.0901 10.1996 25.0161 10.4656 24.8561L22.6006 17.5171C23.3656 17.0551 23.6646 16.2091 23.5196 15.4351L15.6556 17.8691Z" fill="#979797"/>
<path d="M22.6027 14.094L20.1457 12.608L20.0257 12.604L17.3477 15.832L20.0247 19.076L22.6037 17.517C23.8897 16.738 23.8897 14.872 22.6027 14.094Z" fill="#979797"/>
<path d="M18.3438 17.037L20.0258 19.075L22.6048 17.516C23.3698 17.054 23.6688 16.208 23.5238 15.434L18.3438 17.037Z" fill="#979797"/>
</svg>
