<svg width="16" height="15" viewBox="0 0 16 15" fill="none" xmlns="http://www.w3.org/2000/svg">
<path d="M15.0249 7.36523C15.0249 6.5918 14.3921 5.95898 13.6187 5.95898H9.11869V1.45898C9.11869 0.685547 8.48588 0.0527344 7.71244 0.0527344C6.90385 0.0527344 6.30619 0.685547 6.30619 1.45898V5.95898H1.80619C0.997597 5.95898 0.39994 6.5918 0.39994 7.36523C0.39994 8.17383 0.997597 8.77148 1.80619 8.77148H6.30619V13.2715C6.30619 14.0801 6.90385 14.6777 7.71244 14.6777C8.48588 14.6777 9.11869 14.0801 9.11869 13.2715V8.77148H13.6187C14.3921 8.77148 15.0249 8.17383 15.0249 7.36523Z" fill="white"/>
</svg>
