<svg width="18" height="18" viewBox="0 0 18 18" fill="none" xmlns="http://www.w3.org/2000/svg">
<path d="M8.96768 0.8125C4.29189 0.8125 0.530176 4.60938 0.530176 9.25C0.530176 13.9258 4.29189 17.6875 8.96768 17.6875C13.6083 17.6875 17.4052 13.9258 17.4052 9.25C17.4052 4.60938 13.6083 0.8125 8.96768 0.8125ZM12.3427 10.0938H9.81143V12.625C9.81143 13.1172 9.42471 13.4688 8.96768 13.4688C8.47549 13.4688 8.12393 13.1172 8.12393 12.625V10.0938H5.59268C5.10049 10.0938 4.74893 9.74219 4.74893 9.25C4.74893 8.79297 5.10049 8.40625 5.59268 8.40625H8.12393V5.875C8.12393 5.41797 8.47549 5.03125 8.96768 5.03125C9.42471 5.03125 9.81143 5.41797 9.81143 5.875V8.40625H12.3427C12.7997 8.40625 13.1864 8.79297 13.1864 9.25C13.1864 9.74219 12.7997 10.0938 12.3427 10.0938Z" fill="#C0C0CA"/>
</svg>
