<svg width="18" height="14" viewBox="0 0 18 14" fill="none" xmlns="http://www.w3.org/2000/svg">
<path d="M13.8579 2.63623H7.36067C7.20907 2.63623 7.06368 2.69645 6.95648 2.80365C6.84929 2.91085 6.78906 3.05624 6.78906 3.20784V6.16114C6.78906 6.31274 6.84929 6.45813 6.95648 6.56532C7.06368 6.67252 7.20907 6.73274 7.36067 6.73274H13.8579C14.0095 6.73274 14.1549 6.67252 14.2621 6.56532C14.3693 6.45813 14.4295 6.31274 14.4295 6.16114V3.20784C14.4295 3.05624 14.3693 2.91085 14.2621 2.80365C14.1549 2.69645 14.0095 2.63623 13.8579 2.63623ZM13.2863 5.60858H7.93228V3.77944H13.2863V5.60858Z" fill="#8181A5"/>
<path d="M17.23 1.75974C17.23 1.30494 17.0493 0.868772 16.7277 0.547181C16.4061 0.22559 15.97 0.0449219 15.5152 0.0449219H5.70257C5.24778 0.0449219 4.8116 0.22559 4.49001 0.547181C4.16842 0.868772 3.98775 1.30494 3.98775 1.75974V2.8839H2.25388C1.79908 2.8839 1.36291 3.06457 1.04132 3.38616C0.71973 3.70775 0.539063 4.14392 0.539062 4.59872V11.6676C0.539063 12.274 0.779953 12.8555 1.20874 13.2843C1.63753 13.7131 2.21909 13.954 2.82549 13.954H14.5053C15.2279 13.954 15.921 13.667 16.4319 13.156C16.9429 12.645 17.23 11.952 17.23 11.2294V1.75974ZM3.98775 11.6676C3.98775 11.9733 3.86631 12.2665 3.65013 12.4827C3.43394 12.6989 3.14074 12.8203 2.83502 12.8203C2.52929 12.8203 2.23609 12.6989 2.01991 12.4827C1.80372 12.2665 1.68228 11.9733 1.68228 11.6676V4.59872C1.68228 4.44712 1.7425 4.30173 1.8497 4.19453C1.95689 4.08734 2.10228 4.02711 2.25388 4.02711H3.98775V11.6676ZM16.1058 11.2294C16.1058 11.6488 15.9392 12.051 15.6426 12.3476C15.346 12.6442 14.9438 12.8108 14.5244 12.8108H4.80706C5.00722 12.4631 5.11236 12.0688 5.11191 11.6676V1.75974C5.11191 1.60814 5.17214 1.46275 5.27933 1.35555C5.38653 1.24836 5.53192 1.18813 5.68352 1.18813H15.5152C15.6668 1.18813 15.8121 1.24836 15.9193 1.35555C16.0265 1.46275 16.0868 1.60814 16.0868 1.75974L16.1058 11.2294Z" fill="#8181A5"/>
<path d="M13.8579 7.87488H7.36067C7.20907 7.87488 7.06368 7.9351 6.95648 8.0423C6.84929 8.14949 6.78906 8.29488 6.78906 8.44648C6.78906 8.59808 6.84929 8.74347 6.95648 8.85067C7.06368 8.95787 7.20907 9.01809 7.36067 9.01809H13.8579C14.0095 9.01809 14.1549 8.95787 14.2621 8.85067C14.3693 8.74347 14.4295 8.59808 14.4295 8.44648C14.4295 8.29488 14.3693 8.14949 14.2621 8.0423C14.1549 7.9351 14.0095 7.87488 13.8579 7.87488Z" fill="#8181A5"/>
<path d="M13.8579 10.1613H7.36067C7.20907 10.1613 7.06368 10.2215 6.95648 10.3287C6.84929 10.4359 6.78906 10.5813 6.78906 10.7329C6.78906 10.8845 6.84929 11.0299 6.95648 11.137C7.06368 11.2442 7.20907 11.3045 7.36067 11.3045H13.8579C14.0095 11.3045 14.1549 11.2442 14.2621 11.137C14.3693 11.0299 14.4295 10.8845 14.4295 10.7329C14.4295 10.5813 14.3693 10.4359 14.2621 10.3287C14.1549 10.2215 14.0095 10.1613 13.8579 10.1613Z" fill="#8181A5"/>
</svg>
