<svg width="30" height="31" viewBox="0 0 30 31" fill="none" xmlns="http://www.w3.org/2000/svg">
<path d="M15 0.529297C6.6875 0.529297 0 7.2793 0 15.5293C0 23.8418 6.6875 30.5293 15 30.5293C23.25 30.5293 30 23.8418 30 15.5293C30 7.2793 23.25 0.529297 15 0.529297ZM15 24.5293C13.875 24.5293 13 23.6543 13 22.5293C13 21.4043 13.875 20.5293 15 20.5293C16.125 20.5293 17 21.4043 17 22.5293C17 23.6543 16.125 24.5293 15 24.5293ZM19.375 15.6543L16.5 17.4043V17.5293C16.5 18.3418 15.8125 19.0293 15 19.0293C14.1875 19.0293 13.5 18.3418 13.5 17.5293V16.5293C13.5 16.0293 13.75 15.5293 14.25 15.2168L17.8125 13.0918C18.25 12.8418 18.5 12.4043 18.5 11.9043C18.5 11.1543 17.875 10.5293 17.125 10.5293H13.875C13.125 10.5293 12.5 11.1543 12.5 11.9043C12.5 12.7168 11.8125 13.4043 11 13.4043C10.1875 13.4043 9.5 12.7168 9.5 11.9043C9.5 9.4668 11.4375 7.5293 13.875 7.5293H17.125C19.5625 7.5293 21.5 9.4668 21.5 11.9043C21.5 13.4043 20.6875 14.8418 19.375 15.6543Z" fill="#8181A5"/>
</svg>
