<svg width="16" height="16" viewBox="0 0 16 16" fill="none" xmlns="http://www.w3.org/2000/svg">
<path d="M8 10.5C7.4375 10.5 7 10.9375 7 11.5C7 12.0625 7.4375 12.5 8 12.5C8.5625 12.5 9 12.0625 9 11.5C9 10.9375 8.5625 10.5 8 10.5ZM9.0625 4H7.4375C6.21875 4 5.25 4.96875 5.25 6.1875C5.25 6.59375 5.59375 6.9375 6 6.9375C6.40625 6.9375 6.75 6.59375 6.75 6.1875C6.75 5.8125 7.0625 5.5 7.4375 5.5H9.0625C9.4375 5.5 9.75 5.8125 9.75 6.1875C9.75 6.4375 9.625 6.65625 9.40625 6.78125L7.625 7.84375C7.375 8 7.25 8.25 7.25 8.5V9C7.25 9.40625 7.59375 9.75 8 9.75C8.40625 9.75 8.75 9.40625 8.75 9V8.9375L10.1875 8.0625C10.8438 7.65625 11.25 6.9375 11.25 6.1875C11.25 4.96875 10.2812 4 9.0625 4ZM8 0.5C3.84375 0.5 0.5 3.875 0.5 8C0.5 12.1562 3.84375 15.5 8 15.5C12.125 15.5 15.5 12.1562 15.5 8C15.5 3.875 12.125 0.5 8 0.5ZM8 14C4.6875 14 2 11.3125 2 8C2 4.71875 4.6875 2 8 2C11.2812 2 14 4.71875 14 8C14 11.3125 11.2812 14 8 14Z" fill="#8181A5"/>
</svg>
