<svg width="23" height="15" viewBox="0 0 23 15" fill="none" xmlns="http://www.w3.org/2000/svg">
<path d="M12 11.1875H5.8125V3.38281L8.0625 5.59766C8.20312 5.77344 8.41406 5.84375 8.625 5.84375C8.87109 5.84375 9.08203 5.77344 9.22266 5.59766C9.57422 5.28125 9.57422 4.75391 9.22266 4.4375L5.56641 0.78125C5.25 0.429688 4.72266 0.429688 4.40625 0.78125L0.75 4.4375C0.398438 4.75391 0.398438 5.28125 0.75 5.59766C1.06641 5.94922 1.59375 5.94922 1.91016 5.59766L4.125 3.38281V12.0312C4.125 12.5234 4.51172 12.875 4.96875 12.875H12C12.4922 12.875 12.8438 12.5234 12.8438 12.0312C12.8438 11.5742 12.4922 11.1875 12 11.1875ZM22.7227 8.9375C22.4062 8.58594 21.8789 8.58594 21.5625 8.9375L19.3125 11.1523V2.46875C19.3125 2.01172 18.9609 1.625 18.4688 1.625H11.4375C10.9805 1.625 10.5938 2.01172 10.5938 2.46875C10.5938 2.96094 10.9805 3.3125 11.4375 3.3125H17.625V11.1523L15.4102 8.9375C15.2695 8.76172 15.0586 8.65625 14.8125 8.65625C14.6016 8.65625 14.3906 8.76172 14.25 8.9375C13.8984 9.25391 13.8984 9.78125 14.25 10.0977L17.9062 13.7539C18.2227 14.1055 18.75 14.1055 19.0664 13.7539L22.7227 10.0977C23.0742 9.78125 23.0742 9.25391 22.7227 8.9375Z" fill="#8181A5"/>
</svg>
