<svg width="46" height="46" viewBox="0 0 46 46" fill="none" xmlns="http://www.w3.org/2000/svg">
<path d="M20.375 12.875C20 12.6875 19.625 12.5938 19.25 12.5938C17.9375 12.5938 17 13.625 17 14.8438V31.3438C17 32.4688 17.9375 33.5938 19.25 33.5938C19.625 33.5938 20 33.4062 20.375 33.2188L33.875 24.9688C34.5312 24.5938 35 23.8438 35 23.0938C35 22.25 34.5312 21.5 33.875 21.125L20.375 12.875ZM23 0.5C10.5312 0.5 0.5 10.625 0.5 23C0.5 35.4688 10.5312 45.5 23 45.5C35.375 45.5 45.5 35.4688 45.5 23C45.5 10.625 35.375 0.5 23 0.5ZM23 41C13.0625 41 5 32.9375 5 23C5 13.1562 13.0625 5 23 5C32.8438 5 41 13.1562 41 23C41 32.9375 32.8438 41 23 41Z" fill="#F5F5FA"/>
</svg>
