<svg width="14" height="16" viewBox="0 0 14 16" fill="none" xmlns="http://www.w3.org/2000/svg">
<path d="M13.7188 11.3438C13.125 10.6875 11.9688 9.71875 11.9688 6.5C11.9688 4.09375 10.2812 2.15625 8 1.65625V1C8 0.46875 7.53125 0 7 0C6.4375 0 6 0.46875 6 1V1.65625C3.6875 2.15625 2 4.09375 2 6.5C2 9.71875 0.84375 10.6875 0.25 11.3438C0.0625 11.5312 0 11.7812 0 12C0 12.5312 0.40625 13 1 13H12.9688C13.5938 13 13.9688 12.5312 14 12C14 11.7812 13.9062 11.5312 13.7188 11.3438ZM2.09375 11.5C2.75 10.625 3.5 9.1875 3.5 6.53125V6.5C3.5 4.59375 5.0625 3 7 3C8.90625 3 10.5 4.59375 10.5 6.5V6.53125C10.5 9.1875 11.2188 10.625 11.875 11.5H2.09375ZM7 16C8.09375 16 9 15.125 9 14H5C5 15.125 5.875 16 7 16Z" fill="#8181A5"/>
</svg>
