<svg width="14" height="13" viewBox="0 0 14 13" fill="none" xmlns="http://www.w3.org/2000/svg">
<path d="M12.7148 3.30469L10.4453 1.03516C10.2266 0.816406 9.81641 0.625 9.51562 0.625H2.625C1.64062 0.625 0.875 1.41797 0.875 2.375V11.125C0.875 12.1094 1.64062 12.875 2.625 12.875H11.375C12.332 12.875 13.125 12.1094 13.125 11.125V4.23438C13.125 3.93359 12.9336 3.52344 12.7148 3.30469ZM7 11.125C6.01562 11.125 5.25 10.3594 5.25 9.375C5.25 8.41797 6.01562 7.625 7 7.625C7.95703 7.625 8.75 8.41797 8.75 9.375C8.75 10.3594 7.95703 11.125 7 11.125ZM9.625 5.4375C9.625 5.68359 9.40625 5.875 9.1875 5.875H3.0625C2.81641 5.875 2.625 5.68359 2.625 5.4375V2.8125C2.625 2.59375 2.81641 2.375 3.0625 2.375H9.1875C9.40625 2.375 9.625 2.59375 9.625 2.8125V5.4375Z" fill="#8181A5"/>
</svg>
