<svg width="18" height="19" viewBox="0 0 18 19" fill="none" xmlns="http://www.w3.org/2000/svg">
<path d="M17.7188 16.8438L13.0078 12.1328C14.0273 10.8672 14.625 9.28516 14.625 7.5625C14.625 3.55469 11.3203 0.25 7.3125 0.25C3.26953 0.25 0 3.55469 0 7.5625C0 11.6055 3.26953 14.875 7.3125 14.875C9 14.875 10.582 14.3125 11.8477 13.293L16.5586 18.0039C16.6992 18.1797 16.9102 18.25 17.1562 18.25C17.3672 18.25 17.5781 18.1797 17.7188 18.0039C18.0703 17.6875 18.0703 17.1602 17.7188 16.8438ZM1.6875 7.5625C1.6875 4.46875 4.18359 1.9375 7.3125 1.9375C10.4062 1.9375 12.9375 4.46875 12.9375 7.5625C12.9375 10.6914 10.4062 13.1875 7.3125 13.1875C4.18359 13.1875 1.6875 10.6914 1.6875 7.5625Z" fill="#8181A5"/>
</svg>
