<svg width="15" height="15" viewBox="0 0 15 15" fill="none" xmlns="http://www.w3.org/2000/svg">
<path d="M14.2867 14.0117L10.4039 10.1562C11.2789 9.14453 11.7984 7.85938 11.7984 6.4375C11.7984 3.32031 9.22813 0.75 6.11095 0.75C2.96642 0.75 0.423447 3.32031 0.423447 6.4375C0.423447 9.58203 2.96642 12.125 6.11095 12.125C7.50548 12.125 8.79063 11.6328 9.80235 10.7578L13.6578 14.6406C13.7399 14.7227 13.8492 14.75 13.9859 14.75C14.0953 14.75 14.2047 14.7227 14.2867 14.6406C14.4508 14.4766 14.4508 14.1758 14.2867 14.0117ZM6.11095 11.25C3.43126 11.25 1.29845 9.11719 1.29845 6.4375C1.29845 3.78516 3.43126 1.625 6.11095 1.625C8.76329 1.625 10.9234 3.78516 10.9234 6.4375C10.9234 9.11719 8.76329 11.25 6.11095 11.25Z" fill="#8181A5"/>
</svg>
