<svg width="19" height="14" viewBox="0 0 19 14" fill="none" xmlns="http://www.w3.org/2000/svg">
<path d="M18.2703 6.46875C16.5828 2.625 13.2078 0 9.39532 0C5.55157 0 2.17657 2.625 0.489075 6.46875C0.426575 6.625 0.395325 6.875 0.395325 7C0.395325 7.15625 0.426575 7.40625 0.489075 7.5625C2.17657 11.4062 5.55157 14 9.39532 14C13.2078 14 16.5828 11.4062 18.2703 7.5625C18.3328 7.40625 18.3953 7.15625 18.3953 7C18.3953 6.875 18.3328 6.625 18.2703 6.46875ZM9.39532 12.5C6.27032 12.5 3.39532 10.4062 1.89532 7.03125C3.42657 3.625 6.27032 1.5 9.39532 1.5C12.4891 1.5 15.3641 3.625 16.8641 7C15.3328 10.4062 12.4891 12.5 9.39532 12.5ZM9.39532 3C7.17657 3 5.39532 4.8125 5.39532 7C5.39532 9.21875 7.17657 11 9.39532 11C11.5828 11 13.3953 9.21875 13.3953 7.03125V7C13.3953 4.8125 11.5828 3 9.39532 3ZM9.39532 9.5C7.98907 9.5 6.89532 8.40625 6.89532 7C6.89532 7 6.89532 6.96875 6.89532 6.9375C7.05157 7 7.20782 7 7.39532 7C8.48907 7 9.39532 6.125 9.39532 5C9.39532 4.84375 9.36407 4.6875 9.30157 4.53125C9.33282 4.53125 9.36407 4.5 9.39532 4.5C10.7703 4.5 11.8953 5.625 11.8953 7.03125C11.8953 8.40625 10.7703 9.5 9.39532 9.5Z" fill="#8181A5"/>
</svg>
