<svg width="18" height="19" viewBox="0 0 18 19" fill="none" xmlns="http://www.w3.org/2000/svg">
<path d="M17.7186 11.3594C17.7186 11.0781 17.5428 10.7969 17.2616 10.6211L16.1014 9.95312C16.1366 9.74219 16.1366 9.49609 16.1366 9.25C16.1366 9.03906 16.1366 8.79297 16.1014 8.58203L17.2616 7.91406C17.5428 7.73828 17.7186 7.45703 17.7186 7.17578C17.7186 6.40234 15.9608 2.64062 14.7303 2.64062C14.5897 2.64062 14.4491 2.67578 14.3085 2.78125L13.1483 3.44922C12.7616 3.16797 12.3749 2.92188 11.953 2.74609V1.41016C11.953 1.02344 11.7069 0.671875 11.3202 0.566406C10.5468 0.355469 9.77332 0.25 8.99988 0.25C8.19128 0.25 7.41785 0.355469 6.67957 0.566406C6.29285 0.671875 6.0116 1.02344 6.0116 1.41016V2.74609C5.58972 2.92188 5.203 3.16797 4.81628 3.44922L3.65613 2.78125C3.55066 2.67578 3.37488 2.64062 3.23425 2.64062C2.10925 2.64062 0.281128 6.22656 0.281128 7.17578C0.281128 7.45703 0.421753 7.73828 0.703003 7.91406L1.86316 8.58203C1.828 8.79297 1.828 9.03906 1.828 9.25C1.828 9.49609 1.828 9.74219 1.86316 9.95312L0.703003 10.6211C0.421753 10.7969 0.281128 11.0781 0.281128 11.3594C0.281128 12.1328 2.00378 15.8945 3.23425 15.8945C3.37488 15.8945 3.55066 15.8594 3.65613 15.7539L4.81628 15.0859C5.203 15.3672 5.58972 15.6133 6.0116 15.7891V17.125C6.0116 17.5117 6.29285 17.8633 6.67957 17.9688C7.41785 18.1797 8.19128 18.25 8.99988 18.25C9.77332 18.25 10.5468 18.1797 11.3202 17.9688C11.7069 17.8633 11.953 17.5117 11.953 17.125V15.7891C12.3749 15.6133 12.7616 15.3672 13.1483 15.0859L14.3085 15.7539C14.4491 15.8594 14.5897 15.8945 14.7303 15.8945C15.8905 15.8945 17.7186 12.3086 17.7186 11.3594ZM14.5897 13.9609C13.746 13.5039 14.203 13.75 13.0428 13.082C11.5663 14.1719 11.9178 13.9609 10.2655 14.6992V16.457C9.80847 16.5625 9.35144 16.5625 8.99988 16.5625C8.43738 16.5625 8.0155 16.5273 7.6991 16.457V14.6992C6.04675 13.9609 6.39832 14.1719 4.92175 13.082C3.79675 13.75 4.11316 13.5391 3.37488 13.9609C2.84753 13.3281 2.3905 12.5547 2.10925 11.7461C2.84753 11.3242 2.53113 11.5352 3.65613 10.8672C3.55066 9.98828 3.5155 9.63672 3.5155 9.28516C3.5155 8.93359 3.55066 8.54688 3.65613 7.66797C2.53113 7 2.84753 7.21094 2.10925 6.78906C2.3905 5.98047 2.84753 5.20703 3.37488 4.57422C4.21863 5.03125 3.79675 4.78516 4.92175 5.45312C6.39832 4.36328 6.04675 4.57422 7.6991 3.83594V2.07812C8.19128 1.97266 8.61316 1.9375 8.99988 1.9375C9.52722 1.9375 9.98425 2.00781 10.2655 2.07812V3.83594C11.9178 4.57422 11.5663 4.36328 13.0428 5.45312C14.2382 4.75 13.8514 4.99609 14.5897 4.57422C15.1522 5.20703 15.5741 5.98047 15.8553 6.78906C15.1171 7.21094 15.4335 7 14.3436 7.66797C14.4139 8.54688 14.4491 8.89844 14.4491 9.25C14.4491 9.60156 14.4139 9.98828 14.3436 10.8672C15.4686 11.5352 15.1171 11.3242 15.8553 11.7461C15.5741 12.5547 15.1522 13.3281 14.5897 13.9609ZM8.99988 5.875C7.1366 5.875 5.62488 7.42188 5.62488 9.25C5.62488 11.1133 7.1366 12.625 8.99988 12.625C10.8632 12.625 12.3749 11.1133 12.3749 9.25C12.3749 7.42188 10.8632 5.875 8.99988 5.875ZM8.99988 10.9375C8.05066 10.9375 7.31238 10.1992 7.31238 9.25C7.31238 8.33594 8.05066 7.5625 8.99988 7.5625C9.91394 7.5625 10.6874 8.33594 10.6874 9.25C10.6874 10.1992 9.91394 10.9375 8.99988 10.9375Z" fill="#8181A5"/>
</svg>
