<svg width="14" height="17" viewBox="0 0 14 17" fill="none" xmlns="http://www.w3.org/2000/svg">
<path d="M12.0273 4.03125C12.0273 4.52344 12.4141 4.875 12.8711 4.875C13.3633 4.875 13.75 4.52344 13.75 4.03125V1.21875C13.75 0.761719 13.3633 0.375 12.8711 0.375H1.05859C0.742188 0.375 0.425781 0.585938 0.285156 0.9375C0.179688 1.25391 0.25 1.60547 0.496094 1.85156L7.17578 8.25L0.496094 14.6836C0.25 14.9297 0.179688 15.2812 0.285156 15.5977C0.425781 15.9492 0.742188 16.125 1.05859 16.125H12.8711C13.3633 16.125 13.75 15.7734 13.75 15.2812V12.4688C13.75 12.0117 13.3633 11.625 12.8711 11.625C12.4141 11.625 12.0273 12.0117 12.0273 12.4688V14.4375H3.16797L8.96875 8.88281C9.14453 8.70703 9.21484 8.49609 9.21484 8.25C9.21484 8.03906 9.14453 7.82812 8.96875 7.65234L3.16797 2.0625H12.0273V4.03125Z" fill="#8181A5"/>
</svg>
