<svg width="11" height="16" viewBox="0 0 11 16" fill="none" xmlns="http://www.w3.org/2000/svg">
<path d="M9.46875 9.03125H2.5C1.15625 9.03125 0.46875 10.625 1.4375 11.5625L4.9375 15.0625C5.5 15.6562 6.46875 15.6562 7.03125 15.0625L10.5312 11.5625C11.4688 10.625 10.8125 9.03125 9.46875 9.03125ZM6 14.0312L2.5 10.5312H9.46875L6 14.0312ZM2.5 7H9.46875C10.8125 7 11.5 5.40625 10.5312 4.46875L7.03125 0.96875C6.46875 0.375 5.5 0.375 4.9375 0.96875L1.4375 4.46875C0.5 5.40625 1.15625 7 2.5 7ZM6 2L9.46875 5.5H2.5L6 2Z" fill="#C0C0CA"/>
</svg>
