<svg width="18" height="17" viewBox="0 0 18 17" fill="none" xmlns="http://www.w3.org/2000/svg">
<path d="M15.7499 0.375H2.24988C0.984253 0.375 -0.00012207 1.39453 -0.00012207 2.625V13.875C-0.00012207 15.1406 0.984253 16.125 2.24988 16.125H15.7499C16.9803 16.125 17.9999 15.1406 17.9999 13.875V2.625C17.9999 1.39453 16.9803 0.375 15.7499 0.375ZM16.3124 2.625V7.40625H9.84363V2.0625H15.7499C16.0311 2.0625 16.3124 2.34375 16.3124 2.625ZM2.24988 2.0625H8.15613V7.40625H1.68738V2.625C1.68738 2.34375 1.93347 2.0625 2.24988 2.0625ZM1.68738 13.875V9.09375H8.15613V14.4375H2.24988C1.93347 14.4375 1.68738 14.1914 1.68738 13.875ZM15.7499 14.4375H9.84363V9.09375H16.3124V13.875C16.3124 14.1914 16.0311 14.4375 15.7499 14.4375Z" fill="#8181A5"/>
</svg>
