<svg width="14" height="14" viewBox="0 0 14 14" fill="none" xmlns="http://www.w3.org/2000/svg">
<path d="M13.4917 0.672952L10.6479 0.0167019C10.339 -0.0543918 10.0218 0.106936 9.89599 0.39678L8.58349 3.45928C8.46864 3.72725 8.54521 4.0417 8.77216 4.22491L10.4292 5.58116C9.44482 7.67842 7.72489 9.42295 5.58388 10.4265L4.22763 8.76944C4.04169 8.54248 3.72997 8.46592 3.462 8.58076L0.399504 9.89326C0.106925 10.0218 -0.0544027 10.339 0.0166911 10.648L0.672941 13.4917C0.7413 13.787 1.0038 14.0003 1.31278 14.0003C8.31552 14.0003 14.0003 8.32647 14.0003 1.3128C14.0003 1.00655 13.7897 0.741311 13.4917 0.672952Z" fill="#6FCF97"/>
</svg>
