<svg width="17" height="14" viewBox="0 0 17 14" fill="none" xmlns="http://www.w3.org/2000/svg">
<path d="M14.9688 0H2.96875C1.84375 0 0.96875 0.90625 0.96875 2V12C0.96875 13.125 1.84375 14 2.96875 14H14.9688C16.0625 14 16.9688 13.125 16.9688 12V2C16.9688 0.90625 16.0625 0 14.9688 0ZM8.46875 13H2.96875C2.40625 13 1.96875 12.5625 1.96875 12V5H8.46875V13ZM15.9688 12C15.9688 12.5625 15.5 13 14.9688 13H9.46875V5H15.9688V12ZM15.9688 4H1.96875V2C1.96875 1.46875 2.40625 1 2.96875 1H14.9688C15.5 1 15.9688 1.46875 15.9688 2V4Z" fill="#8181A5"/>
</svg>
