<svg width="18" height="18" viewBox="0 0 18 18" fill="none" xmlns="http://www.w3.org/2000/svg">
<path d="M0.406006 1.12708C0.0544434 1.44349 0.0544434 1.97083 0.406006 2.28724L3.25366 5.17005L1.60132 6.82239C1.39038 7.03333 1.28491 7.31458 1.28491 7.63099C1.28491 7.77161 1.28491 7.91224 1.35522 8.05286C1.53101 8.47474 1.95288 8.75599 2.37476 8.75599H7.15601C7.64819 8.75599 7.99976 8.36927 7.99976 7.91224L7.99976 3.13099C7.99976 2.67395 7.75366 2.25208 7.33179 2.0763C6.90991 1.90052 6.41772 2.00599 6.10132 2.32239L4.44897 3.97474L1.56616 1.12708C1.24976 0.775517 0.722412 0.775517 0.406006 1.12708ZM9.15991 10.7247V15.506C9.15991 15.9279 9.40601 16.3497 9.82788 16.5255C10.2498 16.7013 10.7419 16.5958 11.0583 16.2794L12.7107 14.6271L15.5935 17.4747C15.9099 17.8263 16.4373 17.8263 16.7537 17.4747C17.1052 17.1583 17.1052 16.631 16.7537 16.3146L13.906 13.4318L15.5583 11.7794C15.7693 11.5685 15.8748 11.2872 15.8748 10.9708C15.8748 10.8302 15.8748 10.6896 15.8044 10.549C15.6287 10.1271 15.2068 9.88099 14.7849 9.88099L10.0037 9.88099C9.51147 9.88099 9.15991 10.2325 9.15991 10.7247Z" fill="white"/>
</svg>
