<svg width="14" height="12" viewBox="0 0 14 12" fill="none" xmlns="http://www.w3.org/2000/svg">
<path d="M12.5609 2.83375C12.5698 2.95811 12.5698 3.0825 12.5698 3.20686C12.5698 7 9.68279 11.3706 4.40611 11.3706C2.78046 11.3706 1.27031 10.8998 0 10.0825C0.230974 10.1092 0.453033 10.118 0.692893 10.118C2.03425 10.118 3.26904 9.66501 4.25509 8.89217C2.99366 8.86551 1.93655 8.03937 1.57233 6.9023C1.75001 6.92893 1.92766 6.94671 2.11423 6.94671C2.37183 6.94671 2.62947 6.91116 2.8693 6.84901C1.55458 6.58249 0.568506 5.42767 0.568506 4.033V3.99748C0.950473 4.21068 1.39467 4.34393 1.86545 4.36167C1.09261 3.84643 0.58628 2.967 0.58628 1.97207C0.58628 1.43908 0.728386 0.9505 0.977133 0.5241C2.38958 2.26522 4.51269 3.40226 6.89339 3.52665C6.84898 3.31345 6.82232 3.09139 6.82232 2.8693C6.82232 1.28806 8.10152 0 9.69162 0C10.5178 0 11.2639 0.346447 11.7881 0.906093C12.4365 0.781734 13.0584 0.541873 13.6091 0.2132C13.3959 0.879461 12.9429 1.43911 12.3477 1.79441C12.9251 1.73226 13.4848 1.57233 14 1.35027C13.6092 1.91877 13.1206 2.4251 12.5609 2.83375Z" fill="#8181A5"/>
</svg>
