<svg width="16" height="17" viewBox="0 0 16 17" fill="none" xmlns="http://www.w3.org/2000/svg">
<path d="M14.1875 0.375H1.8125C0.863281 0.375 0.125 1.14844 0.125 2.0625V14.4375C0.125 15.3867 0.863281 16.125 1.8125 16.125H14.1875C15.1016 16.125 15.875 15.3867 15.875 14.4375V2.0625C15.875 1.14844 15.1016 0.375 14.1875 0.375ZM12.4648 5.96484C12.4648 6.07031 12.4648 6.17578 12.4648 6.28125C12.4648 9.30469 10.1445 12.8203 5.89062 12.8203C4.58984 12.8203 3.39453 12.4688 2.375 11.8008C2.55078 11.8359 2.72656 11.8359 2.90234 11.8359C3.99219 11.8359 4.97656 11.4492 5.78516 10.8516C4.76562 10.8164 3.92188 10.1484 3.60547 9.23438C3.99219 9.30469 4.30859 9.30469 4.66016 9.19922C3.60547 8.98828 2.83203 8.07422 2.83203 6.94922V6.91406C3.11328 7.08984 3.46484 7.19531 3.85156 7.19531C3.21875 6.77344 2.83203 6.07031 2.83203 5.29688C2.83203 4.83984 2.9375 4.45312 3.14844 4.10156C4.27344 5.50781 5.99609 6.42188 7.89453 6.52734C7.57812 4.98047 8.73828 3.67969 10.1445 3.67969C10.8125 3.67969 11.4102 3.96094 11.832 4.41797C12.3594 4.3125 12.8516 4.13672 13.3086 3.85547C13.1328 4.41797 12.7461 4.83984 12.2891 5.12109C12.7461 5.08594 13.2031 4.94531 13.625 4.76953C13.3086 5.22656 12.8867 5.64844 12.4648 5.96484Z" fill="#8181A5"/>
</svg>
