<svg width="14" height="14" viewBox="0 0 14 14" fill="none" xmlns="http://www.w3.org/2000/svg">
<path d="M3.96875 8.59375C3.6875 8.90625 3.6875 9.375 3.96875 9.65625L4.34375 10.0312C4.625 10.3125 5.09375 10.3125 5.40625 10.0312L7.40625 8L8.71875 9.28125C8.84375 9.4375 9.03125 9.5 9.25 9.5C9.34375 9.5 9.4375 9.5 9.53125 9.46875C9.8125 9.34375 10 9.0625 10 8.75V4.75C10 4.34375 9.65625 4 9.25 4H5.25C4.9375 4 4.65625 4.1875 4.53125 4.46875C4.4375 4.75 4.5 5.09375 4.71875 5.28125L6 6.59375L3.96875 8.59375ZM0 2V12C0 13.125 0.875 14 2 14H12C13.0938 14 14 13.125 14 12V2C14 0.90625 13.0938 0 12 0H2C0.875 0 0 0.90625 0 2ZM1.5 2C1.5 1.75 1.71875 1.5 2 1.5H12C12.25 1.5 12.5 1.75 12.5 2V12C12.5 12.2812 12.25 12.5 12 12.5H2C1.71875 12.5 1.5 12.2812 1.5 12V2Z" fill="#1991EB"/>
</svg>
