<svg width="16" height="17" viewBox="0 0 16 17" fill="none" xmlns="http://www.w3.org/2000/svg">
<path d="M4.58984 10.043C4.27344 10.3945 4.27344 10.9219 4.58984 11.2383L5.01172 11.6602C5.32812 11.9766 5.85547 11.9766 6.20703 11.6602L8.45703 9.375L9.93359 10.8164C10.0742 10.9922 10.2852 11.0625 10.5312 11.0625C10.6367 11.0625 10.7422 11.0625 10.8477 11.0273C11.1641 10.8867 11.375 10.5703 11.375 10.2188V5.71875C11.375 5.26172 10.9883 4.875 10.5312 4.875H6.03125C5.67969 4.875 5.36328 5.08594 5.22266 5.40234C5.11719 5.71875 5.1875 6.10547 5.43359 6.31641L6.875 7.79297L4.58984 10.043ZM0.125 2.625V13.875C0.125 15.1406 1.10938 16.125 2.375 16.125H13.625C14.8555 16.125 15.875 15.1406 15.875 13.875V2.625C15.875 1.39453 14.8555 0.375 13.625 0.375H2.375C1.10938 0.375 0.125 1.39453 0.125 2.625ZM1.8125 2.625C1.8125 2.34375 2.05859 2.0625 2.375 2.0625H13.625C13.9062 2.0625 14.1875 2.34375 14.1875 2.625V13.875C14.1875 14.1914 13.9062 14.4375 13.625 14.4375H2.375C2.05859 14.4375 1.8125 14.1914 1.8125 13.875V2.625Z" fill="#8181A5"/>
</svg>
