<svg width="42" height="42" viewBox="0 0 42 42" fill="none" xmlns="http://www.w3.org/2000/svg">
<rect width="42" height="42" rx="4" fill="#1991EB"/>
<path d="M30.4075 13.3594L22.1575 9.92188C21.8997 9.83594 21.6419 9.75 21.3841 9.75C21.0833 9.75 20.8255 9.83594 20.5676 9.92188L12.3176 13.3594C11.5442 13.7031 11.0716 14.4336 11.0716 15.25C11.0716 26.3359 19.1926 31.75 21.3411 31.75C23.4895 31.75 31.6966 26.4219 31.6966 15.25C31.6966 14.4336 31.1809 13.7031 30.4075 13.3594ZM21.3841 29.6875C17.1731 27.9688 13.1341 22.5547 13.1341 15.25L21.3841 11.8125L29.6341 15.25C29.6341 22.7266 25.3801 28.0117 21.3841 29.6875ZM18.9778 20.4062C18.8059 20.1914 18.5481 20.0625 18.2903 20.0625C17.6887 20.0625 17.2591 20.5781 17.2591 21.0938C17.2591 21.3945 17.345 21.6523 17.5598 21.8242L19.6223 23.8867C19.7942 24.1016 20.052 24.1875 20.3528 24.1875C20.4387 24.1875 20.8255 24.1875 21.1262 23.8438L25.2512 19.0312C25.4231 18.8594 25.5091 18.6016 25.5091 18.3438C25.5091 18.043 25.2512 17.3125 24.4778 17.3125C24.177 17.3125 23.8762 17.4414 23.6614 17.6992L20.2669 21.6523L18.9778 20.4062Z" fill="white"/>
</svg>
