<svg width="14" height="13" viewBox="0 0 14 13" fill="none" xmlns="http://www.w3.org/2000/svg">
<path d="M13.1523 0.679687C12.9062 0.597656 12.6055 0.652344 12.4414 0.84375L11.0469 2.21094C9.95312 1.22656 8.53125 0.625 7 0.625C4.29297 0.625 1.85938 2.45703 1.09375 5.05469C1.01172 5.41016 1.20313 5.76562 1.55859 5.875C1.91406 5.95703 2.26953 5.76562 2.37891 5.41016C2.95313 3.38672 4.86719 1.9375 7 1.9375C8.17578 1.9375 9.26953 2.40234 10.1172 3.14062L8.50391 4.78125C8.3125 4.94531 8.25781 5.24609 8.33984 5.49219C8.44922 5.73828 8.69531 5.875 8.96875 5.875L12.9063 5.875C13.2617 5.875 13.5625 5.60156 13.5625 5.21875L13.5625 1.28125C13.5625 1.03516 13.3984 0.789062 13.1523 0.679687ZM12.4141 7.65234C12.0859 7.57031 11.7031 7.76172 11.6211 8.11719C11.0195 10.1406 9.10547 11.5625 7 11.5625C5.79688 11.5625 4.70313 11.125 3.85547 10.3867L5.46875 8.74609C5.66016 8.58203 5.71484 8.28125 5.63281 8.03516C5.52344 7.78906 5.27734 7.625 5.03125 7.625L1.09375 7.625C0.710938 7.625 0.4375 7.92578 0.4375 8.28125L0.4375 12.2188C0.4375 12.4922 0.574219 12.7383 0.820313 12.8477C0.902344 12.875 0.984375 12.875 1.09375 12.875C1.25781 12.875 1.42188 12.8203 1.53125 12.6836L2.92578 11.3164C4.01953 12.3008 5.44141 12.875 7 12.875C9.70703 12.875 12.1133 11.0703 12.8789 8.47266C12.9609 8.11719 12.7695 7.76172 12.4141 7.65234Z" fill="#1991EB"/>
</svg>
