<svg width="42" height="42" viewBox="0 0 42 42" fill="none" xmlns="http://www.w3.org/2000/svg">
<g opacity="0.1">
<rect width="42" height="42" rx="4" fill="#1991EB"/>
<rect width="42" height="42" rx="4" stroke="white"/>
</g>
<path d="M26.0625 12.25H15.9375C14.9883 12.25 14.25 13.0234 14.25 13.9375V29.125C14.25 29.7578 14.7422 30.25 15.375 30.25H19.3125V27.4375C19.3125 26.5234 20.0508 25.75 21 25.75C21.9141 25.75 22.6875 26.5234 22.6875 27.4375V30.25H26.625C27.2227 30.25 27.75 29.7578 27.75 29.125V13.9375C27.75 13.0234 26.9766 12.25 26.0625 12.25ZM19.875 22.9375C19.875 23.2539 19.5938 23.5 19.3125 23.5H18.1875C17.8711 23.5 17.625 23.2539 17.625 22.9375V21.8125C17.625 21.5312 17.8711 21.25 18.1875 21.25H19.3125C19.5938 21.25 19.875 21.5312 19.875 21.8125V22.9375ZM19.875 19.5625C19.875 19.8789 19.5938 20.125 19.3125 20.125H18.1875C17.8711 20.125 17.625 19.8789 17.625 19.5625V18.4375C17.625 18.1562 17.8711 17.875 18.1875 17.875H19.3125C19.5938 17.875 19.875 18.1562 19.875 18.4375V19.5625ZM19.875 16.1875C19.875 16.5039 19.5938 16.75 19.3125 16.75H18.1875C17.8711 16.75 17.625 16.5039 17.625 16.1875V15.0625C17.625 14.7812 17.8711 14.5 18.1875 14.5H19.3125C19.5938 14.5 19.875 14.7812 19.875 15.0625V16.1875ZM24.375 22.9375C24.375 23.2539 24.0938 23.5 23.8125 23.5H22.6875C22.3711 23.5 22.125 23.2539 22.125 22.9375V21.8125C22.125 21.5312 22.3711 21.25 22.6875 21.25H23.8125C24.0938 21.25 24.375 21.5312 24.375 21.8125V22.9375ZM24.375 19.5625C24.375 19.8789 24.0938 20.125 23.8125 20.125H22.6875C22.3711 20.125 22.125 19.8789 22.125 19.5625V18.4375C22.125 18.1562 22.3711 17.875 22.6875 17.875H23.8125C24.0938 17.875 24.375 18.1562 24.375 18.4375V19.5625ZM24.375 16.1875C24.375 16.5039 24.0938 16.75 23.8125 16.75H22.6875C22.3711 16.75 22.125 16.5039 22.125 16.1875V15.0625C22.125 14.7812 22.3711 14.5 22.6875 14.5H23.8125C24.0938 14.5 24.375 14.7812 24.375 15.0625V16.1875Z" fill="#1991EB"/>
</svg>
