<svg width="24" height="24" viewBox="0 0 24 24" fill="none" xmlns="http://www.w3.org/2000/svg">
<path d="M21.8438 3.9375L12.8438 0.1875C12.6094 0.09375 12.2344 0 12 0C11.7188 0 11.3438 0.09375 11.1094 0.1875L2.10938 3.9375C1.26562 4.3125 0.75 5.10938 0.75 6C0.75 18.0938 9.60938 24 11.9531 24C14.3906 24 23.25 18 23.25 6C23.25 5.10938 22.6875 4.3125 21.8438 3.9375ZM16.5 9.42188C16.5 9.65625 16.4062 9.9375 16.2188 10.125L11.7188 15.375C11.3906 15.75 10.9688 15.75 10.875 15.75C10.5469 15.75 10.2656 15.6562 10.0781 15.4219L7.82812 13.1719C7.59375 12.9844 7.5 12.7031 7.5 12.375C7.5 11.8125 7.96875 11.25 8.625 11.25C8.90625 11.25 9.1875 11.3906 9.375 11.625L10.7812 12.9844L14.4844 8.67188C14.7188 8.39062 15.0469 8.29688 15.375 8.29688C16.2188 8.29688 16.5 9.04688 16.5 9.42188Z" fill="#27AE60"/>
</svg>
