<svg width="22" height="14" viewBox="0 0 22 14" fill="none" xmlns="http://www.w3.org/2000/svg">
<path d="M20.457 1.87109C20.0703 1.58984 19.543 1.55469 19.1211 1.76562L15.5 3.45312V2.75C15.5 1.51953 14.4805 0.5 13.25 0.5H3.125C1.85938 0.5 0.875 1.51953 0.875 2.75V11.75C0.875 13.0156 1.85938 14 3.125 14H13.25C14.4805 14 15.5 13.0156 15.5 11.75V11.082L19.1211 12.7695C19.2969 12.8398 19.5078 12.9102 19.7188 12.9102C19.9648 12.9102 20.2461 12.8047 20.457 12.6641C20.8789 12.418 21.125 11.9609 21.125 11.4688V3.06641C21.125 2.57422 20.8789 2.11719 20.457 1.87109ZM13.8125 11.75C13.8125 12.0664 13.5312 12.3125 13.25 12.3125H3.125C2.80859 12.3125 2.5625 12.0664 2.5625 11.75V2.75C2.5625 2.46875 2.80859 2.1875 3.125 2.1875H13.25C13.5312 2.1875 13.8125 2.46875 13.8125 2.75V11.75ZM19.4375 11.0469L15.5 9.25391V5.28125L19.4375 3.48828V11.0469Z" fill="#8181A5"/>
</svg>
