<svg width="21" height="14" viewBox="0 0 21 14" fill="none" xmlns="http://www.w3.org/2000/svg">
<path d="M19.582 1.87109C19.1953 1.58984 18.668 1.55469 18.2461 1.76562L14.625 3.45312V2.75C14.625 1.51953 13.6055 0.5 12.375 0.5H2.25C0.984375 0.5 0 1.51953 0 2.75V11.75C0 13.0156 0.984375 14 2.25 14H12.375C13.6055 14 14.625 13.0156 14.625 11.75V11.082L18.2461 12.7695C18.4219 12.8398 18.6328 12.9102 18.8438 12.9102C19.0898 12.9102 19.3711 12.8047 19.582 12.6641C20.0039 12.418 20.25 11.9609 20.25 11.4688V3.06641C20.25 2.57422 20.0039 2.11719 19.582 1.87109ZM12.9375 11.75C12.9375 12.0664 12.6562 12.3125 12.375 12.3125H2.25C1.93359 12.3125 1.6875 12.0664 1.6875 11.75V2.75C1.6875 2.46875 1.93359 2.1875 2.25 2.1875H12.375C12.6562 2.1875 12.9375 2.46875 12.9375 2.75V11.75ZM18.5625 11.0469L14.625 9.25391V5.28125L18.5625 3.48828V11.0469Z" fill="#E7004C"/>
</svg>
