<svg width="42" height="42" viewBox="0 0 42 42" fill="none" xmlns="http://www.w3.org/2000/svg">
<rect width="42" height="42" rx="4" fill="white"/>
<rect width="42" height="42" rx="4" fill="#FF808B" fill-opacity="0.1"/>
<path d="M27.75 15.625H25.5V14.5C25.5 13.2695 24.4805 12.25 23.25 12.25H18.75C17.4844 12.25 16.5 13.2695 16.5 14.5V15.625H14.25C12.9844 15.625 12 16.6445 12 17.875V26.875C12 28.1406 12.9844 29.125 14.25 29.125H27.75C28.9805 29.125 30 28.1406 30 26.875V17.875C30 16.6445 28.9805 15.625 27.75 15.625ZM18.75 13.9375H23.25C23.5312 13.9375 23.8125 14.2188 23.8125 14.5V15.625H18.1875V14.5C18.1875 14.2188 18.4336 13.9375 18.75 13.9375ZM14.25 17.3125H27.75C28.0312 17.3125 28.3125 17.5938 28.3125 17.875V21.25H13.6875V17.875C13.6875 17.5938 13.9336 17.3125 14.25 17.3125ZM27.75 27.4375H14.25C13.9336 27.4375 13.6875 27.1914 13.6875 26.875V22.9375H18.75V23.5C18.75 24.1328 19.2422 24.625 19.875 24.625H22.125C22.7227 24.625 23.25 24.1328 23.25 23.5V22.9375H28.3125V26.875C28.3125 27.1914 28.0312 27.4375 27.75 27.4375Z" fill="#E7004C"/>
</svg>
