<svg width="14" height="12" viewBox="0 0 14 12" fill="none" xmlns="http://www.w3.org/2000/svg">
<path d="M1.99577 12C1.30745 12 0.672667 11.6174 0.313211 11.0163C-0.0921323 10.337 -0.0921323 9.52505 0.244379 8.81457L4.70316 1.3663C5.20792 0.608979 5.86565 0 6.82165 0C7.77765 0 8.43538 0.608979 8.94014 1.3663L13.376 8.77554C13.7431 9.4704 13.7278 10.3448 13.3224 11.0163C12.963 11.6174 12.3358 12 11.6399 12H1.99577ZM6.82165 8.11191C7.22699 8.11191 7.54821 8.44763 7.54821 8.86142C7.54821 9.27521 7.22699 9.60312 6.82165 9.60312C6.41631 9.60312 6.08744 9.27521 6.08744 8.86142C6.08744 8.44763 6.41631 8.11191 6.82165 8.11191ZM6.82165 7.3702C6.55397 7.3702 6.36277 7.14379 6.33218 6.87053L6.08744 4.6298C6.0492 4.24723 6.4469 3.88809 6.82165 3.88809C7.1964 3.88809 7.5941 4.24723 7.54821 4.6298L7.30347 6.87053C7.28053 7.13598 7.09698 7.3702 6.82165 7.3702ZM1.99577 11.0085H11.6399C11.9993 11.0085 12.3053 10.8055 12.4965 10.4932C12.7182 10.1184 12.7106 9.66558 12.5347 9.27521L8.12945 1.92062C7.81589 1.45218 7.42584 0.991542 6.82165 0.991542C6.21746 0.991542 5.81976 1.45218 5.5062 1.92062L1.1086 9.27521C0.92505 9.67339 0.917402 10.1184 1.14684 10.4932C1.33039 10.8055 1.63631 11.0085 1.99577 11.0085Z" fill="#979797"/>
</svg>
