<svg width="36" height="25" viewBox="0 0 36 25" fill="none" xmlns="http://www.w3.org/2000/svg">
<path d="M34.3125 4.3418C33.9375 2.8418 32.75 1.6543 31.3125 1.2793C28.625 0.529297 18 0.529297 18 0.529297C18 0.529297 7.3125 0.529297 4.625 1.2793C3.1875 1.6543 2 2.8418 1.625 4.3418C0.875 6.9668 0.875 12.5918 0.875 12.5918C0.875 12.5918 0.875 18.1543 1.625 20.8418C2 22.3418 3.1875 23.4668 4.625 23.8418C7.3125 24.5293 18 24.5293 18 24.5293C18 24.5293 28.625 24.5293 31.3125 23.8418C32.75 23.4668 33.9375 22.3418 34.3125 20.8418C35.0625 18.1543 35.0625 12.5918 35.0625 12.5918C35.0625 12.5918 35.0625 6.9668 34.3125 4.3418ZM14.5 17.6543V7.5293L23.375 12.5918L14.5 17.6543Z" fill="#8181A5"/>
</svg>
